<svg width="37" height="37" viewBox="0 0 37 37" fill="none" xmlns="http://www.w3.org/2000/svg">
<g clip-path="url(#clip0)">
<path fill-rule="evenodd" clip-rule="evenodd" d="M7.36877 16.129C7.36877 11.2591 12.35 8.17041 18.5 8.17041C24.65 8.17041 29.6312 11.2591 29.6312 16.129V30.0431C29.6312 31.2745 29.0885 32.3668 28.2398 33.132V35.6087C28.2398 36.374 27.6137 37.0001 26.8484 37.0001H25.457C24.6848 37.0001 24.0656 36.374 24.0656 35.6087V34.2173H12.9344V35.6087C12.9344 36.374 12.3152 37.0001 11.543 37.0001H10.1515C9.38629 37.0001 8.76016 36.374 8.76016 35.6087V33.132C7.91142 32.3667 7.36877 31.2744 7.36877 30.043V16.129ZM10.1516 29.3474C10.1516 30.5023 11.0838 31.4345 12.2387 31.4345C13.3935 31.4345 14.3258 30.5023 14.3258 29.3474C14.3258 28.1925 13.3936 27.2603 12.2387 27.2603C11.0838 27.2603 10.1516 28.1925 10.1516 29.3474ZM22.6743 29.3474C22.6743 30.5023 23.6065 31.4345 24.7614 31.4345C25.9162 31.4345 26.8485 30.5023 26.8485 29.3474C26.8485 28.1925 25.9163 27.2603 24.7614 27.2603C23.6065 27.2603 22.6743 28.1925 22.6743 29.3474ZM10.1516 23.0861H26.8485V16.129H10.1516V23.0861ZM15.6493 10.5989H17.5499V12.4994L15.6493 12.4995L15.6493 10.5989ZM15.6493 12.4995V14.4001H13.7488V12.4995H15.6493ZM19.4505 12.4995V14.4001H17.5499L17.5499 12.4994L19.4505 12.4995ZM21.351 12.4994L19.4505 12.4995L19.4504 10.5989H21.351V12.4994ZM21.351 12.4994L23.2513 12.4995V14.4001H21.3507L21.351 12.4994Z" fill="white"/>
</g>
<defs>
<clipPath id="clip0">
<rect width="37" height="37" fill="white"/>
</clipPath>
</defs>
</svg>
