<svg width="37" height="37" viewBox="0 0 37 37" fill="none" xmlns="http://www.w3.org/2000/svg">
<g clip-path="url(#clip0)">
<path d="M18.5001 6.0918C11.3098 6.0918 5.48615 6.90519 5.48615 12.5987V28.8661C5.48615 30.3058 6.12057 31.5828 7.11286 32.4775V35.3731C7.11286 36.2678 7.84489 36.9998 8.73957 36.9998H10.3664C11.2692 36.9998 11.9931 36.2678 11.9931 35.3731V33.7464H25.007V35.3731C25.007 36.2678 25.7309 36.9998 26.6337 36.9998H28.2604C29.1551 36.9998 29.8872 36.2678 29.8872 35.3731V32.4775C30.8794 31.5828 31.5139 30.3058 31.5139 28.8662V12.5987C31.5139 6.90519 25.6902 6.0918 18.5001 6.0918ZM11.1798 30.4929C9.82954 30.4929 8.73965 29.403 8.73965 28.0528C8.73965 26.7026 9.82954 25.6127 11.1798 25.6127C12.53 25.6127 13.6199 26.7026 13.6199 28.0528C13.6199 29.403 12.5299 30.4929 11.1798 30.4929ZM25.8204 30.4929C24.4702 30.4929 23.3803 29.403 23.3803 28.0528C23.3803 26.7026 24.4702 25.6127 25.8204 25.6127C27.1706 25.6127 28.2605 26.7026 28.2605 28.0528C28.2605 29.403 27.1705 30.4929 25.8204 30.4929ZM28.2605 20.7324H8.73965V12.5987H28.2605V20.7324Z" fill="white"/>
<path d="M20.6635 0H22.562L25.251 6.93346H20.6635V0Z" fill="white"/>
<path d="M16.3365 0H14.438L11.749 6.93346H16.3365V0Z" fill="white"/>
</g>
<defs>
<clipPath id="clip0">
<rect width="37" height="37" fill="white"/>
</clipPath>
</defs>
</svg>
