<svg width="22" height="22" viewBox="0 0 22 22" fill="none" xmlns="http://www.w3.org/2000/svg">
<rect width="22" height="22" rx="3" fill="#3DB300"/>
<g clip-path="url(#clip0)">
<path d="M11.0004 4.29297C7.11377 4.29297 3.96582 4.73264 3.96582 7.81023V16.6034C3.96582 17.3816 4.30875 18.0719 4.84512 18.5555V20.1207C4.84512 20.6043 5.24082 21 5.72443 21H6.60378C7.0918 21 7.48308 20.6043 7.48308 20.1207V19.2414H14.5176V20.1207C14.5176 20.6043 14.9089 21 15.3969 21H16.2762C16.7599 21 17.1556 20.6043 17.1556 20.1207V18.5555C17.6919 18.0719 18.0349 17.3816 18.0349 16.6034V7.81023C18.0349 4.73264 14.887 4.29297 11.0004 4.29297ZM7.04345 17.4827C6.3136 17.4827 5.72447 16.8936 5.72447 16.1638C5.72447 15.4339 6.3136 14.8448 7.04345 14.8448C7.7733 14.8448 8.36243 15.4339 8.36243 16.1638C8.36243 16.8936 7.77325 17.4827 7.04345 17.4827ZM14.9573 17.4827C14.2275 17.4827 13.6383 16.8936 13.6383 16.1638C13.6383 15.4339 14.2275 14.8448 14.9573 14.8448C15.6872 14.8448 16.2763 15.4339 16.2763 16.1638C16.2763 16.8936 15.6871 17.4827 14.9573 17.4827ZM16.2763 12.2068H5.72447V7.81023H16.2763V12.2068Z" fill="white"/>
<path d="M18.0352 8.70435H19.0408C19.2065 8.70435 19.3408 8.83866 19.3408 9.00435V12.3464C19.3408 12.5121 19.2065 12.6464 19.0408 12.6464H18.0352V8.70435Z" fill="white"/>
<path d="M2.66016 9.00435C2.66016 8.83866 2.79447 8.70435 2.96016 8.70435H3.96578V12.6464H2.96016C2.79447 12.6464 2.66016 12.5121 2.66016 12.3464V9.00435Z" fill="white"/>
</g>
<defs>
<clipPath id="clip0">
<rect width="20" height="20" fill="white" transform="translate(1 1)"/>
</clipPath>
</defs>
</svg>
