<svg width="22" height="22" viewBox="0 0 22 22" fill="none" xmlns="http://www.w3.org/2000/svg">
<rect width="22" height="22" rx="3" fill="#B43DCC"/>
<path fill-rule="evenodd" clip-rule="evenodd" d="M4.9834 9.71821C4.9834 7.08584 7.67595 5.41626 11.0003 5.41626C14.3246 5.41626 17.0172 7.08584 17.0171 9.71821V17.2393C17.0171 17.905 16.7238 18.4954 16.265 18.909V20.2478C16.265 20.6614 15.9266 20.9999 15.5129 20.9999H14.7608C14.3434 20.9999 14.0087 20.6614 14.0087 20.2478V19.4957H7.99183V20.2478C7.99183 20.6614 7.65715 20.9999 7.23973 20.9999H6.4876C6.07395 20.9999 5.7355 20.6614 5.7355 20.2478V18.909C5.27672 18.4953 4.9834 17.9049 4.9834 17.2393V9.71821ZM6.48763 16.8633C6.48763 17.4875 6.99154 17.9914 7.6158 17.9914C8.24003 17.9914 8.74397 17.4875 8.74397 16.8633C8.74397 16.239 8.24006 15.7351 7.6158 15.7351C6.99154 15.7351 6.48763 16.239 6.48763 16.8633ZM13.2566 16.8633C13.2566 17.4875 13.7605 17.9914 14.3848 17.9914C15.009 17.9914 15.513 17.4875 15.513 16.8633C15.513 16.239 15.0091 15.7351 14.3848 15.7351C13.7605 15.7351 13.2566 16.239 13.2566 16.8633ZM6.48763 13.4788H15.513V9.71821H6.48763V13.4788ZM9.45935 6.72906H10.4867V7.75639L9.45938 7.75643L9.45935 6.72906ZM9.45938 7.75643V8.78376H8.43205V7.75643H9.45938ZM11.5141 7.75643V8.78376H10.4867L10.4867 7.75639L11.5141 7.75643ZM12.5414 7.75639L11.5141 7.75643L11.514 6.72906H12.5414V7.75639ZM12.5414 7.75639L13.5685 7.75643V8.78376H12.5412L12.5414 7.75639Z" fill="white"/>
</svg>
