<svg width="22" height="22" viewBox="0 0 22 22" fill="none" xmlns="http://www.w3.org/2000/svg">
<rect width="22" height="22" rx="3" fill="#168CFF"/>
<g clip-path="url(#clip0)">
<path d="M11.0004 4.29321C7.11377 4.29321 3.96582 4.73289 3.96582 7.81047V16.6036C3.96582 17.3818 4.30875 18.0721 4.84512 18.5557V20.1209C4.84512 20.6046 5.24082 21.0002 5.72443 21.0002H6.60378C7.0918 21.0002 7.48308 20.6046 7.48308 20.1209V19.2416H14.5176V20.1209C14.5176 20.6046 14.9089 21.0002 15.3969 21.0002H16.2762C16.7599 21.0002 17.1556 20.6046 17.1556 20.1209V18.5558C17.6919 18.0722 18.0349 17.3819 18.0349 16.6037V7.81047C18.0349 4.73289 14.887 4.29321 11.0004 4.29321ZM7.04345 17.483C6.3136 17.483 5.72447 16.8939 5.72447 16.164C5.72447 15.4342 6.3136 14.845 7.04345 14.845C7.7733 14.845 8.36243 15.4342 8.36243 16.164C8.36243 16.8939 7.77325 17.483 7.04345 17.483ZM14.9573 17.483C14.2275 17.483 13.6383 16.8939 13.6383 16.164C13.6383 15.4342 14.2275 14.845 14.9573 14.845C15.6872 14.845 16.2763 15.4342 16.2763 16.164C16.2763 16.8939 15.6871 17.483 14.9573 17.483ZM16.2763 12.2071H5.72447V7.81047H16.2763V12.2071Z" fill="white"/>
<path d="M12.1699 1H13.1961L14.6497 4.74782H12.1699V1Z" fill="white"/>
<path d="M9.83107 1H8.80484L7.35131 4.74782H9.83107V1Z" fill="white"/>
</g>
<defs>
<clipPath id="clip0">
<rect width="20" height="20" fill="white" transform="translate(1 1)"/>
</clipPath>
</defs>
</svg>
