<svg width="222" height="45" viewBox="0 0 222 45" fill="none" xmlns="http://www.w3.org/2000/svg">
<path fill-rule="evenodd" clip-rule="evenodd" d="M10.3708 14.0082C10.3708 11.7604 11.3895 9.38575 12.988 7.7884L20.7394 0V6.49848C20.7394 8.71191 19.6797 11.3955 18.1335 12.9418L10.3708 20.7391V14.0082ZM20.7402 44.9353L12.9417 37.1727C11.3962 35.6263 8.71191 34.5667 6.49848 34.5667H0L7.78871 42.3188C9.38653 43.9173 11.7604 44.9353 14.0081 44.9353H20.7402ZM5.89172 30.0129L10.3701 34.5667V24.198C10.3701 22.1823 9.27228 19.7167 7.88354 18.3298L3.45744 13.8268V24.198C3.45744 26.1891 4.55816 28.6786 5.89172 30.0129Z" fill="#F26522"/>
<path fill-rule="evenodd" clip-rule="evenodd" d="M199.723 19.7547H203.426V34.567H199.723V28.1969H192.467V34.567H188.755V19.7547H192.467V25.2342H199.723V19.7547ZM181.14 19.7547H171.811V22.7204H180.396C181.217 22.7204 181.889 23.3812 181.889 24.1953V25.5162H175.21C172.764 25.5162 170.771 27.5103 170.771 29.9685V30.1252C170.771 32.5699 172.764 34.567 175.21 34.567H185.58V24.1953C185.58 21.7487 183.589 19.7547 181.14 19.7547ZM181.889 31.6058H175.959C175.134 31.6058 174.468 30.9461 174.468 30.1252V29.9685C174.468 29.1476 175.134 28.4789 175.959 28.4789H181.889V31.6058ZM211.737 28.1969H210.387V34.567H206.68V19.7547H210.387V25.2342H211.744L216.638 19.7547H220.805L214.556 26.7282L221.228 34.567H216.592L211.737 28.1969ZM162.662 21.0211H155.797V16.7909H167.204L167.201 13.8271H152.094V34.567H162.662C166.031 34.567 168.765 31.8401 168.765 28.4714V27.1237C168.765 23.7581 166.031 21.0211 162.662 21.0211ZM164.596 28.4714C164.596 30.1998 163.192 31.6058 161.464 31.6058H155.797V23.9909H161.464C163.192 23.9909 164.596 25.3894 164.596 27.1237V28.4714ZM63.7077 24.1953V30.1252C63.7077 30.9461 64.3689 31.6058 65.1883 31.6058H72.507V34.567H64.4435C61.998 34.567 60.0011 32.5699 60.0011 30.1252V24.1953C60.0011 21.7487 61.998 19.7547 64.4435 19.7547H72.507V22.7204H65.1883C64.3689 22.7204 63.7077 23.3812 63.7077 24.1953ZM84.8017 19.7547H78.8756C76.4279 19.7547 74.4331 21.7487 74.4331 24.1953V30.1252C74.4331 32.5699 76.4279 34.567 78.8756 34.567H84.8017C87.2576 34.567 89.2509 32.5699 89.2509 30.1252V24.1953C89.2509 21.7487 87.2576 19.7547 84.8017 19.7547ZM85.5465 30.1252C85.5465 30.9461 84.8778 31.6058 84.0636 31.6058H79.6226C78.8009 31.6058 78.1376 30.9461 78.1376 30.1252V24.1953C78.1376 23.3812 78.8009 22.7204 79.6226 22.7204H84.0636C84.8778 22.7204 85.5465 23.3812 85.5465 24.1953V30.1252ZM53.1302 19.7547H49.0526C48.0884 19.7547 47.1951 20.0655 46.4638 20.5902V18.2689C46.4638 17.4536 47.1272 16.7939 47.9443 16.7939H55.7958V13.8271H47.2011C44.7541 13.8271 42.76 15.8215 42.76 18.2689V30.1252C42.76 32.5699 44.7511 34.567 47.2011 34.567H53.1302C55.5809 34.567 57.5742 32.5699 57.5742 30.1252V24.1953C57.5742 21.7487 55.5809 19.7547 53.1302 19.7547ZM53.8712 30.1252C53.8712 30.9461 53.2033 31.6058 52.3883 31.6058H47.9443C47.1242 31.6058 46.463 30.9461 46.463 30.1252V26.964V24.1931C46.4667 23.3812 47.1272 22.7204 47.9443 22.7204H52.3883C53.2033 22.7204 53.8712 23.3812 53.8712 24.1953V30.1252ZM132.847 19.7547H145.923V22.7204H141.234V34.567H137.535V22.7204H132.847V19.7547ZM29.1392 13.8271L20.74 34.567H25.3086L26.8937 30.1252H35.8899L37.519 34.567H41.9392L33.5347 13.8271H29.1392ZM27.9549 27.161L31.3392 17.6831L34.8056 27.161H27.9549ZM97.086 19.7547L106.525 19.7569V34.567H102.825V22.7226C100.764 22.7226 97.8248 22.7204 97.8248 22.7204C97.0083 22.7204 96.3442 23.3812 96.3442 24.1953V30.1252C96.3442 32.5699 94.3502 34.567 91.8987 34.567H90.7099V31.6058H91.1583C91.9748 31.6058 92.6389 30.9461 92.6389 30.1252V24.1953C92.6389 21.7487 94.6322 19.7547 97.086 19.7547ZM127.053 19.7413L121.392 19.7547C118.943 19.7547 116.946 21.7487 116.946 24.1953V25.2342H113.838V19.7547H110.131V34.567H113.838V28.1969H116.946V30.1252C116.946 32.5699 118.943 34.567 121.392 34.567L127.053 34.555C129.497 34.555 131.495 32.558 131.495 30.1117V24.182C131.495 21.7379 129.497 19.7413 127.053 19.7413ZM127.791 30.1117C127.791 30.9356 127.132 31.5953 126.307 31.5953L122 31.6058C121.185 31.6058 120.516 30.9461 120.516 30.1252V24.1953C120.516 23.3812 121.185 22.7204 122 22.7204L126.307 22.7084C127.132 22.7084 127.791 23.3685 127.791 24.182V30.1117Z" fill="#636466"/>
</svg>
