<svg width="219" height="43" viewBox="0 0 219 43" fill="none" xmlns="http://www.w3.org/2000/svg">
<path d="M158.439 17.5607C158.439 17.3712 158.376 17.1818 158.313 16.8661L154.333 6.0056C153.828 4.67961 153.133 4.11133 152.06 4.11133C150.923 4.11133 150.228 4.67961 149.786 6.0056L145.743 16.8661C145.617 17.245 145.554 17.4344 145.554 17.5607C145.554 18.1289 145.996 18.5709 146.627 18.5709C147.133 18.5709 147.512 18.3184 147.764 17.687L149.091 13.9615H155.028L156.355 17.687C156.544 18.3184 156.923 18.5709 157.428 18.5709C157.997 18.6341 158.439 18.1289 158.439 17.5607ZM149.722 12.0673L151.681 6.4476C151.744 6.25817 151.807 6.19503 151.996 6.19503C152.123 6.19503 152.186 6.25817 152.249 6.4476L154.207 12.0673H149.722ZM176.567 18.5078H180.862C183.641 18.5078 185.346 16.8661 185.346 14.0247C185.346 11.3096 183.704 9.79415 180.862 9.79415H177.072V6.32131H183.388C184.083 6.32131 184.525 5.94246 184.525 5.24789C184.525 4.61647 184.083 4.23761 183.388 4.23761H176.504C175.43 4.23761 174.798 4.80589 174.798 5.94246V16.803C174.925 17.9395 175.493 18.5078 176.567 18.5078ZM177.135 11.7516H180.672C182.315 11.7516 183.073 12.6356 183.073 14.0878C183.073 15.6033 182.315 16.4872 180.672 16.4872H177.135V11.7516ZM152.312 31.5151H148.08V27.0952H155.091C155.533 27.0952 155.912 26.8426 155.912 26.4006C155.912 25.9586 155.597 25.706 155.091 25.706H147.891C147.07 25.706 146.627 26.148 146.627 26.9689V38.7765C146.627 39.5974 147.07 40.0394 147.891 40.0394H152.312C155.028 40.0394 156.607 38.4608 156.607 35.7457C156.607 33.0306 155.028 31.5151 152.312 31.5151ZM152.123 38.5871H148.08V32.8411H152.123C154.207 32.8411 155.091 33.8514 155.091 35.6825C155.091 37.5137 154.27 38.5871 152.123 38.5871ZM162.545 29.1157C161.281 29.1157 160.081 29.4314 159.45 29.7472C159.007 29.9366 158.818 30.126 158.818 30.5049C158.818 30.8837 159.134 31.1363 159.45 31.1363C159.639 31.1363 159.829 31.0731 160.018 30.9469C160.523 30.7574 161.471 30.4417 162.418 30.4417C164.25 30.4417 165.134 31.1994 165.134 32.8411V33.8514C163.997 33.5357 163.176 33.4094 162.166 33.4094C159.45 33.4094 158.123 34.988 158.123 36.6928C158.123 38.7765 159.702 40.1025 162.102 40.1025C164.124 40.1025 165.703 39.4079 166.271 38.966C166.524 38.7765 166.587 38.6502 166.587 38.3345V32.778C166.524 30.3154 165.008 29.1157 162.545 29.1157ZM165.071 38.082C164.25 38.524 163.176 38.8397 162.229 38.8397C160.46 38.8397 159.45 38.082 159.45 36.756C159.45 35.5563 160.334 34.7354 162.229 34.7354C163.176 34.7354 163.997 34.8617 165.071 35.1774V38.082ZM202.716 7.6473C200.821 7.6473 199.306 8.34187 198.737 8.65758C198.232 8.9733 198.169 9.16272 198.169 9.98357V20.9704C198.169 21.6649 198.611 22.1069 199.242 22.1069C199.874 22.1069 200.316 21.6649 200.316 20.9704V18.1289C200.948 18.4447 201.958 18.6972 202.906 18.6972C205.432 18.6972 207.138 17.0555 207.327 14.6561C207.39 13.8353 207.39 12.5093 207.327 11.6884C207.138 9.28901 205.432 7.6473 202.716 7.6473ZM205.18 14.3404C205.053 15.7295 204.169 16.6135 202.653 16.6135C201.832 16.6135 200.821 16.361 200.316 15.9821V10.2993C200.821 9.92043 201.832 9.66786 202.653 9.66786C204.232 9.66786 205.053 10.615 205.18 11.941C205.243 12.6987 205.243 13.5827 205.18 14.3404ZM168.861 16.7398L165.134 13.0144L168.671 9.47844C168.924 9.22587 169.114 8.91015 169.114 8.59444C169.114 8.0893 168.735 7.71045 168.166 7.71045C167.85 7.71045 167.598 7.83673 167.345 8.15244L163.682 11.7516C163.492 11.941 163.303 12.0673 162.987 12.0673H162.229V8.91015C162.229 8.21559 161.787 7.77359 161.155 7.77359C160.523 7.77359 160.081 8.21559 160.081 8.91015V17.4344C160.081 18.1289 160.523 18.5709 161.155 18.5709C161.787 18.5709 162.229 18.1289 162.229 17.4344V14.0247H162.86C163.113 14.0247 163.366 14.151 163.555 14.3404L167.408 18.1921C167.724 18.5078 167.977 18.6341 168.292 18.6341C168.861 18.6341 169.24 18.2552 169.24 17.687C169.24 17.3081 169.114 17.0555 168.861 16.7398ZM217.37 14.593C216.865 14.593 216.612 14.9087 216.423 15.2244C216.044 16.0452 215.286 16.6135 214.149 16.6135C212.633 16.6135 211.685 15.6664 211.559 14.3404C211.496 13.5827 211.496 12.7618 211.559 12.0041C211.685 10.615 212.57 9.731 214.149 9.731C215.223 9.731 216.044 10.2993 216.423 11.1201C216.612 11.4359 216.865 11.7516 217.37 11.7516C218.002 11.7516 218.444 11.3727 218.444 10.7413C218.444 10.4256 218.318 10.1099 218.128 9.731C217.496 8.5313 216.107 7.6473 214.149 7.6473C211.496 7.6473 209.727 9.35215 209.475 11.7516C209.412 12.5724 209.412 13.8984 209.475 14.6561C209.727 17.0555 211.496 18.7604 214.149 18.7604C216.107 18.7604 217.496 17.8132 218.128 16.6135C218.318 16.2347 218.444 15.919 218.444 15.6033C218.381 14.9718 218.002 14.593 217.37 14.593ZM191.284 7.6473C190.084 7.6473 189.01 7.96302 188.315 8.21559C187.747 8.46816 187.494 8.78387 187.494 9.22586C187.494 9.731 187.873 10.173 188.378 10.173C188.631 10.173 188.884 10.0467 189.199 9.98357C189.642 9.79415 190.4 9.60472 191.157 9.60472C192.8 9.60472 193.495 10.2361 193.495 11.499V12.383C192.547 12.1304 191.726 12.0041 190.842 12.0041C188.126 12.0041 186.799 13.5827 186.799 15.2244C186.799 17.1818 188.315 18.6972 190.905 18.6972C192.926 18.6972 194.505 18.0027 195.137 17.5607C195.453 17.3712 195.516 17.1818 195.516 16.7398V11.499C195.579 8.84701 194 7.6473 191.284 7.6473ZM193.495 16.2978C192.863 16.6135 191.979 16.8661 191.157 16.8661C189.768 16.8661 188.884 16.2347 188.884 15.2244C188.884 14.2773 189.642 13.5196 191.157 13.5196C191.979 13.5196 192.673 13.6458 193.558 13.8984V16.2978H193.495ZM184.525 34.546L188.631 30.4417C188.82 30.2523 188.884 30.0629 188.884 29.8734C188.884 29.5577 188.631 29.242 188.252 29.242C188.062 29.242 187.873 29.3052 187.684 29.4946L183.641 33.5357C183.388 33.7883 183.199 33.9146 182.883 33.9146H182.188V30.0629C182.188 29.5577 181.936 29.3052 181.494 29.3052C181.051 29.3052 180.799 29.5577 180.799 30.0629V39.4079C180.799 39.9131 181.051 40.1657 181.494 40.1657C181.936 40.1657 182.188 39.9131 182.188 39.4079V35.2405H182.946C183.262 35.2405 183.515 35.3668 183.704 35.6194L187.999 39.9131C188.189 40.1025 188.378 40.1657 188.568 40.1657C188.947 40.1657 189.199 39.8499 189.199 39.5342C189.199 39.2817 189.136 39.1554 188.884 38.9028L184.525 34.546ZM177.198 29.1789C176.756 29.1789 176.504 29.4314 176.504 29.9366V33.7883H170.566V29.9366C170.566 29.4314 170.314 29.1789 169.872 29.1789C169.429 29.1789 169.177 29.4314 169.177 29.9366V39.2817C169.177 39.7868 169.429 40.0394 169.872 40.0394C170.314 40.0394 170.566 39.7868 170.566 39.2817V35.1143H176.504V39.2817C176.504 39.7868 176.756 40.0394 177.198 40.0394C177.641 40.0394 177.893 39.7868 177.893 39.2817V29.9366C177.893 29.4946 177.641 29.1789 177.198 29.1789Z" fill="#212121"/>
<path d="M72.7989 14.2702L63.1349 16.0382C61.5558 16.3539 60.4821 17.8693 60.7347 19.4479C61.0505 21.0264 62.5664 22.0999 64.1455 21.8473L73.8095 20.0793C76.0833 19.6373 77.5361 21.0264 78.1046 22.4787C78.673 23.931 78.5467 25.8884 76.5886 27.1513L62.4401 36.37C61.1137 37.254 59.5346 37.254 58.145 36.5595C56.7554 35.8018 55.9343 34.4126 55.9343 32.8341V10.1659C55.9343 6.37739 53.9762 3.09398 50.6286 1.26285C47.3441 -0.568281 43.428 -0.378853 40.2699 1.64171L4.51954 24.815C0.477104 27.4038 -1.03881 32.1395 0.729756 36.6226C2.49832 41.1057 6.85658 43.5051 11.5938 42.6843L42.7964 37.0646C44.3755 36.7489 45.4492 35.2335 45.1966 33.6549C44.8808 32.0764 43.3648 31.0029 41.7858 31.2555L10.5832 36.8752C8.24617 37.3172 6.85658 35.928 6.28811 34.4758C5.71964 33.0235 5.84597 31.0661 7.80402 29.8032L43.5543 6.62996C44.8808 5.74596 46.4598 5.74596 47.8494 6.44053C49.239 7.19824 50.0601 8.58737 50.0601 10.1659V32.8341C50.0601 36.6226 52.0182 39.906 55.3658 41.7372C56.8818 42.558 58.5872 43 60.2294 43C62.1243 43 64.0192 42.4317 65.7246 41.3583L79.9363 32.1395C83.9787 29.5507 85.4946 24.815 83.7261 20.3319C81.8943 15.8488 77.5361 13.3862 72.7989 14.2702ZM122.824 20.2687C121.055 15.7856 116.697 13.3862 111.96 14.207L102.296 15.975C100.717 16.2907 99.6432 17.8062 99.8958 19.3847C100.212 20.9633 101.728 22.0367 103.307 21.7841L112.971 20.0162C115.244 19.5742 116.697 20.9633 117.266 22.4156C117.834 23.8678 117.708 25.8253 115.75 27.0881L101.601 36.37C100.275 37.254 98.6957 37.254 97.3061 36.5595C95.9165 35.8018 95.0954 34.4126 95.0954 32.8341V2.96769C95.0954 1.32599 93.769 0 92.1268 0C90.4845 0 89.1581 1.32599 89.1581 2.96769V32.8341C89.1581 36.6226 91.1162 39.906 94.4638 41.7372C95.9797 42.558 97.6851 43 99.3274 43C101.222 43 103.117 42.4317 104.823 41.3583L119.034 32.1395C123.077 29.4875 124.593 24.7518 122.824 20.2687Z" fill="#009B3A"/>
</svg>
