<svg width="191" height="40" viewBox="0 0 191 40" fill="none" xmlns="http://www.w3.org/2000/svg">
<path d="M182.419 16.3563L190.378 7.5791H184.45L177.932 14.8825V7.5791H173.216V26.0179H177.932V18.256L184.908 26.0179H191V26.0177L182.419 16.3563Z" fill="#EF3124"/>
<path d="M164.899 14.4568H158.382V7.5791H153.665V26.0179H158.382V18.747H164.899V26.0179H169.615V7.5791H164.899V14.4568Z" fill="#EF3124"/>
<path d="M28.002 17.5679C27.8893 21.006 27.4455 21.6946 25.5132 21.6946V26.0177H26.2336C31.0539 26.0177 32.2131 23.5283 32.3908 17.9939L32.5872 11.8694H37.1069V26.0177H41.8231V7.5791H28.3297L28.002 17.5679Z" fill="#EF3124"/>
<path d="M53.5452 13.1796H50.1391V7.5791H45.4231V26.0179H53.611C58.7527 26.0179 60.5867 22.6774 60.5867 19.5332C60.5867 15.4723 58.0323 13.1796 53.5452 13.1796ZM53.185 21.957H50.1391V17.2735H53.185C54.8226 17.2735 55.8051 17.9942 55.8051 19.5332C55.8051 21.2036 54.8554 21.957 53.185 21.957Z" fill="#EF3124"/>
<path d="M75.9465 7.15522V0.310059H71.2305V7.15522C65.8266 7.61372 62.1909 11.4458 62.1909 16.7841C62.1909 22.1552 65.8266 25.9873 71.2305 26.4455V33.3892H75.9465V26.4455C81.3504 26.0198 84.9858 22.1552 84.9858 16.7841C84.9858 11.413 81.3504 7.58095 75.9465 7.15522ZM71.2305 21.9916C68.6104 21.6312 66.9727 19.6661 66.9727 16.7841C66.9727 13.9021 68.6104 11.937 71.2305 11.5768V21.9916ZM75.9465 21.9916V11.5768C78.5667 11.937 80.204 13.9021 80.204 16.7841C80.204 19.6661 78.5667 21.6312 75.9465 21.9916Z" fill="#EF3124"/>
<path d="M102.673 20.3527V14.1629C102.673 9.64324 99.7908 6.79346 94.9438 6.79346C89.9328 6.79346 87.2799 9.80682 87.0506 12.951H91.8324C91.9959 12.2631 92.7166 11.0843 94.9438 11.0843C96.7777 11.0843 97.9569 11.9357 97.9569 14.1629H93.2734C89.0811 14.1629 86.5918 16.3571 86.5918 20.025C86.5918 23.8571 89.3147 26.4772 93.2406 26.4772C96.1192 26.4772 97.7173 25.1167 98.4151 24.0862C99.0374 25.3306 100.413 26.0185 102.214 26.0185H103.852V21.761C103 21.761 102.673 21.368 102.673 20.3527ZM97.9569 19.1408C97.9569 21.2697 96.4503 22.4816 94.485 22.4816C92.7821 22.4816 91.4394 21.8593 91.4394 20.025C91.4394 18.2238 92.9129 17.9292 94.1904 17.9292H97.9569V19.1408Z" fill="#EF3124"/>
<path d="M122.879 10.2008H117.607V4.99357H129.823V0.310059H112.661V26.0198H122.879C128.545 26.0198 131.788 23.2033 131.788 18.0285C131.788 13.1489 128.545 10.2008 122.879 10.2008ZM122.65 21.3693H117.607V14.688H122.65C125.27 14.688 126.744 15.8999 126.744 18.0285C126.744 20.2229 125.27 21.3693 122.65 21.3693Z" fill="#EF3124"/>
<path d="M149.834 20.3527V14.1629C149.834 9.64324 146.952 6.79346 142.105 6.79346C137.094 6.79346 134.441 9.80682 134.212 12.951H138.993C139.157 12.2631 139.877 11.0843 142.105 11.0843C143.939 11.0843 145.118 11.9357 145.118 14.1629H140.434C136.242 14.1629 133.753 16.3571 133.753 20.025C133.753 23.8571 136.476 26.4772 140.401 26.4772C143.28 26.4772 144.878 25.1167 145.576 24.0862C146.198 25.3306 147.574 26.0185 149.375 26.0185H151.013V21.761C150.161 21.761 149.834 21.368 149.834 20.3527ZM145.118 19.1408C145.118 21.2697 143.611 22.4816 141.646 22.4816C139.943 22.4816 138.6 21.8593 138.6 20.025C138.6 18.2238 140.074 17.9292 141.351 17.9292H145.118V19.1408Z" fill="#EF3124"/>
<path d="M25.2185 33.8784H0V39.1187H25.2185V33.8784Z" fill="#EF3124"/>
<path d="M7.49941 20.746H17.4557L19.1259 26.0188H24.6283L17.1925 3.83808C16.4735 1.69373 15.6448 0 12.805 0C9.96542 0 9.0833 1.68691 8.32647 3.83808L0.523438 26.0188H5.6982L7.49941 20.746ZM12.5431 5.77875H12.6739L16.0147 16.2918H9.00597L12.5431 5.77875Z" fill="#EF3124"/>
</svg>
