<svg width="180" height="68" viewBox="0 0 180 68" fill="none" xmlns="http://www.w3.org/2000/svg">
<path d="M22.4181 59.1746H3.72256V51.2874H22.3767V59.1746H22.4181ZM26.182 47.3232H0V67.0618H3.72256V63.0975H26.0993V47.3232H26.182ZM3.72256 11.8514L11.209 3.96424V31.5901H3.72256C3.72256 31.5488 3.72256 11.8514 3.72256 11.8514ZM0 35.513H14.8902V0H9.34775L0 9.86931V35.513ZM22.4181 3.96424H29.9045V31.5901H22.4181V3.96424ZM18.6955 35.513H33.5857V0H18.6955V35.513ZM59.685 35.513H63.4075V0H57.7823V0.0412942L52.1571 5.94636V0H46.5319L37.2669 9.86931V35.513H40.9895V11.8514L48.4759 3.96424V35.513H52.1985V11.8514L59.685 3.96424V35.513ZM0 43.4002H63.4489V39.436H0V43.4002ZM48.5173 51.2874H59.685V59.1746H48.5173V51.2874ZM44.7948 59.1746H33.5857V51.2874H44.7948V59.1746ZM48.5173 63.0975H63.4489V47.3232H29.9045V63.0975H44.7948V67.0618H48.5173V63.0975ZM118.956 34.8523H122.224C123.672 34.8523 124.54 35.8847 124.54 37.2887C124.54 38.7753 123.672 39.725 122.224 39.725H118.956V34.8523ZM118.956 31.7552V28.2039H126.732V25.1069H115.606V42.8634H122.348C125.698 42.8634 127.808 40.5509 127.808 37.33C127.808 34.109 125.74 31.7965 122.348 31.7965C122.389 31.7552 118.956 31.7552 118.956 31.7552ZM139.927 36.7931H135.749L137.9 30.3512L139.927 36.7931ZM141.829 42.8634H145.262L139.182 25.1069H136.618L130.538 42.8634H133.971L135.005 39.725H140.919L141.829 42.8634ZM157.63 42.8634H160.897V25.1069H157.63V32.3747H151.963V25.1069H148.695V42.8634H151.963V35.4304H157.63V42.8634ZM172.933 33.407L178.559 25.1069H174.671L169.294 33.5309V25.1069H166.026V42.8634H169.294V33.5722L175.167 42.8634H179.179L172.933 33.407Z" fill="#384249"/>
<path d="M92.4434 7.55664H89.5481V59.5048H92.4434V7.55664Z" fill="#A1C76B"/>
</svg>
