<svg width="200" height="45" viewBox="0 0 200 45" fill="none" xmlns="http://www.w3.org/2000/svg">
<path d="M187.487 12.5725H191.692L191.667 19.3634H192.58L194.979 12.5725H199.529L196.264 21.5455L200 31.4763H195.077L192.656 23.875H191.667L191.692 31.4763H187.487V12.5725ZM173.322 12.5725H177.501V19.3906H180.492V12.5736H184.669V31.4763H180.492V23.9001H177.501V31.4763H173.321L173.322 12.5725ZM158.758 31.5013H163.109L163.63 28.2329H166.618L167.14 31.5013H171.49L167.831 12.6007H162.44L158.758 31.5013ZM165.136 18.3241L165.927 24.0768H164.319L165.135 18.3241H165.136ZM147.085 31.4763H152.178C153.291 31.4763 157.915 30.9932 157.939 25.2656C157.939 20.4581 154.356 19.6196 152.032 19.6196H151.264V17.1102H156.927V12.5736H147.085V31.4773V31.4763ZM151.264 27.6746V23.3941H151.882C152.401 23.3941 153.738 23.4181 153.738 25.3702C153.738 27.3484 152.401 27.6746 151.882 27.6746H151.265H151.264ZM130.495 12.5725H134.131L137.341 17.0329L140.584 12.5725H144.193V31.4763H139.913V19.9469L137.341 23.2404L134.772 19.9469V31.4763H130.495V12.5725ZM121.667 31.7052C126.735 31.7052 128.44 26.8381 128.44 22.0003C128.44 17.1625 126.735 12.2954 121.667 12.2954C116.598 12.2954 114.893 17.1625 114.893 22.0003C114.893 26.8381 116.598 31.7052 121.667 31.7052ZM121.667 27.1173C120.156 27.1173 119.392 25.321 119.392 22.0003C119.392 18.6796 120.156 16.8813 121.667 16.8813C123.177 16.8813 123.94 18.6796 123.94 22.0003C123.94 25.321 123.176 27.1173 121.667 27.1173ZM102.502 31.4763H106.781V25.2447H108.216C112.443 25.2447 113.755 21.3406 113.755 18.8542C113.755 16.4233 112.244 12.5725 108.216 12.5725H102.502V31.4763ZM106.781 16.7286H107.795C108.759 16.7286 109.378 17.3371 109.378 18.9076C109.378 20.936 108.338 21.0844 107.795 21.0844H106.781V16.7297V16.7286ZM88.3843 12.5725H100.055V31.4763H95.7764V17.1343H92.6616V31.4763H88.3843V12.5725ZM79.6057 19.8977C80.2968 19.8977 81.5599 19.4408 81.5599 18.0471C81.5599 16.4024 80.1013 16.2978 79.6789 16.2978C79.1854 16.2978 78.2465 16.3763 77.3306 16.8321L77.2825 12.7241C78.74 12.3456 79.7793 12.2432 81.0141 12.2432C84.5272 12.2432 86.0851 14.7536 86.0851 17.2096C86.0851 19.5935 84.7488 21.0342 83.4398 21.5926V21.7703C84.7008 22.1791 86.381 23.4171 86.381 26.307C86.381 29.8818 83.9594 31.8558 80.8426 31.8558C79.1854 31.8328 78.097 31.6049 76.7859 30.8698L76.8622 26.9396C78.0729 27.4738 78.8885 27.523 79.7061 27.523C81.0904 27.523 81.6331 26.4827 81.6331 25.7257C81.6331 24.6592 80.966 23.9514 79.5074 23.9514H77.776V19.8977H79.6057ZM62.7942 31.4763H67.1196L67.6644 28.2057H70.6568L71.1754 31.4763H75.5009L71.8414 12.5725H66.4515L62.7942 31.4763ZM69.147 18.275L69.9625 24.0528H68.3304L69.1459 18.275H69.147ZM54.5112 12.5725H63.2856V17.2849H58.8608V31.4763H54.5112V12.5725Z" fill="#0D356C"/>
<path d="M1.08529 22.238C1.08529 33.8699 10.3385 43.3385 21.7121 43.3385C33.0638 43.3385 42.3107 33.8657 42.3107 22.238C42.3107 10.5873 33.0679 1.11248 21.7121 1.11248C10.3333 1.11248 1.08529 10.5842 1.08529 22.238ZM0 22.238C0 9.96942 9.73522 0 21.7121 0C33.6629 0 43.396 9.96837 43.396 22.237C43.396 34.4805 33.6618 44.4489 21.7111 44.4489C9.73626 44.4499 0 34.4805 0 22.2391V22.238Z" fill="#0D356C"/>
<path d="M15.2367 8.19902C14.4862 8.53571 13.773 8.95029 13.109 9.43592C18.2751 7.07922 24.583 7.23292 27.9675 8.77931C29.0319 9.28536 29.747 9.59275 30.0711 10.1971C26.5581 9.23308 25.0493 9.05847 22.1092 9.13271C17.927 9.21008 12.3646 10.9049 10.2379 12.2004L9.30318 13.3923C12.3646 11.5375 18.0775 10.3257 21.2445 10.2232C24.7806 10.1741 27.5231 10.5034 30.0471 11.4403C29.8965 12.0979 29.5756 12.4273 29.0319 12.7587C18.9432 10.9583 12.9825 13.0849 7.59368 16.6827L7.19951 17.8725C13.2083 13.6443 20.5743 12.4806 27.6726 13.7457C25.1267 14.6585 22.0852 14.8603 19.5382 15.4646C17.3634 15.9728 16.2007 16.1265 13.3045 17.1166C10.3665 18.1047 8.63088 19.1168 7.54559 20.4101C7.02594 21.0207 6.62968 21.7275 6.5293 22.4856C6.4833 22.9393 6.50735 23.3492 6.65686 23.7549C6.77606 24.1104 7.04895 24.4638 7.34693 24.8182C7.0019 25.4246 6.70182 26.214 7.19951 27.1258C7.42117 27.5544 7.98995 27.9852 8.53678 28.394L8.38308 28.8457C8.30989 29.381 8.2367 30.0126 8.58383 30.5437C9.17457 31.5067 9.89183 32.1424 11.0304 32.7498C11.204 33.5361 11.4738 34.1676 12.0676 34.728C13.3286 35.9168 16.1495 38.1972 21.1672 38.5527C24.927 38.8078 27.6214 37.641 28.6366 37.1328L29.8725 36.4762C27.7709 37.3357 24.2369 37.8428 21.3407 37.5897C17.1376 37.2342 13.3819 34.4227 12.9114 33.6114C13.0578 33.7107 13.2564 33.7881 13.4269 33.8644C18.3494 36.2964 24.7032 37.6159 32.8387 34.2199L33.51 33.5612C26.1127 35.9168 19.6375 35.8416 12.6866 32.1183C12.7629 31.7628 12.9114 31.4544 13.2303 31.2066C15.0088 32.0117 16.7172 32.6756 18.7948 33.1032C21.2184 33.5612 23.986 33.6637 26.2632 33.5612C28.5635 33.4598 33.1116 32.294 35.2634 31.1292C35.46 30.9515 35.5583 30.6503 35.7559 30.4454C31.5558 32.0117 26.5581 32.7498 23.5437 32.5198C20.6005 32.294 17.9813 31.9374 14.5184 30.3168C15.1845 30.0397 15.8777 29.8108 16.5688 29.6058C18.8439 30.3168 21.1672 30.7455 23.9118 30.8741C26.6344 30.9996 32.9872 29.9645 36.9917 27.4823C37.1182 27.1268 37.2406 26.7441 37.2406 26.7441C37.2406 26.7441 31.6771 29.7867 25.3734 29.7867C22.4302 29.7867 20.6256 29.3549 19.2914 29.0255C22.2566 28.4683 25.9914 28.0113 30.1924 26.9229C32.3181 26.3635 34.9403 25.0953 36.1281 24.033C37.1412 23.093 37.9338 21.877 37.663 20.6401C37.6096 20.3066 37.1663 19.5256 36.6216 19.2443C37.1412 18.5605 37.0921 17.9771 37.0199 17.4742C36.9677 17.0873 36.7952 16.6607 36.5756 16.2822C36.2285 15.8212 35.9043 15.4646 35.2362 15.0621C35.3387 14.5306 35.2695 13.9802 35.0386 13.4906C34.52 12.5789 33.5821 11.7947 31.9751 10.9583C31.9009 10.6279 31.7001 10.1971 31.3572 9.76736C29.3309 7.71493 26.0154 6.72687 23.2206 6.67459C23.0638 6.67146 22.908 6.67041 22.7554 6.67041C19.4859 6.67041 16.8615 7.42321 15.2367 8.19902ZM31.0602 13.2658C31.3091 12.9866 31.6771 12.5559 31.7744 12.2004C32.4697 12.6573 33.2601 13.3411 33.3573 14.051C32.6181 13.7687 31.8266 13.4697 31.0602 13.2669V13.2658ZM31.6771 16.3554C30.4925 16.024 29.4543 15.6183 28.0658 15.3684C28.9095 15.0359 29.4752 14.6836 29.9729 14.2769C31.0812 14.579 32.1204 14.9617 32.9663 15.3402C32.8199 15.5608 31.973 16.3638 31.7158 16.3638C31.7024 16.3644 31.6891 16.3615 31.6771 16.3554ZM33.8289 17.2421C34.1488 16.988 34.4468 16.712 34.7197 16.3805C35.3857 16.9629 35.5833 17.3686 35.2634 18.0022C34.8201 17.6739 34.3464 17.4951 33.8289 17.2421ZM8.43745 23.5269C6.60458 20.9423 12.9585 19.0938 14.1724 18.7121C17.262 17.7711 20.8744 17.0664 24.1386 16.6607C26.3835 16.3805 27.5744 16.6367 29.7021 17.218C24.2369 18.7132 18.8439 19.191 13.7008 20.7384C9.55411 21.9722 8.45418 23.5269 8.43745 23.5269ZM9.79354 24.767C11.7226 23.093 15.656 22.1573 17.0916 21.8279C21.6638 20.8137 25.9171 20.1811 27.6726 19.7263C29.8004 19.191 31.284 18.687 32.3181 18.181C32.3682 18.1047 34.0495 18.939 34.2231 19.1398C33.6553 19.6239 32.867 20.0306 31.9992 20.3317C29.403 21.2957 24.6802 22.3078 22.1845 22.6947C19.6615 23.1223 17.5558 23.4496 14.7662 24.2066C13.1561 24.6405 12.0676 25.1476 11.2761 25.6808C10.6833 25.3253 10.3372 25.2249 9.79354 24.767ZM13.3819 26.7943C14.1954 26.4388 15.0862 26.1597 15.9488 25.9359C20.3025 24.8402 24.1386 24.6405 29.4292 23.1725C31.9751 22.4856 33.8289 21.7495 34.9926 20.8409C35.1641 20.6862 35.3376 20.5607 35.5112 20.4101C37.044 22.8411 31.284 24.7168 27.3496 25.5825C25.2928 25.9991 23.2319 26.395 21.1672 26.7703C18.5993 27.201 17.7544 27.43 15.9749 27.9622C15.0862 27.6067 14.1954 27.2261 13.3819 26.7943ZM8.75426 26.0342C9.15157 26.2904 9.44642 26.4942 9.91797 26.7441C9.7444 26.8957 9.52065 27.0494 9.34918 27.2251C8.95605 26.9951 8.55665 26.4932 8.75426 26.0331V26.0342ZM10.8088 28.3658C11.0566 28.1379 11.3765 27.911 11.7226 27.6841C12.465 28.0396 13.2303 28.3648 13.9476 28.6962C13.4647 28.8767 13.0015 29.1062 12.5653 29.381C11.9747 29.0511 11.3892 28.7123 10.8088 28.3647V28.3658ZM10.1647 29.6058C10.585 29.886 11.0053 30.1129 11.4278 30.3429C11.2542 30.597 11.1287 30.7967 11.0566 31.0529C10.4376 30.5196 10.1386 30.0889 10.1647 29.6058Z" fill="#0D356C"/>
</svg>
