<svg width="193" height="65" viewBox="0 0 193 65" fill="none" xmlns="http://www.w3.org/2000/svg">
<path d="M131.652 64.3264C121.764 64.3264 111.876 64.3264 101.988 64.3265C101.795 64.3265 101.602 64.3301 101.409 64.3279C99.8963 64.3109 99.94 64.2992 100.41 62.7474C100.909 61.0991 101.265 59.4038 101.693 57.7315C102.125 56.0435 102.504 54.3369 103.023 52.6782C103.612 50.793 104.778 49.9627 106.645 49.9678C125.216 50.0181 143.787 50.0018 162.357 49.989C163.296 49.9883 164.164 50.1147 164.966 50.6625C166.007 51.3733 166.333 52.505 166.08 53.8279C165.68 55.9256 164.919 57.9126 164.478 60.0016C164.237 61.1399 163.792 62.2524 163.607 63.4272C163.47 64.298 162.848 64.3352 162.184 64.3336C159.194 64.3261 156.203 64.3306 153.213 64.3306" fill="#FFCE54"/>
<path d="M170.828 50.5833C170.346 50.5835 169.863 50.5758 169.381 50.585C168.343 50.6048 167.62 50.3418 167.222 49.1164C166.734 47.6143 165.478 46.9038 163.982 46.726C163.648 46.6864 163.307 46.7156 162.97 46.7156C143.439 46.715 123.908 46.7229 104.378 46.7008C102.569 46.6987 101.31 47.4461 100.683 49.2066C100.323 50.2171 99.674 50.6064 98.6987 50.587C97.831 50.5697 96.9627 50.5832 96.0947 50.5832C66.3886 50.5829 36.6825 50.5807 6.97637 50.5902C5.90787 50.5905 4.84568 50.5548 3.82992 50.2168C1.15762 49.3278 -0.203494 47.187 0.0246714 44.2643C0.103756 43.2512 0.426053 42.3007 0.800035 41.3655C3.7701 33.9379 6.72717 26.5046 9.70005 19.0782C11.6568 14.19 16.1984 11.0111 21.2576 11.0107C76.3297 11.0064 131.402 11.0088 186.474 11.0059C188.042 11.0058 189.508 11.2782 190.862 12.2101C192.637 13.4314 193.069 15.2198 192.991 17.2449C192.953 18.2586 192.61 19.2144 192.237 20.1488C189.229 27.6651 186.3 35.2169 183.192 42.6873C181.068 47.7922 177.114 50.2916 171.841 50.5807C171.504 50.5992 171.166 50.5831 170.828 50.5833ZM104.084 12.4934C95.0166 12.4934 85.9488 12.4957 76.881 12.4929C58.4077 12.4872 39.9344 12.4854 21.4612 12.4603C19.8503 12.4581 18.2896 12.7904 16.8607 13.4309C14.2682 14.5929 12.3115 16.5449 11.1007 19.2775C10.6045 20.3974 10.2431 21.5679 9.74931 22.6929C8.31302 25.9654 7.08839 29.3378 5.69437 32.6345C4.33474 35.85 3.08571 39.1165 1.78375 42.3587C1.36335 43.4056 1.21561 44.4972 1.34869 45.6141C1.54701 47.2786 2.49102 48.3198 3.96806 48.8864C5.03375 49.2952 6.13983 49.2863 7.25139 49.2861C37.3971 49.2805 67.5428 49.2792 97.6884 49.2771C97.8331 49.2771 97.9801 49.2598 98.1222 49.2798C98.877 49.3863 99.3289 49.1437 99.6551 48.3293C100.269 46.7967 101.484 45.9104 103.009 45.4868C103.673 45.3026 104.352 45.3598 105.025 45.3596C122.533 45.3568 140.042 45.3572 157.55 45.358C159.479 45.358 161.409 45.3315 163.338 45.3748C165.25 45.4177 167.082 46.011 167.992 47.8184C168.649 49.1215 169.424 49.3903 170.61 49.2794C171.041 49.2392 171.479 49.2898 171.912 49.2667C176.543 49.0198 179.913 46.7193 181.968 42.3893C182.707 40.8323 183.197 39.1571 183.861 37.5555C186.222 31.8596 188.445 26.1003 190.707 20.3593C191.219 19.0578 191.637 17.7405 191.522 16.2786C191.4 14.7269 190.73 13.7094 189.371 13.0151C188.305 12.47 187.227 12.499 186.129 12.4987C158.781 12.4922 131.433 12.4936 104.084 12.4934Z" fill="#FBFDF8"/>
<path d="M160.13 9.44193C153.191 9.44193 146.253 9.44198 139.315 9.44181C138.978 9.4418 138.639 9.45771 138.303 9.43538C137.575 9.3869 137.501 9.23152 137.701 8.50174C138.026 7.31808 138.742 6.70858 139.925 6.57071C142.596 6.25925 145.265 5.91935 147.927 5.53496C150.627 5.14522 153.316 4.67577 156.012 4.26474C157.819 3.98945 159.631 3.76093 161.44 3.50113C163.77 3.1664 166.098 2.81577 168.429 2.48237C170.43 2.19611 172.434 1.93869 174.434 1.64245C176.527 1.33243 178.619 1.01828 180.704 0.654402C182.124 0.406541 183.59 0.545577 184.981 0.0421645C185.391 -0.106382 185.605 0.149844 185.565 0.617819C185.526 1.08173 185.259 1.46287 185.151 1.88873C184.602 4.06681 183.924 6.20552 183.356 8.37468C183.12 9.27628 182.734 9.46866 181.956 9.45049C180.27 9.41117 178.584 9.43832 176.897 9.43832C171.308 9.43831 165.719 9.43832 160.13 9.43832C160.13 9.43952 160.13 9.44073 160.13 9.44193Z" fill="#9ACA3C"/>
<path d="M110.049 52.0606C111.012 52.0606 111.976 52.0805 112.939 52.0535C113.567 52.0359 113.766 52.3181 113.777 52.9555C113.787 53.6238 113.539 53.8445 112.929 53.8312C111.725 53.8051 110.52 53.845 109.316 53.8166C108.646 53.8008 108.342 54.068 108.358 54.7856C108.373 55.4457 108.421 56.0015 109.264 55.9854C110.13 55.9689 111 55.9709 111.864 56.0352C113.383 56.1482 114.328 57.1936 114.392 58.7586C114.464 60.5125 113.697 61.69 112.186 61.9416C110.419 62.2357 108.627 62.0532 106.847 62.0819C106.373 62.0895 106.31 61.7773 106.311 61.3858C106.315 58.5153 106.32 55.6447 106.313 52.7742C106.312 52.2568 106.537 52.056 107.014 52.0614C108.025 52.0728 109.037 52.0649 110.049 52.0649C110.049 52.0634 110.049 52.062 110.049 52.0606ZM109.838 60.3626C109.934 60.3626 110.03 60.3638 110.126 60.3624C111.666 60.3408 112.146 60.0367 112.168 59.0708C112.19 58.0703 111.596 57.6345 110.1 57.5546C108.424 57.4651 108.215 57.7207 108.36 59.5225C108.403 60.0602 108.549 60.3874 109.117 60.3625C109.357 60.3519 109.597 60.3607 109.838 60.3626Z" fill="black"/>
<path d="M136.714 57.0592C136.714 55.7487 136.699 54.4379 136.719 53.1277C136.734 52.083 136.785 52.094 137.807 52.0446C138.544 52.0089 138.913 52.2352 138.803 53.0573C138.776 53.255 138.776 53.4637 138.804 53.6609C138.906 54.3741 138.438 55.3916 139.188 55.7362C140.094 56.1527 141.177 55.954 142.18 55.8117C142.533 55.7617 142.562 55.3987 142.567 55.0948C142.581 54.339 142.598 53.5823 142.577 52.8271C142.552 51.9335 143.156 52.061 143.672 52.0668C144.178 52.0725 144.774 51.9156 144.767 52.8227C144.746 55.6452 144.747 58.468 144.769 61.2905C144.773 61.8784 144.572 62.1237 144.02 62.0887C143.732 62.0704 143.442 62.0808 143.152 62.0803C142.725 62.0795 142.569 61.8469 142.575 61.4141C142.588 60.4566 142.565 59.4986 142.58 58.5412C142.588 57.978 142.364 57.7032 141.815 57.7113C141.092 57.722 140.368 57.7258 139.645 57.7112C139.031 57.6988 138.785 58.0013 138.802 58.6301C138.823 59.4359 138.815 60.243 138.802 61.0493C138.787 62.0074 138.529 62.2392 137.47 62.2796C136.657 62.3106 136.708 61.7105 136.709 61.142C136.712 59.781 136.71 58.4201 136.71 57.0592C136.711 57.0592 136.713 57.0592 136.714 57.0592Z" fill="black"/>
<path d="M152.501 56.9754C152.501 55.6155 152.531 54.2546 152.49 52.8961C152.465 52.0555 152.941 52.0424 153.517 52.0545C154.105 52.0668 154.712 51.9697 154.661 52.9295C154.619 53.7328 154.647 54.5408 154.661 55.3464C154.665 55.5757 154.596 55.8796 154.926 55.95C155.149 55.9975 155.26 55.805 155.38 55.6524C156.11 54.7196 156.834 53.7815 157.572 52.8552C158.11 52.1791 159.545 51.7493 160.307 52.0683C160.774 52.2639 160.31 52.4572 160.225 52.563C159.359 53.6419 158.512 54.743 157.572 55.7483C156.987 56.373 156.9 56.8139 157.477 57.5118C158.512 58.7659 159.448 60.1092 160.436 61.4066C160.621 61.6495 160.858 61.8857 160.675 62.1981C160.532 62.4417 160.24 62.2744 160.017 62.3062C158.96 62.4567 158.188 62.088 157.604 61.0986C156.974 60.033 156.214 59.0513 155.498 58.0425C155.339 57.8178 155.206 57.4307 154.856 57.5843C154.534 57.7253 154.67 58.1073 154.665 58.3849C154.649 59.3415 154.631 60.2996 154.664 61.2552C154.691 62.0299 154.402 62.3552 153.648 62.3232C152.745 62.2849 152.522 62.1304 152.506 61.206C152.482 59.7962 152.5 58.3856 152.501 56.9754Z" fill="black"/>
<path d="M125.227 52.1034C126.246 51.7582 126.591 52.4405 126.882 53.2551C127.837 55.9327 128.789 58.6118 129.788 61.2719C130.023 61.8991 129.904 62.0361 129.297 62.0576C127.967 62.1048 127.943 62.1437 127.386 60.8592C127.178 60.3792 126.927 60.1473 126.418 60.1767C125.891 60.2073 125.356 60.2282 124.833 60.1721C123.899 60.0718 123.258 60.3062 123.04 61.3938C122.929 61.9448 121.19 62.3558 120.841 61.9509C120.62 61.6939 120.824 61.3756 120.912 61.1236C121.525 59.3825 122.17 57.6535 122.798 55.9183C123.138 54.9805 123.484 54.0448 123.793 53.0958C124.033 52.3576 124.322 51.7549 125.227 52.1034ZM125.193 58.5749C126.704 58.5928 126.705 58.5922 126.199 57.0397C126 56.431 125.801 55.8222 125.581 55.2218C125.536 55.0969 125.398 55.0087 125.303 54.9036C125.218 55.0073 125.098 55.0968 125.053 55.2169C124.795 55.9085 124.537 56.6011 124.312 57.305C123.942 58.4631 124.018 58.5609 125.193 58.5749Z" fill="black"/>
<path d="M104.083 12.4932C131.431 12.4933 158.779 12.4919 186.127 12.4985C187.225 12.4987 188.303 12.4697 189.369 13.0148C190.728 13.7092 191.398 14.7266 191.52 16.2783C191.635 17.7402 191.217 19.0576 190.705 20.359C188.443 26.1 186.221 31.8593 183.859 37.5552C183.195 39.1569 182.705 40.832 181.966 42.389C179.911 46.719 176.541 49.0195 171.91 49.2664C171.477 49.2895 171.039 49.2389 170.609 49.2791C169.422 49.3901 168.647 49.1212 167.99 47.8181C167.08 46.0107 165.248 45.4174 163.336 45.3745C161.407 45.3312 159.478 45.3578 157.548 45.3577C140.04 45.357 122.531 45.3565 105.023 45.3594C104.35 45.3595 103.671 45.3023 103.007 45.4866C101.482 45.9101 100.267 46.7964 99.6531 48.329C99.3269 49.1434 98.875 49.386 98.1202 49.2795C97.9781 49.2595 97.8312 49.2768 97.6865 49.2768C67.5408 49.2789 37.3951 49.2802 7.24943 49.2859C6.13786 49.2861 5.03179 49.2949 3.9661 48.8861C2.48906 48.3195 1.54505 47.2784 1.34672 45.6138C1.21365 44.497 1.36139 43.4053 1.78179 42.3584C3.08375 39.1162 4.33277 35.8497 5.6924 32.6343C7.08643 29.3375 8.31106 25.9651 9.74734 22.6927C10.2411 21.5676 10.6026 20.3971 11.0987 19.2772C12.3095 16.5446 14.2662 14.5926 16.8587 13.4306C18.2877 12.7902 19.8483 12.4578 21.4592 12.46C39.9325 12.4851 58.4058 12.487 76.8791 12.4926C85.9469 12.4954 95.0147 12.4931 104.083 12.4932Z" fill="#9ACA3C"/>
<path d="M71.1485 40.8215C67.0994 40.8219 63.0503 40.8272 59.0013 40.8183C57.932 40.8159 57.8518 40.6952 58.1039 39.6082C58.158 39.3749 58.265 39.1495 58.3767 38.9371C59.8068 36.2185 60.8899 33.3379 62.0879 30.5073C63.1903 27.9026 64.3106 25.2993 65.4552 22.7108C65.7363 22.0753 66.0825 21.4616 66.2829 20.7996C66.4788 20.1524 66.8219 19.9327 67.4413 19.9441C68.9351 19.9716 70.43 19.9352 71.9239 19.9614C72.7935 19.9766 72.8111 20.0366 72.4274 20.9279C70.5152 25.3688 68.6001 29.8084 66.6864 34.2487C66.5682 34.5229 66.4489 34.7968 66.3382 35.0745C66.1779 35.4763 66.2148 35.767 66.7225 35.7645C67.7347 35.7596 68.7473 35.7325 69.759 35.7541C70.5869 35.7717 70.6041 35.0152 70.8149 34.5269C72.2561 31.1886 73.6492 27.8276 75.0634 24.4765C75.6055 23.1921 76.1946 21.9281 76.6969 20.6272C76.8944 20.1158 77.1606 19.9393 77.6578 19.9449C79.2483 19.963 80.8391 19.9517 82.4298 19.9532C82.9947 19.9537 83.1977 20.0728 82.9001 20.7496C80.9372 25.2131 79.022 29.6996 77.0909 34.1784C76.9921 34.4076 76.8772 34.6302 76.792 34.8647C76.4977 35.6745 76.5232 35.7177 77.3083 35.757C77.5486 35.7691 77.7911 35.7678 78.031 35.7493C78.9356 35.6795 80.021 36.1256 80.6982 35.5338C81.298 35.0097 81.5827 33.991 81.8197 33.1342C82.3294 31.2921 83.4859 29.7561 84.0057 27.9418C84.6787 25.5932 86.1826 23.6254 86.7078 21.2095C86.9172 20.2462 87.4168 19.9565 88.3828 19.9486C89.8769 19.9364 91.3713 19.9497 92.8655 19.9476C93.4487 19.9467 93.6157 20.0609 93.3127 20.7327C92.1856 23.231 91.1431 25.771 90.0611 28.2918C88.5287 31.8615 86.9895 35.4281 85.4529 38.9959C85.3345 39.2706 85.1816 39.5343 85.1007 39.8204C84.8718 40.6296 84.3731 40.8465 83.5848 40.8391C79.4396 40.8006 75.294 40.8211 71.1485 40.8215Z" fill="#FBFDF8"/>
<path d="M160.196 40.827C157.733 40.827 156.046 40.8124 154.36 40.8352C153.804 40.8428 153.651 40.7399 153.744 40.0753C153.916 38.8313 154.719 37.9302 155.153 36.833C156.289 33.9641 157.603 31.1725 158.752 28.3089C159.748 25.8265 160.82 23.3814 161.844 20.9133C162.175 20.1141 162.616 19.9122 163.382 19.9201C166.996 19.9579 170.61 19.9448 174.224 19.9538C174.561 19.9546 174.907 19.9349 175.233 20.0053C177.675 20.5329 178.756 22.2223 177.836 24.7702C177.109 26.7831 175.788 28.2648 173.886 29.1487C173.666 29.2508 173.456 29.3754 173.243 29.4926C172.884 29.6896 172.861 29.8619 173.229 30.113C175.118 31.4037 175.509 32.5786 174.487 34.7961C172.968 38.0914 170.484 40.0872 166.921 40.5508C164.423 40.876 161.922 40.8115 160.196 40.827ZM164.054 36.3704C164.054 36.3563 164.054 36.3422 164.054 36.3282C164.63 36.3282 165.21 36.3733 165.781 36.3187C166.96 36.2062 167.844 35.5742 168.421 34.4956C169.088 33.2466 168.702 32.2877 167.377 32.1475C166.235 32.0267 165.074 32.098 163.922 32.0923C163.62 32.0908 163.33 32.1857 163.197 32.4889C162.721 33.5815 162.26 34.6816 161.806 35.7847C161.656 36.1509 161.806 36.3618 162.181 36.3677C162.806 36.3775 163.43 36.3704 164.054 36.3704ZM167.092 28.1931C167.092 28.1757 167.092 28.1583 167.092 28.1408C167.619 28.1408 168.154 28.2036 168.671 28.1285C169.963 27.9409 170.877 27.2068 171.275 25.8823C171.547 24.9767 171.212 24.3472 170.325 24.2622C169.184 24.1527 167.944 23.918 166.912 24.3525C166.117 24.6869 166.068 25.9445 165.64 26.7657C165.572 26.8976 165.503 27.0307 165.45 27.1699C165.105 28.0796 165.178 28.1951 166.086 28.1932C166.421 28.1925 166.757 28.1931 167.092 28.1931Z" fill="#FBFDF8"/>
<path d="M125.886 40.8295C125.2 40.7654 124.284 40.9445 123.379 40.7494C123.375 39.8131 123.976 39.1053 124.233 38.2696C124.906 36.076 126.098 34.1289 126.914 32.0005C127.698 29.9549 128.613 27.964 129.478 25.9524C129.703 25.4277 129.7 25.0759 129.012 25.1013C128.579 25.1173 128.144 25.1025 127.71 25.1039C124.881 25.1126 124.864 25.1052 123.771 27.8248C122.649 30.6149 121.443 33.3606 120.099 36.0428C118.64 38.9547 116.374 40.5786 113.24 40.805C112.089 40.888 110.928 40.82 109.772 40.8286C109.147 40.8333 109.003 40.5173 109.252 39.9696C109.561 39.2897 109.769 38.5683 110.045 37.88C110.384 37.0379 110.877 36.3601 111.969 36.4418C113.488 36.5553 114.367 35.5203 114.924 34.2195C116.529 30.4722 118.129 26.7211 119.634 22.9294C120.811 19.9635 120.746 19.9377 123.792 19.9391C127.986 19.9409 132.18 19.9391 136.374 19.9391C136.711 19.9391 137.05 19.9255 137.386 19.9455C138.186 19.9932 138.201 20.03 137.87 20.7998C136.807 23.2647 135.742 25.7286 134.683 28.1955C133.052 31.9978 131.398 35.7902 129.815 39.6146C129.435 40.5332 128.971 40.9824 127.986 40.8454C127.371 40.7598 126.735 40.8295 125.886 40.8295Z" fill="#FBFDF8"/>
<path d="M44.3103 41.1322C43.0844 41.2255 41.7098 41.0233 40.3842 40.5075C38.5994 39.8129 37.5832 38.5103 37.394 36.4841C37.1224 33.5773 38.18 31.0625 39.4459 28.6135C40.6477 26.2887 42.2811 24.3132 44.3171 22.7586C47.5857 20.2627 51.2727 19.2592 55.2971 19.7631C56.001 19.8513 56.7219 19.926 57.4132 20.2C60.0772 21.2554 61.1445 23.8641 60.4552 26.699C59.1366 32.1219 56.5301 36.6783 51.5721 39.3829C49.3502 40.595 47.004 41.2061 44.3103 41.1322ZM46.4088 36.3789C48.2107 36.438 49.6248 35.6462 50.8169 34.2749C52.3973 32.4569 53.353 30.3103 53.9692 27.9767C54.5242 25.8746 53.5273 24.5154 51.438 24.5121C49.9817 24.5099 48.6876 25.0571 47.6262 26.0529C45.5591 27.9922 44.3464 30.497 43.8184 33.2982C43.4104 35.4625 44.2834 36.3686 46.4088 36.3789Z" fill="#FBFDF8"/>
<path d="M28.882 40.8112C28.1586 40.8111 27.4351 40.8195 26.7119 40.8092C25.5093 40.792 25.4921 40.7876 25.4463 39.5821C25.3831 37.9203 25.356 36.2571 25.2978 34.595C25.2839 34.1954 25.269 33.7756 25.1439 33.4059C25.0183 33.0349 24.7735 32.696 24.3254 32.6454C23.8315 32.5897 23.6772 32.9351 23.5108 33.3278C22.7703 35.0746 21.8506 36.7592 21.3004 38.5677C20.7332 40.4318 19.7486 41.1097 17.9423 40.8346C17.0452 40.6979 16.1129 40.8263 15.1969 40.8104C14.289 40.7946 14.2074 40.6592 14.5231 39.7472C14.6673 39.3304 14.796 38.8977 15.0071 38.518C16.191 36.3887 16.9246 34.0473 17.9133 31.8363C19.5121 28.2609 21.0206 24.645 22.5807 21.0528C22.9069 20.3018 23.2909 19.869 24.1866 19.9354C25.5302 20.035 26.8857 19.9473 28.2354 19.9754C29.1207 19.9939 29.1658 20.0788 28.8055 20.939C27.9395 23.0073 27.0535 25.0665 26.1826 27.1326C26.0778 27.3813 25.7456 27.6687 26.096 27.9122C26.3434 28.0841 26.6621 27.8937 26.9032 27.7439C27.4465 27.4061 27.8829 26.9306 28.2977 26.438C29.4056 25.1221 30.5117 23.8045 31.6128 22.4824C32.8881 20.9509 34.5877 20.2795 36.4328 20.023C37.5733 19.8645 38.7431 19.9394 39.8995 19.9015C40.4192 19.8845 40.5391 20.0628 40.4044 20.6226C40.1122 21.8372 39.3249 22.7912 38.9085 23.9365C38.7891 24.265 38.4171 24.1942 38.1363 24.2095C36.4868 24.2992 35.2221 25.1402 34.1768 26.4128C33.0793 27.749 32.0124 29.121 30.3907 29.8219C29.9945 29.9932 30.0142 30.2125 30.3443 30.4491C31.5428 31.3078 31.7401 32.6109 31.9223 33.9974C32.1662 35.853 32.1883 37.7113 32.2449 39.5718C32.2819 40.7845 32.2615 40.7907 31.052 40.8093C30.3288 40.8204 29.6053 40.8113 28.882 40.8112Z" fill="#FBFDF8"/>
<path d="M141.652 40.8312C139.289 40.8312 136.926 40.834 134.562 40.8302C133.256 40.828 133.189 40.7286 133.696 39.54C134.729 37.1187 135.807 34.7175 136.794 32.2762C137.763 29.8798 138.82 27.5247 139.731 25.0966C140.297 23.5889 141.064 22.1171 141.67 20.5971C141.906 20.0074 142.317 19.9267 142.827 19.9298C144.081 19.9374 145.335 19.9352 146.589 19.9355C150.254 19.9361 153.919 19.9289 157.585 19.9406C158.678 19.9441 158.698 19.9945 158.249 21.0093C157.967 21.6466 157.556 22.2471 157.4 22.9145C157.082 24.2807 156.268 24.5342 155.056 24.4963C152.502 24.4167 149.943 24.5199 147.388 24.4559C146.565 24.4353 146.134 24.749 145.861 25.4899C144.925 28.0337 144.407 27.8077 147.238 27.803C149.168 27.7998 151.097 27.7922 153.026 27.7949C154.536 27.7969 154.531 27.8004 153.928 29.1864C153.669 29.7804 153.395 30.3721 153.197 30.989C152.945 31.7757 152.487 32.0579 151.686 32.0418C149.228 31.9921 146.767 32.0551 144.308 31.9982C143.411 31.9775 142.87 32.2318 142.597 33.1752C142.405 33.8412 142.028 34.4469 141.757 35.0905C141.348 36.0636 141.433 36.2218 142.445 36.2281C145.001 36.244 147.557 36.2296 150.113 36.2319C152.011 36.2337 152.037 36.2502 151.183 38.0861C150.768 38.9772 150.677 40.1881 149.857 40.6796C149.1 41.1332 148.063 40.8108 147.15 40.8197C145.318 40.8378 143.485 40.8251 141.652 40.8251C141.652 40.8271 141.652 40.8292 141.652 40.8312Z" fill="#FBFDF8"/>
<path d="M97.2158 40.8269C94.7562 40.827 92.2966 40.8379 89.8371 40.8214C88.9263 40.8153 88.8684 40.7156 89.2111 39.9072C91.331 34.9054 93.4351 29.8959 95.5976 24.9142C96.207 23.5103 96.5293 21.9838 97.3414 20.6656C97.662 20.1451 97.9985 19.9138 98.6079 19.917C103.527 19.9431 108.446 19.9284 113.365 19.9402C114.301 19.9424 114.307 19.9735 113.921 20.8838C113.589 21.6647 113.148 22.4108 112.928 23.2233C112.625 24.3378 111.952 24.5118 110.98 24.4894C108.522 24.4328 106.056 24.5624 103.604 24.4258C102.304 24.3534 101.709 24.8769 101.261 26.0456C100.581 27.8218 100.527 27.8026 102.302 27.8028C104.617 27.8029 106.932 27.8005 109.247 27.7913C109.84 27.789 110.188 27.8663 109.813 28.6345C109.356 29.5698 108.98 30.5509 108.612 31.5297C108.392 32.1159 107.941 32.0132 107.525 32.0144C105.21 32.0211 102.892 32.0859 100.581 31.9872C99.2641 31.9309 98.3603 32.1941 98.0203 33.6905C97.8681 34.3603 97.4567 34.9632 97.1858 35.6069C97.0373 35.96 97.1702 36.1958 97.5486 36.22C97.8849 36.2414 98.2232 36.232 98.5606 36.2319C101.213 36.2312 103.866 36.2192 106.518 36.2331C107.576 36.2386 107.597 36.2983 107.16 37.3391C106.812 38.1659 106.441 38.9826 106.117 39.8193C105.833 40.5537 105.42 40.8757 104.594 40.852C102.136 40.7817 99.6754 40.8268 97.2158 40.8269Z" fill="#FBFDF8"/>
</svg>
