<svg width="225" height="45" viewBox="0 0 225 45" fill="none" xmlns="http://www.w3.org/2000/svg">
<path d="M21.8505 0C9.76726 0 0 9.91742 0 22.1864C0 34.4554 9.76726 44.3728 21.8505 44.3728C33.9337 44.3728 43.7009 34.4554 43.7009 22.1864C43.7009 9.91742 33.9337 0 21.8505 0ZM18.729 31.5926L17.1179 36.398C11.0763 34.3531 7.04853 28.5254 7.04853 21.9819C7.04853 15.4385 11.0763 9.71294 17.2186 7.56587L18.8297 12.3712C14.8019 13.7004 12.1839 17.5855 12.1839 21.8797C12.0832 26.3783 14.7012 30.2635 18.729 31.5926ZM26.281 36.6024L24.7706 31.6949C28.899 30.3657 31.6177 26.4805 31.6177 22.0842C31.6177 17.6878 28.899 13.9048 24.8713 12.5757L26.4824 7.66811C32.6246 9.71294 36.7531 15.5407 36.7531 22.0842C36.6524 28.7298 32.524 34.5576 26.281 36.6024Z" fill="#00BEF0"/>
<path d="M221.827 26.1742L224.244 29.1392C221.727 31.7974 218.605 32.5131 216.088 32.5131C213.671 32.5131 211.959 32.1042 210.449 31.3885C207.227 29.7526 205.616 26.4809 205.616 22.4935C205.616 16.4612 209.644 11.9626 215.584 11.9626C222.23 11.9626 225.452 16.9724 224.949 23.5159H209.845C209.946 25.1517 210.852 26.6854 212.161 27.5033C213.269 28.219 214.578 28.5257 216.289 28.5257C218.303 28.5257 220.216 27.9123 221.827 26.1742ZM210.046 19.9374H220.72C220.418 17.5859 218.505 15.541 215.484 15.541C212.262 15.541 210.449 17.7904 210.046 19.9374ZM108.648 32.0019H114.086L105.527 21.88L113.985 12.3716H108.648L102.204 19.9374H100.291V12.3716H96.1621V31.8997H100.291V24.1293H102.204L108.648 32.0019ZM126.37 15.95C122.846 15.95 120.53 18.7105 120.53 22.1867C120.53 25.6629 122.846 28.4235 126.37 28.4235C129.894 28.4235 132.11 25.7652 132.11 22.1867C132.11 18.7105 129.995 15.95 126.37 15.95ZM127.075 11.8604C132.512 11.8604 136.54 16.1545 136.54 22.0845C136.54 27.9123 132.613 32.4109 127.075 32.4109C124.457 32.4109 122.342 31.4907 120.832 29.8548V40.079H116.603V12.3716H120.731V14.7231C122.342 12.7805 124.457 11.8604 127.075 11.8604ZM181.953 12.3716H164.734V16.2567H171.279V31.8997H175.508V16.359H182.054V12.3716H181.953ZM93.1413 12.3716H75.9228V16.2567H82.4678V31.8997H86.697V16.359H93.242V12.3716H93.1413ZM70.7874 22.1867C70.7874 18.506 68.2701 15.8478 64.7458 15.8478C61.3222 15.8478 58.7042 18.506 58.7042 22.1867C58.7042 25.8674 61.2215 28.5257 64.7458 28.5257C68.1694 28.5257 70.7874 25.8674 70.7874 22.1867ZM54.4751 22.1867C54.4751 16.359 58.9056 11.9626 64.8465 11.9626C70.6867 11.9626 75.2179 16.359 75.2179 22.1867C75.2179 28.0145 70.586 32.5131 64.7458 32.5131C58.9056 32.5131 54.4751 28.0145 54.4751 22.1867ZM202.293 12.3716V31.8997H198.165V19.324L188.095 31.8997H184.772V12.3716H188.901V24.9473L198.97 12.3716H202.293ZM161.814 32.0019H157.686V12.3716H161.814V32.0019ZM151.141 25.254C151.141 23.5159 149.932 22.289 148.321 22.289H144.092V28.3212H148.321C149.932 28.3212 151.141 26.9921 151.141 25.254ZM155.269 25.254C155.269 29.1392 152.45 31.8997 148.422 31.8997H139.964V12.3716H144.092V18.7105H148.825C152.752 18.7105 155.269 21.3688 155.269 25.254Z" fill="black"/>
</svg>
