<svg width="159" height="49" viewBox="0 0 159 49" fill="none" xmlns="http://www.w3.org/2000/svg">
<path d="M32.3663 0L16.1829 16.1834H32.3663V48.5497L48.5497 32.4049V0H32.3663Z" fill="#EA5616"/>
<path d="M16.1834 48.5497L32.3668 32.3663H16.1834V0L0 16.1448V48.5497H16.1834Z" fill="#2C2D84"/>
<path d="M64.7327 40.4584H73.2288V15.3742H86.1751V40.4584H94.6713V8.0916H64.7327V40.4584ZM147.262 20.2189H140.004V15.3742H156.168V8.0916H131.508V40.4584C131.508 40.4584 143.627 40.4579 147.666 40.4579C154.145 40.4574 159 37.2101 159 30.3381C159 23.4544 154.145 20.2189 147.262 20.2189ZM146.453 33.5806H140.004V27.1139H146.453C148.457 27.1139 150.486 27.904 150.486 30.3381C150.486 32.7733 148.457 33.5806 146.453 33.5806ZM115.466 33.5607C109.795 33.5607 106.607 29.4033 106.607 24.2643C106.607 20.1379 108.928 14.9593 115.305 14.9593C119.285 14.9593 121.853 17.3923 122.763 18.5255L127.93 13.3592C124.812 9.63914 120.133 7.27148 114.901 7.27148C105.516 7.27148 98.1105 14.2179 98.1105 24.2643C98.1105 33.6492 105.516 41.2566 114.901 41.2566C120.519 41.2566 125.499 38.5282 128.592 34.3256L123.393 29.1261C121.748 31.7029 119.063 33.5607 115.466 33.5607Z" fill="#2C2D84"/>
</svg>
