<svg width="151" height="33" viewBox="0 0 151 33" fill="none" xmlns="http://www.w3.org/2000/svg">
<path fill-rule="evenodd" clip-rule="evenodd" d="M141.873 13.1074H144.999V9.55071H147.874V13.1074H151V4.20821H147.874V7.34053H144.999V4.20821H141.873V13.1074ZM122.937 6.75089C123.596 6.3082 124.49 5.99407 125.259 5.99407C125.652 5.99407 126.509 6.05153 126.509 6.80741C126.509 7.54351 125.757 7.5614 125.453 7.5614H123.918V9.49514H125.276C125.723 9.49514 126.562 9.53282 126.562 10.2515C126.562 10.5454 126.386 11.119 125.293 11.119C124.203 11.119 123.507 10.8223 122.595 10.2694L121.793 12.3708C123.507 13.3504 125.062 13.4422 125.776 13.4422C129.349 13.4422 129.796 11.3761 129.796 10.6956C129.796 9.75464 129.242 8.79624 127.992 8.50049V8.46422C128.777 8.11383 129.278 7.34053 129.278 6.38261C129.278 4.30005 127.082 3.87666 125.74 3.87666C124.49 3.87666 123.042 4.24448 122.097 4.76017L122.937 6.75089ZM116.171 3.04684C117.584 3.04684 119.048 2.49488 119.691 0.982181L117.655 0.210759C117.405 1.24309 116.53 1.29631 116.171 1.29631C115.814 1.29631 114.94 1.24309 114.691 0.210759L112.655 0.982181C113.296 2.49488 114.762 3.04684 116.171 3.04684ZM111.298 4.20821V13.1074H114.332L117.423 8.20755V13.1074H120.549V4.20821H117.548L114.421 8.97945V4.20821H111.298ZM90.5748 11.192V6.25357C89.5208 6.23426 88.4456 7.02781 88.4456 8.72278C88.4456 10.4182 89.5208 11.2094 90.5748 11.192ZM93.3072 6.25357V11.192C94.3617 11.2094 95.4326 10.4182 95.4326 8.72278C95.4326 7.02781 94.3617 6.23426 93.3072 6.25357ZM90.377 16.98V13.2406C88.5186 13.2581 85.4447 12.5003 85.4447 8.64837C85.4447 4.81716 88.5026 4.0608 90.377 4.07823V0.210759H93.5027V4.07823C95.3804 4.0608 98.4331 4.81716 98.4331 8.64837C98.4331 12.5003 95.3615 13.2581 93.5027 13.2406V16.98H90.377ZM76.5158 11.192V6.25357C75.4618 6.23426 74.3895 7.02781 74.3895 8.72278C74.3895 10.4182 75.4618 11.2094 76.5158 11.192ZM79.2507 6.25357V11.192C80.3023 11.2094 81.3747 10.4182 81.3747 8.72278C81.3747 7.02781 80.3023 6.23426 79.2507 6.25357ZM76.319 16.98V13.2406C74.4597 13.2581 71.3881 12.5003 71.3881 8.64837C71.3881 4.81716 74.4432 4.0608 76.319 4.07823V0.210759H79.4447V4.07823C81.321 4.0608 84.3742 4.81716 84.3742 8.64837C84.3742 12.5003 81.304 13.2581 79.4447 13.2406V16.98H76.319ZM65.528 3.04684C66.9409 3.04684 68.4055 2.49488 69.047 0.982181L67.0115 0.210759C66.7605 1.24309 65.885 1.29631 65.528 1.29631C65.171 1.29631 64.2955 1.24309 64.044 0.210759L62.0086 0.982181C62.6524 2.49488 64.1175 3.04684 65.528 3.04684ZM60.6532 4.20821V13.1074H63.6875L66.7789 8.20755V13.1074H69.906V4.20821H66.9041L63.7789 8.97945V4.20821H60.6532ZM41.5659 2.84292V5.80993H42.7103C44.2649 5.80993 44.426 4.86943 44.426 4.31842C44.426 3.67274 44.2112 2.84292 42.7103 2.84292H41.7091H41.5659ZM38.2094 13.1074V0.00683594H43.4784C47.0346 0.00683594 48.0344 2.5481 48.0344 4.31842C48.0344 6.10474 47.0172 8.64837 43.4784 8.64837H41.5659V13.1074H38.2094ZM109.349 4.19361V13.1074H106.232V12.1169H106.199C105.651 13.0042 104.571 13.4036 103.544 13.4036C100.942 13.4036 99.1094 11.1972 99.1094 8.64318C99.1094 6.08826 100.906 3.8988 103.511 3.8988C104.521 3.8988 105.582 4.28074 106.232 5.06252V4.19361H109.349ZM104.332 6.64399C103.065 6.64399 102.328 7.56564 102.328 8.65873C102.328 9.78807 103.065 10.657 104.332 10.657C105.6 10.657 106.337 9.78807 106.337 8.65873C106.337 7.56564 105.6 6.64399 104.332 6.64399ZM58.7048 4.19361V13.1074H55.5881V12.1169H55.5537C55.006 13.0042 53.9275 13.4036 52.8985 13.4036C50.2969 13.4036 48.4644 11.1972 48.4644 8.64318C48.4644 6.08826 50.2635 3.8988 52.8655 3.8988C53.8757 3.8988 54.9377 4.28074 55.5881 5.06252V4.19361H58.7048ZM53.6878 6.64399C52.4204 6.64399 51.6834 7.56564 51.6834 8.65873C51.6834 9.78807 52.4204 10.657 53.6878 10.657C54.9542 10.657 55.6903 9.78807 55.6903 8.65873C55.6903 7.56564 54.9542 6.64399 53.6878 6.64399ZM140.335 9.03549V9.36704H133.776C133.776 10.6532 134.446 11.3474 135.727 11.3474C136.398 11.3474 136.876 11.1223 137.218 10.5308H140.216C139.717 12.6336 137.749 13.5901 135.746 13.5901C132.836 13.5901 130.66 11.9215 130.66 8.84381C130.66 5.87303 132.663 4.08529 135.524 4.08529C138.57 4.08529 140.335 5.99501 140.335 9.03549ZM133.828 7.54257H137.439C137.288 6.69108 136.516 6.1363 135.677 6.1363C134.77 6.1363 134.016 6.62091 133.828 7.54257ZM43.2001 27.3123H42.2365L41.7604 30.0914H42.6773C44.7288 30.0914 45.1282 29.5116 45.2459 28.7666C45.3773 27.9466 45.2167 27.3123 43.2001 27.3123ZM48.8426 28.8047C48.6999 29.6845 48.4126 30.5741 47.7759 31.2188C46.3729 32.6317 44.2565 32.7452 42.9138 32.7504H37.6636L39.8935 19.6503H48.8289L48.4112 22.2297H43.008L42.5907 24.844H44.1557C45.3109 24.844 46.7925 24.9989 47.8479 25.9013C48.625 26.5658 49.039 27.568 48.8426 28.8047ZM58.2405 30.4738H53.3096L51.9806 32.7504H48.1819L55.6597 19.6503H59.5672L62.5733 32.7504H58.7566L58.2405 30.4738ZM57.7069 27.8689L56.9402 23.6991H56.903L54.7295 27.8689H57.7069ZM82.5492 19.6503H78.9408L76.7617 32.749L80.339 32.7494L81.2866 27.0692H81.3229L85.0005 32.7504L89.6394 32.7494L84.8107 25.8518L91.325 19.6503H86.8862L81.6591 25.0526H81.6196L82.5492 19.6503ZM68.7022 19.6503L67.9063 24.5336H72.6785L73.473 19.6503H76.9501L74.835 32.7504H71.3702L72.2683 27.1182H67.499L66.5971 32.7504H63.105L65.2379 19.6503H68.7022Z" fill="black"/>
<mask id="mask0" mask-type="alpha" maskUnits="userSpaceOnUse" x="0" y="0" width="151" height="33">
<path d="M0 32.7506H151V0H0V32.7506Z" fill="white"/>
</mask>
<g mask="url(#mask0)">
<path fill-rule="evenodd" clip-rule="evenodd" d="M1.09082 31.6591H31.6576V1.09277H1.09082V31.6591Z" fill="#FFED00"/>
<path fill-rule="evenodd" clip-rule="evenodd" d="M1.09167 31.6584H31.6584V1.09211H1.09167V31.6584ZM0 32.7501H32.7511V-0.000976562H0V32.7501Z" fill="black"/>
<path fill-rule="evenodd" clip-rule="evenodd" d="M16.3743 20.108L6.96749 29.5134L3.23518 25.7858L12.643 16.3771L10.6805 14.4132V10.5359L9.31755 9.17151V12.553L8.13122 13.7398L3.36187 8.969L2.18213 10.1483C2.19061 9.25863 2.36816 6.68393 4.55197 4.53732C6.90862 2.27015 9.45365 3.29165 10.324 4.16291L15.091 8.93132L13.875 10.1459L16.3743 12.6462L18.8732 10.1459L17.6577 8.93132L22.4237 4.16291C23.294 3.29165 25.8391 2.27015 28.1957 4.53732C30.38 6.68393 30.5576 9.25863 30.5665 10.1483L29.3868 8.969L24.6169 13.7398L23.4311 12.553V9.17151L22.0672 10.5359V14.4132L20.1047 16.3771L29.513 25.7858L25.7811 29.5134L16.3743 20.108Z" fill="black"/>
</g>
</svg>
