<svg width="216" height="59" viewBox="0 0 216 59" fill="none" xmlns="http://www.w3.org/2000/svg">
<path d="M64.7855 9.68957C65.6442 9.60395 66.5114 9.69405 67.3342 9.95438C68.157 10.2147 68.9182 10.6398 69.5714 11.2038C70.2246 11.7678 70.7561 12.4589 71.1337 13.2349C71.5112 14.011 71.7268 14.8557 71.7673 15.7178V16.5106C71.7673 20.6353 69.0701 23.0147 64.7855 23.0147H56.219V29.6777H52.5674V9.68957H64.7855ZM64.9444 19.5247C65.7204 19.5767 66.486 19.3241 67.0786 18.8204C67.6711 18.3167 68.0438 17.6017 68.1175 16.8275V16.3517C68.1988 15.5107 67.9443 14.6717 67.4094 14.0177C66.8745 13.3637 66.1027 12.9478 65.2623 12.8608H56.0583V19.5238L64.9444 19.5247Z" fill="black"/>
<path d="M85.071 30C78.7259 30 73.4905 25.7172 73.4905 19.5274C73.4905 13.3375 78.7268 9.05469 85.071 9.05469C91.4153 9.05469 96.6516 13.3375 96.6516 19.5274C96.6516 25.7172 91.4153 30 85.071 30ZM85.071 12.3912C83.1583 12.251 81.2677 12.8727 79.8116 14.1209C78.3555 15.3692 77.452 17.1425 77.2983 19.0542V19.5329C77.2983 23.6576 80.3124 26.6717 85.071 26.6717C89.8297 26.6717 92.8438 23.6576 92.8438 19.5329C92.8438 15.4081 89.8297 12.394 85.071 12.394" fill="black"/>
<path d="M111.53 29.9999C104.867 29.9999 99.9497 25.7172 99.9497 19.5273C99.9497 13.3374 105.026 9.05462 111.53 9.05462C114.858 8.93057 118.121 9.99951 120.731 12.0687L118.827 14.934C116.788 13.3312 114.281 12.4397 111.688 12.3958C106.771 12.3958 103.757 15.4099 103.757 19.3775C103.757 23.3452 106.771 26.5164 111.688 26.5164C114.317 26.5558 116.885 25.7187 118.985 24.1371L120.889 26.9923C118.161 28.9508 114.888 30.0029 111.53 29.9999Z" fill="black"/>
<path d="M151.285 24.603L149.064 29.3617H145.099L154.775 9.53711H158.582L168.258 29.3663H164.292L162.071 24.6076L151.285 24.603ZM152.872 21.43H160.486L156.679 13.3394L152.872 21.43Z" fill="black"/>
<path d="M187.612 29.5206V20.9541H174.604V29.5206H170.956V9.69141H174.605V17.782H187.613V9.69141H191.258V29.5206H187.612Z" fill="black"/>
<path d="M196.812 29.5206V9.69141H200.461V18.8917L210.455 9.69141H214.897L204.744 19.2096L215.369 29.5206H210.452L200.461 19.8444V29.5206H196.812Z" fill="black"/>
<path d="M136.899 16.834H128.332V12.7092H142.451V9.53711H124.525V29.3663H136.743C141.026 29.3663 144.04 26.987 144.04 23.0211C144.04 19.0553 141.343 16.834 136.902 16.834H136.899ZM137.218 26.0343H128.335V20.1659H137.218C139.44 20.1659 140.867 21.4346 140.867 23.18C140.867 24.9255 139.757 26.1942 137.218 26.0352" fill="black"/>
<path d="M39.8172 0H0V20.305H39.8172V0Z" fill="#E9041E"/>
<path d="M39.8172 19.3027H0V39.1319H39.8172V19.3027Z" fill="black"/>
<path d="M32.6933 18.2334H6.83594V20.6127H32.6933V18.2334Z" fill="white"/>
<path d="M140.82 58.0049C138.891 58.0049 137.594 56.8869 137.594 55.2223V51.4366H138.782V55.0956C138.782 56.2475 139.525 56.9081 140.82 56.9081C142.115 56.9081 142.868 56.2475 142.868 55.0956V51.4366H144.049V55.2223C144.049 56.9127 142.783 58.0049 140.82 58.0049ZM132.509 58.0049C132.039 58.0377 131.568 57.9752 131.124 57.8213C130.679 57.6674 130.27 57.4252 129.922 57.1092C129.573 56.7933 129.292 56.4102 129.095 55.9828C128.898 55.5555 128.79 55.0927 128.776 54.6224C128.869 53.699 129.302 52.8429 129.99 52.2204C130.679 51.5978 131.574 51.2531 132.502 51.2531C133.43 51.2531 134.325 51.5978 135.014 52.2204C135.702 52.8429 136.135 53.699 136.228 54.6224C136.233 55.0847 136.138 55.5426 135.95 55.965C135.762 56.3873 135.485 56.7641 135.138 57.0697C134.404 57.6889 133.47 58.02 132.51 58.0013L132.509 58.0049ZM132.509 52.3359C132.194 52.3132 131.878 52.3555 131.58 52.4603C131.283 52.5652 131.01 52.7302 130.779 52.9451C130.548 53.16 130.364 53.4203 130.238 53.7096C130.112 53.9989 130.047 54.311 130.047 54.6266C130.047 54.9421 130.112 55.2543 130.238 55.5436C130.364 55.8329 130.548 56.0931 130.779 56.308C131.01 56.523 131.283 56.688 131.58 56.7928C131.878 56.8976 132.194 56.94 132.509 56.9172C132.824 56.94 133.14 56.8976 133.437 56.7928C133.735 56.688 134.008 56.523 134.239 56.308C134.47 56.0931 134.654 55.8329 134.78 55.5436C134.906 55.2543 134.971 54.9421 134.971 54.6266C134.971 54.311 134.906 53.9989 134.78 53.7096C134.654 53.4203 134.47 53.16 134.239 52.9451C134.008 52.7302 133.735 52.5652 133.437 52.4603C133.14 52.3555 132.824 52.3132 132.509 52.3359ZM116.792 57.9902C115.815 58.0155 114.861 57.6845 114.11 57.0587C113.763 56.7534 113.487 56.3759 113.302 55.9527C113.116 55.5294 113.025 55.0707 113.036 54.6087C113.036 52.6584 114.616 51.2427 116.792 51.2427C117.865 51.2172 118.916 51.5495 119.779 52.1871L119.143 53.1214C118.48 52.6112 117.663 52.3437 116.826 52.3635H116.748C116.436 52.335 116.121 52.3719 115.824 52.4718C115.527 52.5717 115.253 52.7325 115.022 52.9437C114.79 53.155 114.605 53.4123 114.478 53.6991C114.351 53.9859 114.285 54.296 114.285 54.6096C114.287 54.9313 114.358 55.2489 114.491 55.5417C114.625 55.8345 114.818 56.096 115.059 56.3092C115.3 56.5224 115.583 56.6827 115.89 56.7795C116.197 56.8763 116.521 56.9076 116.84 56.8713C117.471 56.8775 118.096 56.7481 118.672 56.4919V54.6362H119.822V57.1166C118.916 57.6895 117.865 57.9926 116.792 57.9902ZM11.2051 57.9765C10.2465 57.9942 9.31367 57.6658 8.57771 57.0514C8.22783 56.7487 7.94799 56.3735 7.75763 55.9519C7.56727 55.5302 7.47094 55.0722 7.47532 54.6096C7.48938 54.1402 7.59816 53.6784 7.79514 53.2521C7.99211 52.8257 8.27322 52.4436 8.62157 52.1286C8.96993 51.8136 9.37834 51.5723 9.8223 51.4191C10.2663 51.2659 10.7366 51.2041 11.2051 51.2372C11.6721 51.2056 12.1406 51.2687 12.5826 51.4227C13.0246 51.5767 13.4309 51.8185 13.7771 52.1335C14.1233 52.4484 14.4023 52.8302 14.5973 53.2557C14.7923 53.6812 14.8993 54.1417 14.9118 54.6096C14.9044 55.0789 14.8008 55.5416 14.6075 55.9693C14.4142 56.3969 14.1352 56.7804 13.7877 57.0959C13.4403 57.4115 13.0319 57.6524 12.5877 57.8039C12.1434 57.9553 11.6729 58.0141 11.2051 57.9765ZM11.2051 52.3249C10.8882 52.2979 10.5692 52.3371 10.2682 52.4398C9.96729 52.5426 9.69096 52.7067 9.45676 52.9219C9.22255 53.137 9.03557 53.3984 8.90767 53.6896C8.77977 53.9807 8.71373 54.2952 8.71373 54.6133C8.71373 54.9313 8.77977 55.2458 8.90767 55.537C9.03557 55.8281 9.22255 56.0895 9.45676 56.3047C9.69096 56.5198 9.96729 56.6839 10.2682 56.7867C10.5692 56.8894 10.8882 56.9286 11.2051 56.9016C11.5219 56.9286 11.8409 56.8894 12.1419 56.7867C12.4428 56.6839 12.7192 56.5198 12.9534 56.3047C13.1876 56.0895 13.3745 55.8281 13.5025 55.537C13.6304 55.2458 13.6964 54.9313 13.6964 54.6133C13.6964 54.2952 13.6304 53.9807 13.5025 53.6896C13.3745 53.3984 13.1876 53.137 12.9534 52.9219C12.7192 52.7067 12.4428 52.5426 12.1419 52.4398C11.8409 52.3371 11.5219 52.2979 11.2051 52.3249ZM54.2303 57.9728C53.2553 57.998 52.3043 57.6683 51.5542 57.0449C51.2083 56.7403 50.933 56.3638 50.7479 55.9417C50.5627 55.5196 50.472 55.0621 50.4821 54.6013C50.4821 52.6519 52.0586 51.2372 54.2303 51.2372C55.3005 51.2095 56.349 51.542 57.2076 52.1816L56.5774 53.1159C55.919 52.6019 55.1018 52.3342 54.267 52.3589H54.1889C53.8775 52.3312 53.5638 52.3687 53.2676 52.4688C52.9715 52.569 52.6994 52.7297 52.4687 52.9407C52.238 53.1516 52.0538 53.4083 51.9276 53.6944C51.8015 53.9804 51.7363 54.2896 51.7361 54.6022C51.7382 54.9235 51.808 55.2407 51.9409 55.5333C52.0738 55.8258 52.2669 56.087 52.5074 56.3C52.748 56.5129 53.0308 56.6728 53.3373 56.7692C53.6438 56.8655 53.9671 56.8963 54.2863 56.8594C54.9139 56.8604 55.535 56.7318 56.1107 56.4818V54.627H57.2609V57.0973C56.3566 57.676 55.3039 57.9801 54.2303 57.9728ZM19.7651 57.9728C18.7907 57.998 17.8403 57.6683 17.0909 57.0449C16.7449 56.7403 16.4697 56.3638 16.2845 55.9417C16.0993 55.5196 16.0087 55.0621 16.0188 54.6013C16.017 52.6519 17.5934 51.2372 19.7651 51.2372C20.8361 51.2083 21.8851 51.5446 22.7397 52.1908L22.1113 53.1241C21.452 52.608 20.6363 52.3325 19.7991 52.3433C19.4817 52.3114 19.1612 52.3459 18.8578 52.4444C18.5545 52.543 18.2749 52.7035 18.0369 52.9158C17.7988 53.1281 17.6075 53.3876 17.475 53.6777C17.3425 53.9679 17.2718 54.2824 17.2673 54.6013C17.2687 54.923 17.3379 55.2407 17.4703 55.5338C17.6027 55.8269 17.7954 56.0888 18.0359 56.3025C18.2763 56.5161 18.5591 56.6767 18.8657 56.7738C19.1724 56.8709 19.496 56.9022 19.8156 56.8658C20.6609 56.8827 21.4869 56.6119 22.1582 56.0978L22.793 57.0357C21.9161 57.6764 20.8505 58.0062 19.7651 57.9728ZM3.33495 57.9434C2.16784 57.9686 1.01601 57.6744 0.00390625 57.0927L0.463234 56.0905C1.34212 56.591 2.3346 56.8579 3.34597 56.8658C4.54022 56.8658 5.25218 56.5342 5.25218 55.9793C5.25218 55.3932 4.33353 55.2444 3.2688 55.068C1.80906 54.8301 0.154566 54.5591 0.154566 53.114C0.154566 51.9832 1.27257 51.2767 3.07129 51.2767C4.10531 51.271 5.12574 51.5123 6.04774 51.9804L5.5783 52.9386C4.79663 52.5873 3.95433 52.3908 3.09793 52.3598C1.97718 52.3598 1.38556 52.5986 1.38556 53.0497C1.38556 53.5596 2.23348 53.6928 3.2146 53.8563C4.67159 54.0924 6.48501 54.3873 6.48501 55.9811C6.48318 57.1938 5.27698 57.9434 3.33495 57.9434ZM122.619 57.8184H121.432V51.4366H125.555C125.838 51.4055 126.124 51.4355 126.395 51.5244C126.666 51.6133 126.914 51.7591 127.124 51.952C127.334 52.145 127.499 52.3805 127.61 52.6429C127.722 52.9053 127.775 53.1884 127.768 53.4732C127.766 53.9726 127.575 54.4527 127.233 54.8168C126.891 55.1809 126.424 55.402 125.926 55.4355L127.837 57.8194H126.348L124.533 55.4685H122.62V57.8212L122.619 57.8184ZM122.619 52.4902V54.4093H125.426C126.143 54.4093 126.588 54.0501 126.588 53.4723C126.597 53.3367 126.576 53.2008 126.526 53.0743C126.476 52.9478 126.4 52.8338 126.301 52.7403C126.202 52.6469 126.084 52.5763 125.955 52.5335C125.826 52.4908 125.69 52.4769 125.555 52.493L122.619 52.4902ZM146.897 57.8184H145.71V51.4366H149.683C149.98 51.4123 150.278 51.451 150.558 51.5501C150.839 51.6491 151.095 51.8063 151.311 52.0113C151.527 52.2163 151.696 52.4645 151.809 52.7397C151.922 53.0149 151.976 53.3109 151.967 53.6083C151.979 53.9021 151.926 54.1949 151.813 54.4662C151.699 54.7374 151.527 54.9803 151.31 55.1778C151.092 55.3753 150.833 55.5224 150.552 55.6089C150.271 55.6953 149.974 55.7189 149.683 55.678H146.897V57.8203V57.8184ZM146.897 52.4902V54.6197H149.753C149.886 54.6262 150.019 54.6049 150.143 54.5571C150.267 54.5093 150.38 54.436 150.475 54.342C150.569 54.248 150.643 54.1353 150.691 54.0112C150.739 53.887 150.761 53.7542 150.755 53.6211C150.768 53.4747 150.749 53.3273 150.7 53.1886C150.652 53.0499 150.574 52.9231 150.473 52.8164C150.372 52.7097 150.25 52.6255 150.114 52.5695C149.978 52.5135 149.832 52.4868 149.685 52.4912H146.897V52.4902ZM89.694 57.8056H88.4079L91.5249 51.4347H92.7715L95.8949 57.8019H94.618L93.8831 56.2512H90.428L89.6931 57.8019L89.694 57.8056ZM92.1578 52.6391L90.9186 55.2223H93.3824L92.1578 52.6391ZM82.8133 57.8047H81.6245V51.4347H85.7392C86.0214 51.4038 86.3069 51.4337 86.5766 51.5223C86.8462 51.6109 87.0938 51.7562 87.3027 51.9484C87.5115 52.1406 87.6768 52.3753 87.7874 52.6368C87.898 52.8982 87.9514 53.1803 87.944 53.464C87.9442 53.9622 87.7551 54.4418 87.415 54.8058C87.0749 55.1697 86.6092 55.3909 86.1122 55.4244L88.011 57.801H86.5246L84.7232 55.4566H82.8133V57.8037V57.8047ZM82.8133 52.4884V54.4001H85.6115C86.3262 54.4001 86.7699 54.0419 86.7699 53.464C86.7794 53.3286 86.7588 53.1927 86.7094 53.0662C86.6601 52.9397 86.5834 52.8256 86.4847 52.7323C86.3861 52.639 86.2679 52.5688 86.1389 52.5266C86.0098 52.4844 85.873 52.4714 85.7383 52.4884H82.8133ZM67.3229 57.8047H66.1608V51.4347H67.3725L71.5395 56.2347L71.5671 56.2237C71.4982 54.9578 71.4927 54.0189 71.4927 53.1002V51.4347H72.6465V57.8019H71.4523L67.2999 53.0038L67.2797 53.0111C67.3257 53.9555 67.3257 55.5999 67.3257 56.1401V57.8037L67.3229 57.8047ZM109.157 57.8047H103.132V51.4347H108.952V52.4884H104.317V54.0308H107.919V55.0864H104.317V56.7491H109.157V57.8019V57.8047ZM102.199 57.8047H96.7447V51.4347H97.9325V56.7491H102.202V57.8019L102.199 57.8047ZM80.3742 57.8047H74.346V51.4347H80.1685V52.4884H75.5293V54.0308H79.1359V55.0864H75.5293V56.7491H80.3733V57.8019L80.3742 57.8047ZM64.8931 57.8047H58.8639V51.4347H64.6901V52.4884H60.0481V54.0308H63.6584V55.0864H60.0481V56.7491H64.8922V57.8019L64.8931 57.8047ZM46.8691 57.8047H40.8399V51.4347H46.6633V52.4884H42.0268V54.0308H45.6316V55.0864H42.0268V56.7491H46.8682V57.8019L46.8691 57.8047ZM36.0933 57.8047V52.4765H33.4843V51.4347H39.8735V52.4765H37.2756V57.8047H36.0923H36.0933ZM32.9533 57.8047H26.926V51.4347H32.7503V52.4884H28.1147V54.0308H31.7232V55.0864H28.1147V56.7491H32.9579V57.8019L32.9533 57.8047ZM24.0552 57.8047V51.4366H25.2403V57.8019H24.0552V57.8047Z" fill="black"/>
</svg>
