<svg width="207" height="43" viewBox="0 0 207 43" fill="none" xmlns="http://www.w3.org/2000/svg">
<path d="M154.646 0H4.75854V42.1901H154.646V0Z" fill="#245F34"/>
<path d="M4.75794 0H0V42.1901H4.75794V0Z" fill="#FFCB05"/>
<path d="M48.1222 20.7136C48.506 20.7136 49.0539 20.7273 49.4942 20.3156C49.7958 20.0413 49.9607 19.5761 49.9607 19.1775C49.9607 18.8074 49.8089 18.3683 49.5079 18.1071C49.2056 17.8471 48.7261 17.7233 48.1894 17.7233H46.5164V20.7136H48.1222ZM48.0532 16.3525C48.8635 16.3525 49.7679 16.3799 50.5497 16.9142C51.072 17.2569 51.6884 17.9435 51.6884 19.1643C51.6884 20.5084 50.8376 22.085 48.4929 22.085H46.5164V25.7607H44.7898V16.3525H48.0532Z" fill="white"/>
<path d="M54.4472 24.2408C54.5965 24.4193 54.941 24.7471 55.5431 24.7471C56.1476 24.7471 56.4897 24.4193 56.6396 24.2408C56.7503 24.1176 57.1626 23.5685 57.1626 22.2655C57.1626 20.9631 56.7503 20.4158 56.6396 20.2914C56.4897 20.1124 56.1476 19.7839 55.5431 19.7839C54.941 19.7839 54.5965 20.1124 54.4472 20.2914C54.3377 20.4158 53.9248 20.9631 53.9248 22.2655C53.9248 23.5685 54.3377 24.1176 54.4472 24.2408ZM53.2805 19.4817C53.76 19.0289 54.4745 18.6309 55.5431 18.6309C56.6128 18.6309 57.3268 19.0289 57.8063 19.4817C58.5191 20.1534 58.8891 21.1958 58.8891 22.2655C58.8891 23.3353 58.5191 24.3776 57.8063 25.0499C57.3268 25.5027 56.6128 25.9001 55.5431 25.9001C54.4745 25.9001 53.76 25.5027 53.2805 25.0499C52.5671 24.3776 52.1958 23.3353 52.1958 22.2655C52.1958 21.1958 52.5671 20.1534 53.2805 19.4817Z" fill="white"/>
<path d="M64.3572 21.3338C64.3298 20.9768 64.1923 20.5657 64.0156 20.3045C63.8491 20.0582 63.5194 19.7839 62.9727 19.7839C62.4366 19.7839 62.0802 20.0582 61.8613 20.427C61.5174 20.9905 61.4912 21.8675 61.4912 22.2655C61.4912 22.9104 61.5864 23.6779 61.8613 24.1176C62.0391 24.3913 62.3955 24.7471 62.9727 24.7471C63.3832 24.7471 63.7259 24.5841 63.9871 24.2271C64.1923 23.9391 64.3298 23.528 64.3572 23.171L65.8112 23.3489C65.7279 23.9933 65.4412 24.7072 64.9337 25.1731C64.5071 25.5568 63.8491 25.9001 62.9167 25.9001C61.8761 25.9001 61.2027 25.489 60.8058 25.1171C60.2703 24.6102 59.7634 23.7059 59.7634 22.2792C59.7634 20.9488 60.215 20.1534 60.5714 19.728C61.0789 19.1253 61.944 18.6309 62.9584 18.6309C63.8229 18.6309 64.5362 18.9337 64.9872 19.3995C65.4412 19.8517 65.7154 20.5371 65.8112 21.1541L64.3572 21.3338Z" fill="white"/>
<path d="M71.1655 21.3338C71.1387 20.9768 71.0025 20.5657 70.824 20.3045C70.6592 20.0582 70.3284 19.7839 69.7798 19.7839C69.2461 19.7839 68.8898 20.0582 68.669 20.427C68.3281 20.9905 68.2995 21.8675 68.2995 22.2655C68.2995 22.9104 68.3959 23.6779 68.669 24.1176C68.8475 24.3913 69.2051 24.7471 69.7798 24.7471C70.1927 24.7471 70.5348 24.5841 70.7954 24.2271C71.0025 23.9391 71.1387 23.528 71.1655 23.171L72.6202 23.3489C72.5381 23.9933 72.2495 24.7072 71.742 25.1731C71.3154 25.5568 70.6592 25.9001 69.7263 25.9001C68.6839 25.9001 68.0122 25.489 67.6141 25.1171C67.0793 24.6102 66.5718 23.7059 66.5718 22.2792C66.5718 20.9488 67.0228 20.1534 67.3809 19.728C67.8866 19.1253 68.7511 18.6309 69.7667 18.6309C70.6306 18.6309 71.344 18.9337 71.7955 19.3995C72.2495 19.8517 72.5232 20.5371 72.6202 21.1541L71.1655 21.3338Z" fill="white"/>
<path d="M78.3357 21.5236C78.3357 21.1279 78.2405 20.6751 78.0329 20.3723C77.7741 19.9892 77.307 19.728 76.7995 19.728C76.2789 19.728 75.8261 19.9892 75.5513 20.3182C75.3317 20.5919 75.1402 21.0173 75.1402 21.5236H78.3357ZM79.954 23.7338C79.7077 24.5567 79.2133 25.0357 78.8027 25.3248C78.2554 25.6943 77.5408 25.9001 76.7858 25.9001C75.8404 25.9001 74.8795 25.5027 74.3024 24.9125C73.7687 24.3645 73.3701 23.4173 73.3701 22.2935C73.3701 20.8662 73.9603 19.9201 74.6041 19.3853C74.9765 19.0699 75.675 18.6309 76.7305 18.6309C78.062 18.6309 78.9122 19.2478 79.3632 19.8785C79.8439 20.5371 80.0641 21.4569 80.0641 22.2524V22.5671H75.0991C75.0991 22.6498 75.0848 23.2811 75.3317 23.7874C75.7018 24.5567 76.3747 24.7471 76.8411 24.7471C77.2118 24.7471 77.6771 24.6382 78.062 24.2408C78.294 23.9933 78.391 23.76 78.4309 23.5423L79.954 23.7338Z" fill="white"/>
<path d="M86.8391 18.7686V25.763H85.2458V19.9472H83.4365C83.3967 20.8938 83.3687 21.2769 83.3408 21.9213C83.2997 22.6495 83.245 24.1845 82.6268 25.0216C82.2847 25.4744 81.8599 25.6535 81.5576 25.7356C81.3792 25.7903 81.1881 25.8171 80.9954 25.8171C80.8586 25.8171 80.7199 25.8034 80.5854 25.763V24.5558H80.7199C80.9264 24.5415 81.2018 24.4326 81.3792 24.294C81.9283 23.8561 81.983 22.8685 82.0384 22.0873C82.1068 21.058 82.1199 20.441 82.1342 19.5093L82.1478 18.7686H86.8391Z" fill="white"/>
<path d="M90.1086 24.6093H91.358C91.6602 24.6093 91.9881 24.5956 92.2629 24.3642C92.4266 24.2125 92.6193 23.9525 92.6193 23.5128C92.6193 23.129 92.5098 22.8274 92.1945 22.6216C91.9196 22.4425 91.5769 22.4157 91.358 22.4157H90.1086V24.6093ZM90.1086 21.2638H91.8643C92.3171 21.2638 93.1952 21.3192 93.7718 21.8957C94.2917 22.4026 94.3465 23.116 94.3465 23.4997C94.3465 24.5004 93.9354 25.0079 93.6212 25.2691C93.5106 25.3518 92.99 25.7629 92.0017 25.7629H88.5188V18.7686H90.1086V21.2638Z" fill="white"/>
<path d="M96.6605 18.7686L97.9504 20.9485L99.2932 18.7686H100.747L98.7036 21.9362L101.131 25.763H99.2652L97.6755 23.1291L96.003 25.763H94.5483L96.9342 22.1278L94.7947 18.7686H96.6605Z" fill="white"/>
<path d="M103.524 24.2408C103.673 24.4193 104.016 24.7471 104.62 24.7471C105.224 24.7471 105.567 24.4193 105.718 24.2408C105.827 24.1176 106.24 23.5685 106.24 22.2655C106.24 20.9631 105.827 20.4158 105.718 20.2914C105.567 20.1124 105.224 19.7839 104.62 19.7839C104.016 19.7839 103.673 20.1124 103.524 20.2914C103.414 20.4158 103.002 20.9631 103.002 22.2655C103.002 23.5685 103.414 24.1176 103.524 24.2408ZM102.358 19.4817C102.837 19.0289 103.551 18.6309 104.62 18.6309C105.69 18.6309 106.404 19.0289 106.884 19.4817C107.596 20.1534 107.967 21.1958 107.967 22.2655C107.967 23.3353 107.596 24.3776 106.884 25.0499C106.404 25.5027 105.69 25.9001 104.62 25.9001C103.551 25.9001 102.837 25.5027 102.358 25.0499C101.644 24.3776 101.274 23.3353 101.274 22.2655C101.274 21.1958 101.644 20.1534 102.358 19.4817Z" fill="white"/>
<path d="M108.816 20.6603C109.022 19.8101 109.556 19.3442 109.941 19.111C110.174 18.9616 110.818 18.6309 111.915 18.6309C112.601 18.6309 113.301 18.754 113.823 19.0437C114.591 19.4674 114.781 20.0849 114.781 20.524C114.781 21.0036 114.548 21.9216 113.356 22.059V22.0876C113.766 22.1429 114.22 22.3208 114.494 22.6088C114.741 22.8694 114.932 23.3079 114.932 23.7731C114.932 24.4734 114.522 25.0904 114 25.4331C113.37 25.8454 112.504 25.9001 111.861 25.9001C111.215 25.9001 110.229 25.8305 109.542 25.2838C109.159 24.9815 108.803 24.4597 108.692 23.8017L110.133 23.5548C110.186 23.7731 110.311 24.1027 110.476 24.2949C110.832 24.7072 111.395 24.7471 111.751 24.7471C112.108 24.7471 112.493 24.7072 112.794 24.5008C113.068 24.3092 113.205 24.0486 113.205 23.7059C113.205 23.4173 113.149 23.1847 112.904 22.9777C112.588 22.7188 112.163 22.6778 111.765 22.6778H111.038V21.6075H111.765C112.039 21.6075 112.436 21.5521 112.656 21.4432C112.944 21.2915 113.109 21.0452 113.109 20.6472C113.109 20.427 113.026 20.2218 112.821 20.0582C112.504 19.7964 112.053 19.7833 111.82 19.7833C111.505 19.7833 111.038 19.8238 110.654 20.1528C110.49 20.2914 110.27 20.5514 110.201 20.9625L108.816 20.6603Z" fill="white"/>
<path d="M118.532 24.115H120.301C120.631 24.115 120.933 24.1002 121.248 23.7848C121.549 23.4838 121.591 23.1411 121.591 22.8811C121.591 22.5794 121.508 22.2766 121.248 22.016C120.933 21.7013 120.536 21.6721 120.246 21.6721H118.532V24.115ZM123.072 17.9982H118.532V20.0824H120.549C121.274 20.0824 121.975 20.1383 122.689 20.631C123.386 21.1117 123.827 21.8244 123.827 22.8526C123.827 23.8128 123.469 24.5256 123.018 24.9789C122.332 25.6637 121.549 25.7607 120.726 25.7607H116.338V16.3525H123.072V17.9982Z" fill="white"/>
<path d="M128.838 22.4577C128.152 22.5124 127.466 22.5814 127.081 23.0604C126.971 23.1978 126.862 23.4036 126.862 23.6916C126.862 23.9933 127.013 24.1997 127.163 24.3092C127.355 24.4597 127.643 24.5276 127.918 24.5276C128.329 24.5276 128.81 24.3497 129.084 24.0212C129.125 23.979 129.454 23.5679 129.454 22.773V22.4029L128.838 22.4577ZM124.956 20.7156C125.174 19.769 125.792 19.2895 126.163 19.0699C126.711 18.754 127.438 18.6309 128.343 18.6309C129.495 18.6309 130.662 18.7826 131.182 19.8654C131.456 20.427 131.429 21.0309 131.429 21.5521V24.2539C131.429 24.8161 131.511 25.3379 131.634 25.7633H129.646C129.591 25.4884 129.55 25.1171 129.537 24.6513C129.275 25.1171 128.645 25.9001 127.191 25.9001C126.546 25.9001 125.888 25.7359 125.435 25.3652C124.996 25.0083 124.722 24.433 124.722 23.8017C124.722 23.102 125.024 22.2649 126.217 21.7705C126.985 21.4564 128.232 21.3463 128.796 21.3195L129.454 21.2915V21.1398C129.454 20.9488 129.441 20.5365 129.248 20.3182C128.988 20.0159 128.466 20.0022 128.259 20.0022C127.974 20.0022 127.63 20.0302 127.341 20.2081C127.163 20.3182 126.929 20.5365 126.848 20.9215L124.956 20.7156Z" fill="white"/>
<path d="M135.063 18.7686V21.3882H137.27V18.7686H139.313V25.763H137.27V22.8274H135.063V25.763H133.018V18.7686H135.063Z" fill="white"/>
<path d="M142.946 18.7686V21.456H143.493C144.083 21.456 144.33 21.1669 144.481 20.8515C144.769 20.2346 144.755 19.755 145.017 19.2761C145.222 18.8917 145.496 18.7947 145.675 18.7686H147.361C147.141 19.0012 146.95 19.2761 146.825 19.5224C146.606 19.9746 146.4 20.7153 146.278 21.0306C146.113 21.4697 145.838 21.91 145.139 21.9641V21.9897C145.509 22.0462 145.893 22.2378 146.183 22.6632C146.359 22.9232 146.484 23.2671 146.676 23.8014C146.869 24.3493 146.95 24.5415 147.128 24.9657C147.266 25.2834 147.347 25.4744 147.58 25.763H145.66C145.359 25.666 145.153 25.4601 144.907 24.7468C144.714 24.1994 144.687 24.0072 144.563 23.7056L144.467 23.4581C144.261 22.9369 143.987 22.8274 143.562 22.8274H142.946V25.763H140.902V18.7686H142.946Z" fill="white"/>
<path d="M21.603 21.3122L24.745 18.2238V16.1289L21.603 19.2001V21.3122Z" fill="#FFCB05"/>
<path d="M21.603 13.4931L24.745 10.404V8.42578L21.603 11.4988V13.4931Z" fill="#FFCB05"/>
<path d="M21.603 16.0798L24.745 12.9913V11.0137L21.603 14.0855V16.0798Z" fill="#FFCB05"/>
<path d="M20.7035 8.45146L20.2858 8.04391V3.15332H19.8111V7.58105L19.3964 7.17351V3.15332H18.9228V6.7112L18.5051 6.30365V3.15332H18.0327V7.81844L21.1759 10.9069V3.15332H20.7035V8.45146Z" fill="#FFCB05"/>
<path d="M21.603 18.6661L24.745 15.5783V13.6006L21.603 16.6724V18.6661Z" fill="#FFCB05"/>
<path d="M18.0327 18.2238L21.1759 21.3123V19.2001L18.0327 16.1289V18.2238Z" fill="#FFCB05"/>
<path d="M24.2732 6.30365L23.8573 6.71061V3.15332H23.3814V7.17409L22.9655 7.58047V3.15332H22.4937V8.04217L22.0754 8.4503V3.15332H21.603V10.9063L24.745 7.81786V3.15332H24.2732V6.30365Z" fill="#FFCB05"/>
<path d="M18.0327 10.4044L21.1759 13.4935V11.4986L18.0327 8.42676V10.4044Z" fill="#FFCB05"/>
<path d="M18.0327 12.9913L21.1759 16.0798V14.0855L18.0327 11.0137V12.9913Z" fill="#FFCB05"/>
<path d="M18.0327 15.5777L21.1759 18.6655V16.6718L18.0327 13.6006V15.5777Z" fill="#FFCB05"/>
<path d="M28.5701 19.1302C28.5701 19.5985 28.1887 19.9786 27.7193 19.9786C27.2528 19.9786 26.8715 19.5985 26.8715 19.1302C26.8715 18.9583 26.922 18.797 27.0107 18.6632L27.2487 18.2639C27.1023 18.1349 27.0089 17.9457 27.0089 17.735C27.0089 17.5238 27.1023 17.3346 27.2487 17.2055L27.0107 16.8051C26.922 16.6718 26.8715 16.5124 26.8715 16.3392C26.8715 15.8716 27.2528 15.4908 27.7193 15.4908C28.1887 15.4908 28.5701 15.8716 28.5701 16.3392C28.5701 16.6861 28.1709 17.5113 28.1709 17.5113V17.9582C28.1709 17.9582 28.5701 18.7828 28.5701 19.1302ZM36.7586 17.2091H29.4471H29.1151C29.2745 16.9574 29.3685 16.6611 29.3685 16.3392C29.3685 15.4308 28.6296 14.6924 27.7193 14.6924C26.8108 14.6924 26.0742 15.4308 26.0742 16.3392C26.0742 16.698 26.1896 17.0246 26.3818 17.2942C26.2396 17.3894 26.1438 17.55 26.1438 17.735C26.1438 17.9195 26.2396 18.0807 26.3818 18.1741C26.1896 18.4442 26.0742 18.772 26.0742 19.1302C26.0742 20.0393 26.8108 20.7771 27.7193 20.7771C28.6296 20.7771 29.3685 20.0393 29.3685 19.1302C29.3685 18.8095 29.2745 18.5127 29.1151 18.2604H30.4978H34.8011V18.6049H34.2401V19.0898H34.8011V19.5931H34.2401V20.5177H34.8011V20.0994H35.6335V20.5177H36.1939V19.5931H35.6335V19.0898H36.1939V18.6049H35.6335V18.2604H36.7586C36.9757 18.2604 37.1548 18.0783 37.1548 17.857V17.6125C37.1548 17.3917 36.9757 17.2091 36.7586 17.2091Z" fill="#FFCB05"/>
<path d="M15.1743 16.209V18.261C15.1743 20.2238 16.0293 21.4834 16.5207 21.9754C16.8087 22.2574 19.7317 25.1329 19.7734 25.1739C20.6825 26.0616 20.8413 26.3567 21.043 26.8613V24.5867C21.043 22.5608 20.0173 21.7755 19.489 21.2603C18.258 20.0578 17.4322 19.2683 16.7682 18.6061C15.5075 17.3448 15.1743 16.209 15.1743 16.209Z" fill="white"/>
<path d="M19.489 26.3415C18.2574 25.1368 17.4322 24.3466 16.7682 23.685C15.5075 22.4237 15.1743 21.5693 15.1743 21.5693V23.34C15.1743 25.3028 16.065 26.5551 16.5183 27.068C16.8063 27.3482 19.7371 30.2148 19.7734 30.2529C20.6825 31.1405 20.8413 31.5636 21.0431 32.0687V29.6656C21.0431 27.6398 20.0167 26.855 19.489 26.3415Z" fill="white"/>
<path d="M25.97 6.9541C25.7421 6.9541 25.5172 6.95948 25.2947 6.96957V7.93163C25.5172 7.91976 25.7421 7.915 25.97 7.915C33.2344 7.915 39.1264 13.8051 39.1264 21.0714C39.1264 28.3365 33.2344 34.2273 25.97 34.2273C18.7019 34.2273 12.8117 28.3365 12.8117 21.0714C12.8117 17.0388 14.627 13.4303 17.4834 11.0171V9.78853C14.0635 12.3659 11.8521 16.4605 11.8521 21.0714C11.8521 28.8666 18.1723 35.1869 25.97 35.1869C33.7658 35.1869 40.0855 28.8666 40.0855 21.0714C40.0855 13.275 33.7658 6.9541 25.97 6.9541Z" fill="white"/>
<path d="M35.9553 28.4412C36.1755 28.1437 36.3819 27.8349 36.5764 27.5184V25.624H35.9553V28.4412Z" fill="white"/>
<path d="M37.7658 24.934C37.8538 24.6615 37.9348 24.3866 38.0038 24.1094H35.9553V24.6133H36.2659C36.8127 24.5967 37.4225 24.5901 37.7658 24.934Z" fill="white"/>
<path d="M24.1287 24.04H23.5742V29.6684H24.1287V24.04Z" fill="white"/>
<path d="M33.8677 26.9309L33.2662 26.3574L33.8677 23.2475V26.9309ZM22.2921 22.9524H24.127C24.6012 22.9524 24.9314 23.0506 25.1253 23.2356C25.3193 23.4176 25.4073 23.7484 25.4073 24.2232V29.4827C25.4073 29.9593 25.3193 30.2895 25.1253 30.4727C24.8338 30.7637 24.2995 30.7637 23.8533 30.7637C23.7563 30.7547 23.6581 30.7547 23.5719 30.7547V33.2476C23.7563 33.2833 23.9408 33.316 24.127 33.344V31.2973C24.9712 31.2973 25.5263 31.0088 25.7857 30.4311V33.4779C25.8458 33.4785 25.9059 33.4803 25.9696 33.4803C26.0856 33.4803 26.2022 33.4785 26.3182 33.4755V24.3214C26.3182 23.8353 26.417 23.4962 26.5985 23.3022C26.7817 23.1088 27.1149 23.0125 27.5807 23.0125C28.0561 23.0125 28.7522 22.9428 29.1128 23.3022C29.2978 23.4962 29.3841 23.8353 29.3841 24.3214V27.0178H28.1251V24.137H27.5807V33.3761C27.7628 33.3536 27.9437 33.3256 28.1251 33.2935V27.5616H29.3841V33.0037C29.6435 32.9299 29.8993 32.8466 30.151 32.7574V27.7758C30.151 27.2123 30.2866 26.7863 30.8614 26.593L30.2277 23.1267H31.5004L31.7128 26.9131H31.8692L32.0816 23.1267H33.4221L32.704 26.593C33.3055 26.8042 33.4221 27.1742 33.4221 27.7758V30.9933C33.7951 30.7131 34.1515 30.4126 34.4895 30.0925V23.0982H38.2145C38.2401 22.9316 38.2651 22.7632 38.2859 22.5936H29.5685L29.6917 23.2189C29.415 22.7138 28.892 22.4579 28.1251 22.4579H27.5807C26.6562 22.4579 26.0945 22.8262 25.8815 23.5587C25.684 22.7911 25.0991 22.4092 24.127 22.4092H21.7388V32.7407C21.922 32.8068 22.1071 32.8687 22.2921 32.9264V22.9524Z" fill="white"/>
<path d="M31.5015 32.1809C31.6948 32.084 31.8858 31.9828 32.0738 31.8775V27.6182H31.5015V32.1809Z" fill="white"/>
<path d="M173.489 0H166.423V42.1901H173.489V0Z" fill="#248341"/>
<path d="M159.359 0H154.648V42.1901H159.359V0Z" fill="#248341"/>
<path d="M185.272 0H180.561V42.1901H185.272V0Z" fill="#6AA744"/>
<path d="M199.404 0H194.693V42.1901H199.404V0Z" fill="#A6CE39"/>
<path d="M175.844 0H173.489V42.1901H175.844V0Z" fill="#A6CE39"/>
<path d="M164.067 0H161.712V42.1901H164.067V0Z" fill="#245F34"/>
<path d="M192.337 0H189.981V42.1901H192.337V0Z" fill="#FFCB05"/>
<path d="M206.469 0H204.113V42.1901H206.469V0Z" fill="#FFCB05"/>
</svg>
