<svg width="186" height="34" viewBox="0 0 186 34" fill="none" xmlns="http://www.w3.org/2000/svg">
<path fill-rule="evenodd" clip-rule="evenodd" d="M43.2226 18.0829C43.2178 17.8668 43.1972 17.6513 43.1612 17.4382V17.3724C42.6042 13.219 38.806 9.1226 35.464 7.56562C33.4684 6.3902 30.9992 5.93846 28.815 5.53935C26.9203 5.19725 25.1353 4.86831 23.9072 4.13587C23.7844 4.05692 23.6397 3.97359 23.4994 3.89903C23.359 3.82447 23.2406 3.74991 23.1266 3.67535C22.3584 3.11023 21.6513 2.4664 21.017 1.75435C20.6668 1.32998 20.372 0.862791 20.1398 0.364027L19.96 0V18.2847H21.9292V5.31567C22.2718 5.63508 22.6518 5.91193 23.0608 6.14021C24.1528 6.78055 26.0475 7.1358 28.0519 7.51298C30.1571 7.90771 32.3369 8.3156 34.0781 9.10067C38.3718 11.0436 41.0297 15.6137 41.2972 18.1619C41.2972 18.2671 41.2972 18.3724 41.2972 18.4733C41.3012 18.5522 41.3012 18.6312 41.2972 18.7101V21.4118H23.5344V30.5081H23.5827C24.1315 30.5092 24.6796 30.4711 25.223 30.394H25.3809V23.1617H43.3015V21.3109C43.3015 20.3197 43.3015 19.0873 43.2226 18.0829Z" fill="#CA2044"/>
<path fill-rule="evenodd" clip-rule="evenodd" d="M54.3848 25.8765V12.8066H63.3407V14.9338H56.6698V18.0916H59.6171C60.8276 18.0916 62.1302 18.0565 63.1521 18.9249C63.5815 19.3003 63.9251 19.7637 64.1597 20.2836C64.3943 20.8034 64.5143 21.3677 64.5117 21.938C64.5296 22.4804 64.4308 23.0204 64.222 23.5213C64.0131 24.0222 63.6991 24.4724 63.3012 24.8415C62.6784 25.3941 61.639 25.859 59.9767 25.859L54.3848 25.8765ZM56.6698 23.8634H59.9022C60.4931 23.878 61.0694 23.6786 61.525 23.302C61.7026 23.1428 61.844 22.9472 61.9393 22.7284C62.0347 22.5097 62.0818 22.2731 62.0776 22.0345C62.0814 21.7668 62.0292 21.5013 61.9242 21.255C61.8192 21.0088 61.6638 20.7872 61.4679 20.6047C60.9524 20.222 60.3133 20.0438 59.6741 20.1047H56.6698V23.8634Z" fill="#093D58"/>
<path fill-rule="evenodd" clip-rule="evenodd" d="M75.2179 25.8239L74.56 23.7801H69.297L68.6961 25.8239H66.3979L70.5645 12.8066H73.275L77.5731 25.8239H75.2179ZM72.1478 15.7364C72.0496 15.3406 71.9749 14.9393 71.9241 14.5347C71.8829 14.9253 71.82 15.3133 71.7355 15.6969L69.9417 21.7845H73.9592L72.1478 15.7364Z" fill="#093D58"/>
<path fill-rule="evenodd" clip-rule="evenodd" d="M79.8972 12.8066H82.1647V18.0828H87.954V12.8066H90.2215V25.8414H87.954V20.1003H82.1647V25.8414H79.8972V12.8066Z" fill="#093D58"/>
<path fill-rule="evenodd" clip-rule="evenodd" d="M110.085 12.7627H114.787C116.541 12.7627 117.563 13.3548 118.133 13.8723C118.541 14.2865 118.857 14.7815 119.062 15.3254C119.267 15.8693 119.355 16.45 119.322 17.0301C119.339 17.5846 119.246 18.1369 119.046 18.6544C118.846 19.1719 118.545 19.6442 118.16 20.0432C117.506 20.7537 116.318 21.0871 114.936 21.0871H112.37V25.8063H110.085V12.7627ZM114.673 19.0959C115.275 19.1298 115.866 18.9249 116.318 18.5257C116.525 18.3145 116.686 18.0622 116.79 17.7849C116.895 17.5077 116.94 17.2118 116.923 16.9161C116.938 16.6287 116.894 16.3413 116.793 16.0718C116.691 15.8024 116.536 15.5567 116.335 15.3504C115.885 14.9469 115.294 14.7359 114.69 14.7626H112.348V19.0783L114.673 19.0959Z" fill="#CA2044"/>
<path fill-rule="evenodd" clip-rule="evenodd" d="M131.378 14.3634C132.795 15.9686 133.041 17.9685 133.041 19.3018C133.041 20.6351 132.795 22.6351 131.378 24.2359C130.833 24.8068 130.177 25.2612 129.45 25.5717C128.724 25.8821 127.943 26.0422 127.153 26.0422C126.363 26.0422 125.581 25.8821 124.855 25.5717C124.129 25.2612 123.473 24.8068 122.927 24.2359C121.51 22.6351 121.269 20.6132 121.269 19.2975C121.269 17.9817 121.51 15.9642 122.927 14.359C123.474 13.7903 124.13 13.3379 124.856 13.0289C125.583 12.7198 126.364 12.5605 127.153 12.5605C127.942 12.5605 128.723 12.7198 129.449 13.0289C130.175 13.3379 130.831 13.7903 131.378 14.359V14.3634ZM124.558 15.9335C124.12 16.53 123.642 17.5519 123.642 19.3018C123.642 21.0518 124.12 22.0693 124.558 22.6702C124.864 23.0719 125.258 23.3976 125.71 23.6218C126.161 23.846 126.659 23.9627 127.164 23.9627C127.668 23.9627 128.166 23.846 128.618 23.6218C129.07 23.3976 129.464 23.0719 129.769 22.6702C130.207 22.0693 130.681 21.0518 130.681 19.3018C130.681 17.5519 130.199 16.53 129.769 15.9335C129.464 15.5318 129.07 15.2061 128.618 14.9819C128.166 14.7577 127.668 14.641 127.164 14.641C126.659 14.641 126.161 14.7577 125.71 14.9819C125.258 15.2061 124.864 15.5318 124.558 15.9335Z" fill="#CA2044"/>
<path fill-rule="evenodd" clip-rule="evenodd" d="M163.979 12.8369V21.8543L170.079 12.8369H172.334V25.8059H170.079V16.7316L163.979 25.8059H161.724V12.8369H163.979Z" fill="#CA2044"/>
<path fill-rule="evenodd" clip-rule="evenodd" d="M100.296 12.8115L103.09 12.8159L97.309 18.8816L103.559 25.8682H100.726L95.0678 19.8684V25.8682H92.8047V12.8159H95.0678V18.1754L100.296 12.8115Z" fill="#093D58"/>
<path fill-rule="evenodd" clip-rule="evenodd" d="M177.597 25.8069H174.891L178.377 20.8201C176.623 20.614 175.145 19.2368 175.145 16.9079C175.145 15.272 175.834 12.8203 179.531 12.8203H186V25.8069H183.75V21.0526H180.785L177.597 25.7937V25.8069ZM180.491 14.7808C179.614 14.7808 177.47 14.4299 177.47 16.8334C177.47 17.8027 177.82 19.1053 180.566 19.1053H183.737V14.7808H180.491Z" fill="#CA2044"/>
<path fill-rule="evenodd" clip-rule="evenodd" d="M143.857 21.929C143.74 22.1867 143.601 22.4334 143.44 22.6658C143.134 23.0675 142.74 23.3932 142.288 23.6174C141.835 23.8416 141.337 23.9583 140.833 23.9583C140.328 23.9583 139.83 23.8416 139.377 23.6174C138.925 23.3932 138.531 23.0675 138.225 22.6658C137.557 21.6733 137.225 20.4927 137.278 19.2974C137.215 18.1061 137.534 16.9258 138.19 15.9291C138.496 15.5273 138.89 15.2017 139.342 14.9775C139.795 14.7533 140.293 14.6366 140.797 14.6366C141.302 14.6366 141.8 14.7533 142.253 14.9775C142.705 15.2017 143.099 15.5273 143.405 15.9291C143.661 16.2902 143.865 16.6859 144.01 17.1045H146.436C146.201 16.0887 145.72 15.146 145.036 14.359C144.491 13.788 143.835 13.3337 143.108 13.0232C142.382 12.7128 141.6 12.5527 140.811 12.5527C140.021 12.5527 139.239 12.7128 138.513 13.0232C137.787 13.3337 137.131 13.788 136.585 14.359C135.168 15.9598 134.927 17.9641 134.927 19.2931C134.927 20.622 135.168 22.6263 136.585 24.2272C137.131 24.7981 137.787 25.2525 138.513 25.5629C139.239 25.8733 140.021 26.0334 140.811 26.0334C141.6 26.0334 142.382 25.8733 143.108 25.5629C143.835 25.2525 144.491 24.7981 145.036 24.2272C145.619 23.5588 146.053 22.7738 146.308 21.9246L143.857 21.929Z" fill="#CA2044"/>
<path fill-rule="evenodd" clip-rule="evenodd" d="M157.014 21.929C156.891 22.1876 156.744 22.4343 156.575 22.6658C156.27 23.0675 155.876 23.3932 155.424 23.6174C154.972 23.8416 154.474 23.9583 153.97 23.9583C153.465 23.9583 152.968 23.8416 152.516 23.6174C152.064 23.3932 151.67 23.0675 151.365 22.6658C150.926 22.0649 150.452 21.0474 150.452 19.2974C150.452 17.5475 150.935 16.53 151.365 15.9291C151.67 15.5274 152.064 15.2017 152.516 14.9775C152.968 14.7533 153.465 14.6366 153.97 14.6366C154.474 14.6366 154.972 14.7533 155.424 14.9775C155.876 15.2017 156.27 15.5274 156.575 15.9291C156.838 16.2875 157.045 16.6838 157.189 17.1045H159.619C159.384 16.0887 158.904 15.146 158.22 14.359C157.674 13.788 157.018 13.3337 156.292 13.0232C155.566 12.7128 154.784 12.5527 153.994 12.5527C153.204 12.5527 152.422 12.7128 151.696 13.0232C150.97 13.3337 150.314 13.788 149.768 14.359C148.352 15.9686 148.11 17.9817 148.11 19.2974C148.11 20.6132 148.352 22.6307 149.768 24.2315C150.314 24.8024 150.97 25.2568 151.696 25.5673C152.422 25.8777 153.204 26.0378 153.994 26.0378C154.784 26.0378 155.566 25.8777 156.292 25.5673C157.018 25.2568 157.674 24.8024 158.22 24.2315C158.803 23.5632 159.236 22.7782 159.492 21.929H157.014Z" fill="#CA2044"/>
<path fill-rule="evenodd" clip-rule="evenodd" d="M42.442 24.675H26.7275V26.5434H37.486C37.0688 26.9189 36.6294 27.2689 36.1702 27.5916C32.3457 30.0784 27.3195 31.4731 22.0039 31.5126V20.0874H40.021V18.0831H9.71908C9.76302 17.5408 9.84066 17.0017 9.95153 16.4691C9.991 16.2805 10.0305 16.0787 10.0656 15.9252C10.1718 15.4373 10.3185 14.959 10.5041 14.4954L10.7848 14.5875C11.1401 14.7104 11.5129 14.8332 11.8988 14.9516C12.8571 15.2479 13.8365 15.4708 14.8286 15.6182L15.0961 15.6533C15.9356 15.8166 16.7833 15.9337 17.6356 16.0042C18.3855 16.0656 19.1355 16.1051 19.9645 16.1358V13.9779C19.3066 13.9779 18.6092 13.9165 17.8329 13.8376C17.0225 13.7757 16.2159 13.6718 15.4163 13.5262C15.2225 13.5205 15.0299 13.494 14.8418 13.4472C13.8548 13.2816 12.8825 13.0382 11.9339 12.7192C11.8119 12.6937 11.6918 12.66 11.5743 12.6183L11.4559 12.5832C11.5655 12.3727 11.6883 12.1841 11.8199 11.9823L11.969 11.7499C12.7622 10.5993 13.7455 9.59226 14.8769 8.77189C16.3351 7.71793 18.0182 7.01681 19.7934 6.72369H19.9206H19.9776V4.53076H19.9294C19.8762 4.54521 19.8219 4.55548 19.7671 4.56146C19.7063 4.57243 19.6463 4.58708 19.5873 4.60532C17.9895 4.71719 16.4011 4.93698 14.833 5.2632C13.8403 5.48816 12.8644 5.78124 11.912 6.14037C11.2601 6.33702 10.6202 6.57133 9.99539 6.84211C9.46469 7.07895 8.88576 7.35964 8.16209 7.71929C7.18078 8.2466 6.24096 8.84773 5.35075 9.51749C4.0984 10.4704 2.99303 11.6024 2.07013 12.8771C1.42887 13.7812 0.916655 14.7702 0.548233 15.8156C0.186993 16.8611 0.00173288 17.9593 0 19.0655L0 19.105C0 22.6137 1.89908 25.9996 5.35514 28.6881L5.97793 29.1267C6.1753 29.2714 6.37705 29.4118 6.56564 29.5653C6.94282 29.8021 7.35509 30.0389 7.74982 30.267L8.16209 30.5038C8.66647 30.7714 9.2147 31.0126 9.741 31.2451L9.99539 31.3591C10.5524 31.6047 11.1445 31.8328 11.912 32.1003C12.8769 32.4249 13.8593 32.7012 14.833 32.9248C17.1374 33.4332 19.4906 33.6877 21.8504 33.6836C27.7274 33.6836 33.2273 32.1705 37.3325 29.4118C38.1247 28.9059 38.8703 28.3306 39.5605 27.6925C40.135 27.1574 41.7973 25.4996 42.3718 24.7891L42.4376 24.7101L42.442 24.675ZM7.9428 10.3333L8.21472 10.1578C8.75418 9.82889 9.34628 9.53503 9.92083 9.24557L10.0392 9.18416C10.5305 8.94294 11.0085 8.74558 11.5173 8.54383L11.9559 8.36839L12.105 8.32015L11.9032 8.5219C11.1833 9.23254 10.5408 10.0176 9.98661 10.8639C9.89012 10.9999 9.79802 11.1534 9.71469 11.3025C9.63136 11.4517 9.5568 11.5657 9.46908 11.6885C9.0273 11.4422 8.614 11.1481 8.23665 10.8113C8.098 10.673 7.96766 10.5265 7.84631 10.3727L7.95596 10.3069L7.9428 10.3333ZM2.59205 16.5086C2.88764 15.6553 3.30415 14.8488 3.82886 14.1139C4.30773 13.4596 4.84026 12.8464 5.42093 12.2806C5.53935 12.1578 5.65776 12.0481 5.77618 11.9429C5.8946 11.8376 5.97793 11.7587 6.07881 11.6578C6.65653 12.3592 7.36381 12.9429 8.16209 13.377L8.24981 13.4341C8.34708 13.5039 8.4481 13.5683 8.55243 13.627C8.39193 14.0223 8.25428 14.4265 8.14016 14.8375L8.09192 14.9954C7.99543 15.3288 7.89894 15.6709 7.82877 16.0086C7.70251 16.6904 7.6132 17.3785 7.56123 18.0699H2.19293C2.26672 17.5336 2.39456 17.006 2.5745 16.4954L2.59205 16.5086ZM6.7016 26.0829C6.56564 26.2627 6.42529 26.4425 6.26301 26.6443C5.97355 26.3899 5.67531 26.1311 5.41216 25.8636C3.56571 24.1224 2.48678 22.1663 2.19293 20.0874H7.54369C7.61889 21.1712 7.81304 22.2434 8.12262 23.2847C8.23039 23.7352 8.37713 24.1754 8.56121 24.6005C8.49542 24.6487 8.42963 24.6882 8.35946 24.732C8.28928 24.7759 8.21472 24.8198 8.14016 24.8724H8.10069C7.58173 25.2059 7.10592 25.6021 6.68406 26.0522L6.7016 26.0829ZM11.9646 29.8065C11.3135 29.5736 10.6777 29.2996 10.0612 28.9863L9.80241 28.8591C9.2761 28.596 8.73664 28.3197 8.2235 28.0171C8.16068 27.9862 8.10178 27.9479 8.04806 27.903C8.0963 27.846 8.14894 27.7715 8.20595 27.6925L8.32437 27.5171C8.62644 27.2084 8.96351 26.9361 9.32873 26.7057L9.44715 26.6355L9.5568 26.5741L9.77171 26.9162C9.84626 27.0346 9.92083 27.1618 9.99539 27.2715C10.5563 28.0994 11.1967 28.8706 11.9076 29.574C11.9956 29.6814 12.0893 29.7839 12.1883 29.8811C12.1156 29.851 12.0409 29.826 11.9646 29.8065ZM19.9952 31.3942H19.8855C19.5215 31.324 19.1487 31.2494 18.7715 31.153C17.9232 30.9415 17.1042 30.6262 16.333 30.2144C15.8321 29.961 15.3525 29.6676 14.8988 29.3372C13.7537 28.5453 12.7673 27.5456 11.991 26.3899C11.798 26.118 11.6532 25.8943 11.5173 25.6619C11.5962 25.6224 11.6796 25.5961 11.7717 25.561L11.9646 25.4952C12.8111 25.2189 13.8199 24.9513 14.8769 24.7189C16.5582 24.3923 18.2619 24.1929 19.9732 24.1224V31.3942H19.9952ZM19.9952 21.947C18.271 22.0061 16.5539 22.1982 14.8593 22.5216C13.8644 22.7086 12.8804 22.9502 11.912 23.2452C11.4509 23.3785 10.9984 23.5396 10.5568 23.7277C10.3901 23.2891 10.2585 22.8505 10.1182 22.3725L10.0875 22.1707C9.93368 21.4832 9.81801 20.7877 9.741 20.0874H19.9732L19.9952 21.947Z" fill="#093D58"/>
</svg>
