<svg width="212" height="33" viewBox="0 0 212 33" fill="none" xmlns="http://www.w3.org/2000/svg">
<path d="M94.7914 10.0097L99.2107 6.74756H84.4155V26.2884H99.2107V23.0263H88.6427V18.0371H97.6735V14.775H88.6427V10.0097H94.7914Z" fill="#21A038"/>
<path d="M73.2392 14.3592H68.1154V10.0097H76.3136L80.7329 6.74756H63.8882V26.2884H72.6948C77.6266 26.2884 80.4767 24.0497 80.4767 20.1479C80.4767 16.406 77.9148 14.3592 73.2392 14.3592ZM72.5347 23.0263H68.1154V17.6213H72.5347C75.2247 17.6213 76.4737 18.5168 76.4737 20.3398C76.4737 22.1627 75.1287 23.0263 72.5347 23.0263Z" fill="#21A038"/>
<path d="M111.188 6.74756H103.15V26.2884H107.377V20.7556H111.22C116.344 20.7556 119.546 18.0691 119.546 13.7516C119.546 9.43402 116.344 6.74756 111.188 6.74756ZM111.092 17.4934H107.345V10.0097H111.092C113.814 10.0097 115.287 11.3529 115.287 13.7516C115.287 16.1502 113.814 17.4934 111.092 17.4934Z" fill="#21A038"/>
<path d="M56.6506 22.0673C55.5298 22.6749 54.2808 22.9948 52.9999 22.9948C49.189 22.9948 46.4349 20.2763 46.4349 16.5344C46.4349 12.7926 49.189 10.0741 52.9999 10.0741C54.3769 10.0422 55.7219 10.4899 56.8428 11.2894L59.885 9.05073L59.6929 8.85884C57.9316 7.29173 55.5618 6.49219 52.8718 6.49219C49.9576 6.49219 47.2995 7.48362 45.3781 9.2746C43.4566 11.1295 42.3678 13.7201 42.4319 16.4065C42.3999 19.125 43.4566 21.7475 45.3781 23.6664C47.3956 25.5533 50.0857 26.6087 52.8397 26.5447C55.882 26.5447 58.54 25.4893 60.3334 23.5704L57.6113 21.5556L56.6506 22.0673Z" fill="#21A038"/>
<path d="M170.368 6.77954V26.3204H174.596V18.3249H183.594V26.3204H187.822V6.77954H183.594V14.807H174.596V6.77954H170.368ZM163.099 26.3204H167.55L159.288 6.77954H154.997L146.574 26.3204H150.834L152.531 22.3866H161.498L163.099 26.3204ZM153.812 19.1245L157.078 11.289L160.153 19.1245H153.812ZM197.301 18.4209H199.927L206.396 26.2884H211.84L203.193 16.1822L210.751 6.74756H205.915L199.639 15.1268H197.301V6.74756H193.074V26.2884H197.301V18.4209ZM132.612 14.3912V10.0417H143.66V6.77954H128.385V26.3204H137.191C142.123 26.3204 144.973 24.0817 144.973 20.1799C144.973 16.438 142.411 14.3912 137.736 14.3912H132.612ZM132.612 23.0582V17.6533H137.031C139.721 17.6533 140.97 18.5488 140.97 20.3718C140.97 22.1947 139.657 23.0902 137.031 23.0902H132.612V23.0582Z" fill="#21A038"/>
<path d="M29.206 6.62012C29.9746 7.61155 30.6151 8.69893 31.1595 9.85027L16.3643 20.756L10.1516 16.8543V12.1849L16.3323 16.0547L29.206 6.62012Z" fill="#21A038"/>
<path d="M3.84277 16.5342C3.84277 16.3103 3.84277 16.1184 3.8748 15.8945L0.127971 15.7026C0.127971 15.9585 0.0959473 16.2463 0.0959473 16.5022C0.0959473 20.9796 1.92133 25.0413 4.86755 27.9836L7.52555 25.3291C5.25184 23.0904 3.84277 19.9882 3.84277 16.5342Z" fill="url(#paint0_linear)"/>
<path d="M16.3323 4.06169C16.5565 4.06169 16.7486 4.06169 16.9728 4.09367L17.165 0.351806C16.9088 0.351806 16.6205 0.319824 16.3644 0.319824C11.881 0.319824 7.8139 2.14278 4.86768 5.0851L7.52568 7.73958C9.76737 5.46888 12.9057 4.06169 16.3323 4.06169Z" fill="url(#paint1_linear)"/>
<path d="M16.3321 29.0075C16.108 29.0075 15.9158 29.0075 15.6917 28.9755L15.4995 32.7174C15.7557 32.7174 16.0439 32.7494 16.3001 32.7494C20.7835 32.7494 24.8506 30.9264 27.7968 27.9841L25.1388 25.3296C22.8971 27.6323 19.7907 29.0075 16.3321 29.0075Z" fill="url(#paint2_linear)"/>
<path d="M23.3776 6.2362L26.548 3.90153C23.7619 1.66281 20.2072 0.287598 16.3323 0.287598V4.02946C18.9583 4.06144 21.3921 4.86098 23.3776 6.2362Z" fill="url(#paint3_linear)"/>
<path d="M32.6006 16.5344C32.6006 15.5429 32.5045 14.5835 32.3444 13.624L28.8538 16.2145C28.8538 16.3105 28.8538 16.4384 28.8538 16.5344C28.8538 20.2123 27.2526 23.5064 24.7227 25.7771L27.2526 28.5595C30.519 25.6172 32.6006 21.2996 32.6006 16.5344Z" fill="#21A038"/>
<path d="M16.3323 29.0075C12.6496 29.0075 9.35108 27.4084 7.07736 24.8818L4.29126 27.4084C7.26951 30.7025 11.5607 32.7493 16.3323 32.7493V29.0075Z" fill="url(#paint4_linear)"/>
<path d="M7.97389 7.2912L5.44398 4.50879C2.14549 7.48309 0.0959473 11.7686 0.0959473 16.5339H3.84277C3.84277 12.888 5.44398 9.5619 7.97389 7.2912Z" fill="url(#paint5_linear)"/>
<defs>
<linearGradient id="paint0_linear" x1="4.47997" y1="27.5284" x2="0.654051" y2="16.49" gradientUnits="userSpaceOnUse">
<stop offset="0.1444" stop-color="#F2E913"/>
<stop offset="0.3037" stop-color="#E7E518"/>
<stop offset="0.5823" stop-color="#CADB26"/>
<stop offset="0.891" stop-color="#A3CD39"/>
</linearGradient>
<linearGradient id="paint1_linear" x1="5.93571" y1="4.65127" x2="15.6534" y2="0.954998" gradientUnits="userSpaceOnUse">
<stop offset="0.0592" stop-color="#0FA8E0"/>
<stop offset="0.5385" stop-color="#0099F9"/>
<stop offset="0.9234" stop-color="#0291EB"/>
</linearGradient>
<linearGradient id="paint2_linear" x1="15.2795" y1="29.5574" x2="26.861" y2="26.9448" gradientUnits="userSpaceOnUse">
<stop offset="0.1226" stop-color="#A3CD39"/>
<stop offset="0.2846" stop-color="#86C339"/>
<stop offset="0.8693" stop-color="#21A038"/>
</linearGradient>
<linearGradient id="paint3_linear" x1="15.5624" y1="2.68171" x2="25.1941" y2="5.64792" gradientUnits="userSpaceOnUse">
<stop offset="0.0566" stop-color="#0291EB"/>
<stop offset="0.79" stop-color="#0C8ACB"/>
</linearGradient>
<linearGradient id="paint4_linear" x1="5.24395" y1="28.0162" x2="15.5866" y2="31.8733" gradientUnits="userSpaceOnUse">
<stop offset="0.1324" stop-color="#F2E913"/>
<stop offset="0.2977" stop-color="#EBE716"/>
<stop offset="0.5306" stop-color="#D9E01F"/>
<stop offset="0.8023" stop-color="#BBD62D"/>
<stop offset="0.9829" stop-color="#A3CD39"/>
</linearGradient>
<linearGradient id="paint5_linear" x1="2.94693" y1="16.9859" x2="7.08406" y2="6.24391" gradientUnits="userSpaceOnUse">
<stop offset="0.0698" stop-color="#A3CD39"/>
<stop offset="0.2599" stop-color="#81C55F"/>
<stop offset="0.9216" stop-color="#0FA8E0"/>
</linearGradient>
</defs>
</svg>
