<svg width="184" height="47" viewBox="0 0 184 47" fill="none" xmlns="http://www.w3.org/2000/svg">
<path d="M47.9593 21.4686C48.7206 22.306 49.6341 22.915 50.776 23.3718C51.9179 23.8285 53.2121 24.0569 54.8108 24.0569C55.572 24.0569 56.3333 23.9808 56.9423 23.9047C57.6275 23.8285 58.1604 23.6763 58.6933 23.4479C59.2261 23.2956 59.6829 23.0673 60.1397 22.915C60.5203 22.6866 60.9009 22.5344 61.2055 22.3821L60.6726 21.2402C60.3681 21.3925 60.0635 21.5447 59.759 21.697C59.4545 21.8492 59.15 21.9254 58.7694 22.0776C58.3887 22.1537 58.0081 22.306 57.5513 22.306C57.0946 22.3821 56.5617 22.3821 55.9527 22.3821C54.8108 22.3821 53.8211 22.1537 53.136 21.697C52.3747 21.2402 51.8418 20.6312 51.385 19.946C51.0044 19.1848 50.6999 18.2712 50.5476 17.2816C50.3954 16.2158 50.3192 15.15 50.3192 13.932C50.3192 13.0185 50.3954 12.0288 50.4715 11.0391C50.5476 10.0495 50.776 9.21208 51.1566 8.45081C51.5373 7.68954 51.994 7.08052 52.6792 6.54763C53.3643 6.09086 54.2779 5.78635 55.4198 5.78635C56.4856 5.78635 57.3991 6.09086 58.1604 6.62375C58.9216 7.15665 59.3784 8.07017 59.6068 9.21208H60.8248V5.48184C60.4442 5.32959 60.0635 5.17733 59.6068 5.02508C59.15 4.87282 58.6932 4.7967 58.1604 4.72057C57.6275 4.64444 57.1707 4.64444 56.6378 4.56831C56.181 4.56831 55.7243 4.49219 55.3436 4.49219C53.6688 4.49219 52.2986 4.72057 51.0805 5.17733C49.9386 5.6341 48.9489 6.31924 48.1877 7.15665C47.4264 7.99405 46.8935 9.05983 46.5129 10.2779C46.1322 11.4959 45.98 12.9423 45.98 14.4649C45.98 15.9113 46.1322 17.2816 46.5129 18.4235C46.7413 19.7177 47.2741 20.7073 47.9593 21.4686Z" fill="#1A9F29"/>
<path d="M122.411 23.4471C123.325 23.371 124.238 23.0665 124.923 22.6858C125.685 22.2291 126.294 21.62 126.674 20.7826C127.131 19.9452 127.36 18.8033 127.36 17.3569C127.36 16.2911 127.207 15.4537 126.903 14.6925C126.598 13.9312 126.142 13.3983 125.456 12.8654C124.771 12.4086 123.934 12.1041 122.868 11.8757C121.802 11.6474 120.508 11.5712 118.986 11.5712H117.387V7.07972C117.387 6.62296 117.463 6.31845 117.691 6.16619C117.92 6.01394 118.3 6.01394 118.909 6.01394H121.193C121.878 6.01394 122.487 6.01394 122.944 6.09006C123.401 6.16619 123.782 6.24232 124.01 6.4707C124.314 6.69908 124.543 7.00359 124.695 7.38423C124.847 7.76487 125.076 8.29776 125.228 8.9829H126.218V4.7959H113.276H112.21V5.40492C112.286 5.40492 112.362 5.48104 112.591 5.48104C112.819 5.55717 112.971 5.6333 113.048 5.70943C113.124 5.78555 113.2 5.93781 113.276 6.16619C113.276 6.39457 113.352 6.62296 113.352 6.92747V10.7338V17.6614V21.4678C113.352 21.7723 113.352 22.0768 113.276 22.2291C113.276 22.4575 113.2 22.6097 113.048 22.6858C112.971 22.762 112.819 22.9142 112.591 22.9142C112.362 22.9903 112.286 22.9903 112.21 22.9903V23.5994H119.29C120.432 23.5994 121.422 23.5994 122.411 23.4471ZM117.768 22.0768C117.615 21.9246 117.539 21.7723 117.539 21.5439C117.539 21.3155 117.463 21.011 117.463 20.6304V12.7131H119.062C120.508 12.7131 121.574 13.0938 122.183 13.8551C122.792 14.6163 123.096 15.8344 123.096 17.5092C123.096 18.6511 123.02 19.4885 122.792 20.1736C122.564 20.8588 122.335 21.3155 121.955 21.6962C121.574 22.0007 121.193 22.2291 120.813 22.3813C120.356 22.4574 119.899 22.5336 119.442 22.5336C118.986 22.4575 118.605 22.4574 118.377 22.3813C118.148 22.3052 117.92 22.2291 117.768 22.0768Z" fill="#1A9F29"/>
<path d="M102.39 22.9903C102.314 22.9903 102.237 22.9142 102.009 22.9142C101.781 22.8381 101.628 22.762 101.552 22.6858C101.476 22.6097 101.4 22.4575 101.324 22.2291C101.324 22.0007 101.248 21.7723 101.248 21.4678V16.215H103.151C104.141 16.215 105.054 16.1389 105.968 15.9866C106.881 15.8344 107.643 15.5299 108.328 15.1492C109.013 14.6925 109.546 14.1596 109.926 13.3222C110.307 12.5609 110.535 11.4951 110.535 10.2009C110.535 8.9829 110.307 7.99325 110.002 7.3081C109.622 6.62296 109.089 6.01394 108.48 5.6333C107.871 5.25266 107.11 5.02428 106.272 4.94815C105.435 4.87203 104.597 4.7959 103.684 4.7959H97.2892H96.2234V5.40492C96.2995 5.40492 96.3756 5.48104 96.604 5.48104C96.8324 5.55717 96.9847 5.6333 97.0608 5.70943C97.1369 5.78555 97.2131 5.93781 97.2892 6.16619C97.2892 6.39457 97.3653 6.62296 97.3653 6.92746V21.3917C97.3653 21.6962 97.3653 22.0007 97.2892 22.1529C97.2892 22.3813 97.213 22.5336 97.0608 22.6097C96.9847 22.6858 96.8324 22.8381 96.604 22.8381C96.3756 22.9142 96.2995 22.9142 96.2234 22.9142V23.5232H102.39V22.9903ZM101.324 6.92746C101.324 6.77521 101.324 6.62296 101.4 6.4707C101.4 6.31845 101.476 6.24232 101.552 6.16619C101.628 6.09006 101.781 6.01394 102.009 6.01394C102.237 6.01394 102.466 5.93781 102.846 5.93781C103.303 5.93781 103.76 6.01394 104.217 6.09006C104.674 6.24232 104.978 6.4707 105.359 6.77521C105.663 7.07972 105.892 7.53648 106.12 8.06938C106.272 8.60227 106.348 9.28741 106.348 10.0487C106.348 11.6474 106.12 12.8654 105.663 13.7028C105.206 14.5402 104.369 14.997 103.227 14.997H101.324V6.92746Z" fill="#1A9F29"/>
<path d="M93.7108 19.2601H92.4928C92.3405 20.0214 92.1883 20.5543 92.036 21.011C91.8838 21.4678 91.7315 21.7723 91.427 22.0007C91.1986 22.2291 90.818 22.3813 90.3612 22.3813C89.9045 22.4574 89.2954 22.4574 88.458 22.4574C87.6968 22.4574 87.0877 22.4574 86.7071 22.3813C86.2503 22.3052 85.9458 22.2291 85.7175 22.0768C85.4891 21.9246 85.3368 21.6962 85.3368 21.4678C85.2607 21.1633 85.2607 20.8588 85.2607 20.402V14.4641H87.7729C88.0013 14.4641 88.2297 14.4641 88.5342 14.4641C88.8387 14.4641 89.1432 14.5402 89.4477 14.5402C89.7522 14.5402 90.0567 14.6163 90.3612 14.6925C90.6657 14.7686 90.8941 14.8447 91.1225 14.997V12.5609C90.8941 12.7131 90.6657 12.7893 90.3612 12.8654C90.0567 12.9415 89.7522 13.0177 89.4477 13.0177C89.1432 13.0938 88.8387 13.0938 88.5342 13.0938C88.2297 13.0938 88.0013 13.0938 87.7729 13.0938H85.2607V6.85134C85.2607 6.4707 85.3368 6.16619 85.4129 6.01394C85.5652 5.86168 85.7936 5.86168 86.1742 5.86168H88.2297C88.9148 5.86168 89.5238 5.86168 89.9806 5.93781C90.4374 6.01394 90.818 6.09006 91.0464 6.31845C91.3509 6.54683 91.5793 6.85134 91.7315 7.23197C91.8838 7.61261 92.1122 8.1455 92.2644 8.83065H93.2541V4.7959H81.2259H80.1602V5.40492C80.2363 5.40492 80.3124 5.48104 80.5408 5.48104C80.7692 5.55717 80.9214 5.6333 80.9976 5.70943C81.0737 5.78555 81.1498 5.93781 81.2259 6.16619C81.2259 6.39457 81.3021 6.62296 81.3021 6.92746V21.3917C81.3021 21.6962 81.3021 22.0007 81.2259 22.1529C81.2259 22.3813 81.1498 22.5336 80.9976 22.6097C80.9214 22.6858 80.7692 22.8381 80.5408 22.8381C80.3124 22.9142 80.2363 22.9142 80.1602 22.9142V23.5232H93.7108V19.2601Z" fill="#1A9F29"/>
<path d="M73.0041 23.4471C73.9176 23.371 74.8311 23.0665 75.5163 22.6858C76.2776 22.2291 76.8866 21.62 77.3434 20.7826C77.8001 19.9452 78.0285 18.8033 78.0285 17.3569C78.0285 16.2911 77.8762 15.4537 77.5717 14.6925C77.2672 13.9312 76.8105 13.3983 76.1253 12.8654C75.4402 12.4086 74.6028 12.1041 73.537 11.8757C72.4712 11.6474 71.177 11.5712 69.6545 11.5712H68.0558V7.07972C68.0558 6.62296 68.1319 6.31845 68.3603 6.16619C68.5887 6.01394 68.9693 6.01394 69.5784 6.01394H71.8622C72.5473 6.01394 73.1563 6.01394 73.6131 6.09006C74.0699 6.16619 74.4505 6.24232 74.6789 6.4707C74.9834 6.69908 75.2118 7.00359 75.364 7.38423C75.5163 7.76487 75.7447 8.29776 75.8969 8.9829H76.8866V4.7959H63.9449H62.8792V5.40492C62.9553 5.40492 63.0314 5.48104 63.2598 5.48104C63.4882 5.55717 63.6404 5.6333 63.7166 5.70943C63.7927 5.78555 63.8688 5.93781 63.9449 6.16619C63.9449 6.39457 64.0211 6.62296 64.0211 6.92747V7.3081V10.6577V17.5092V20.3259C64.0211 20.3259 64.0211 20.3259 64.0211 20.402V21.3917C64.0211 21.6962 64.0211 21.9246 63.9449 22.1529C63.9449 22.3813 63.8688 22.5336 63.7166 22.6097C63.6404 22.6858 63.4882 22.8381 63.2598 22.8381C63.0314 22.9142 62.9553 22.9142 62.8792 22.9142V23.5994H69.959C71.1009 23.5994 72.0144 23.5994 73.0041 23.4471ZM68.3603 22.0768C68.2081 21.9246 68.1319 21.7723 68.1319 21.5439C68.1319 21.3155 68.0558 21.011 68.0558 20.6304V12.7131H69.6545C71.1009 12.7131 72.1667 13.0938 72.7757 13.8551C73.3847 14.6163 73.6892 15.8344 73.6892 17.5092C73.6892 18.6511 73.6131 19.4885 73.3847 20.1736C73.1563 20.8588 72.928 21.3155 72.5473 21.6962C72.1667 22.0007 71.7861 22.2291 71.4054 22.3813C70.9486 22.4574 70.4919 22.5336 70.0351 22.5336C69.5784 22.4575 69.2738 22.4574 68.9693 22.3813C68.741 22.3052 68.5126 22.2291 68.3603 22.0768Z" fill="#1A9F29"/>
<path d="M183.846 28.9263H45.8274V30.7533H183.846V28.9263Z" fill="#1A9F29"/>
<path d="M172.809 16.5201C173.19 17.053 173.495 17.5097 173.875 17.9665C174.18 18.4233 174.56 18.88 174.865 19.3368C175.169 19.7936 175.474 20.2503 175.854 20.7071C176.235 21.24 176.54 21.6968 176.844 22.2296C177.149 22.6864 177.377 23.2193 177.605 23.6761L184 23.7522C183.315 23.067 182.706 22.3819 182.021 21.6968C181.412 21.0116 180.879 20.4026 180.498 20.022C179.889 19.3368 179.356 18.7278 178.9 18.1949C178.367 17.5859 177.91 17.053 177.453 16.5201C176.996 15.9872 176.54 15.3782 176.159 14.8453C175.778 14.3124 175.322 13.6273 174.941 13.0182L175.245 12.6376C175.702 12.0286 176.235 11.4196 176.844 10.6583C177.453 9.89701 178.062 9.13574 178.747 8.45059C179.432 7.68932 180.041 7.00417 180.727 6.39515C181.412 5.78613 181.945 5.32937 182.478 4.94873H178.062C177.91 5.32937 177.682 5.78613 177.377 6.31902C177.073 6.85192 176.768 7.46093 176.311 8.06995C175.931 8.67897 175.474 9.36412 175.093 10.0493C174.636 10.7344 174.256 11.3434 173.799 11.9524C173.342 12.5615 172.962 13.1705 172.581 13.6273C172.2 14.1601 171.896 14.5408 171.667 14.9214C172.048 15.4543 172.429 15.9872 172.809 16.5201Z" fill="#1A9F29"/>
<path d="M172.275 22.9903C172.199 22.9903 172.122 22.9142 171.894 22.9142C171.666 22.8381 171.513 22.762 171.437 22.6858C171.361 22.6097 171.285 22.4575 171.209 22.2291C171.209 22.0007 171.133 21.7723 171.133 21.4678V7.00359C171.133 6.69908 171.133 6.39457 171.209 6.24232C171.209 6.01394 171.285 5.86168 171.437 5.78555C171.513 5.70943 171.666 5.6333 171.894 5.55717C172.122 5.48104 172.199 5.48104 172.275 5.48104V4.7959H167.174H166.108V5.40492C166.185 5.40492 166.261 5.48104 166.489 5.48104C166.717 5.55717 166.87 5.6333 166.946 5.70943C167.022 5.78555 167.098 5.93781 167.174 6.16619C167.174 6.39457 167.25 6.62296 167.25 6.92746V21.3917C167.25 21.6962 167.25 22.0007 167.174 22.1529C167.174 22.3813 167.098 22.5336 166.946 22.6097C166.87 22.6858 166.717 22.8381 166.489 22.8381C166.261 22.9142 166.185 22.9142 166.108 22.9142V23.5232H172.275V22.9903Z" fill="#1A9F29"/>
<path d="M131.318 21.3141C131.547 20.2483 132.003 18.7258 132.612 16.8226H138.627L139.464 19.2587C139.845 20.3245 140.149 21.238 140.301 21.9993C140.53 22.7605 140.682 23.2934 140.682 23.6741H145.478C145.25 23.2934 145.021 22.7605 144.717 22.1515C144.412 21.5425 144.032 20.629 143.651 19.4871L139.312 7.15443C139.083 6.62153 139.007 6.16477 138.931 5.78413C138.855 5.4035 138.855 5.09899 138.779 4.87061H133.374V5.47962C133.45 5.47962 133.526 5.55575 133.754 5.55575C133.983 5.63188 134.135 5.70801 134.211 5.78413C134.287 5.86026 134.363 6.01252 134.44 6.2409C134.44 6.39315 134.44 6.46928 134.44 6.62153C134.44 7.0783 134.363 7.53506 134.211 7.83957L131.166 15.3001C130.633 16.6704 130.1 17.8884 129.72 18.8019C129.339 19.7154 128.958 20.5528 128.73 21.1619C128.425 21.7709 128.197 22.3038 127.969 22.6844C127.74 23.065 127.588 23.3696 127.436 23.6741H130.862C130.938 23.1412 131.09 22.3799 131.318 21.3141ZM135.658 7.9157L138.17 15.5284H132.993L135.658 7.9157Z" fill="#1A9F29"/>
<path d="M152.711 22.9903H152.559C152.483 22.9903 152.407 22.9142 152.178 22.9142C151.95 22.8381 151.798 22.762 151.722 22.6858C151.645 22.6097 151.569 22.4575 151.493 22.2291C151.493 22.0007 151.417 21.7723 151.417 21.4678V14.2357H158.725V21.3917C158.725 21.6962 158.725 22.0007 158.649 22.1529C158.649 22.3813 158.573 22.5336 158.421 22.6097C158.345 22.6858 158.192 22.8381 157.964 22.8381C157.736 22.9142 157.66 22.9142 157.583 22.9142V23.5232H163.75V22.9142C163.674 22.9142 163.597 22.8381 163.369 22.8381C163.141 22.762 162.988 22.6858 162.912 22.6097C162.836 22.5336 162.76 22.3813 162.684 22.1529C162.684 21.9246 162.608 21.6962 162.608 21.3917V17.6614V17.5092V10.6577V10.5816V6.85134C162.608 6.54683 162.608 6.24232 162.684 6.09006C162.684 5.86168 162.76 5.70943 162.912 5.6333C162.988 5.55717 163.141 5.48104 163.369 5.40492C163.597 5.32879 163.674 5.32879 163.75 5.32879V4.7959H158.649H157.736V5.40492C157.812 5.40492 157.888 5.48104 158.116 5.48104C158.345 5.55717 158.497 5.6333 158.573 5.70943C158.649 5.78555 158.725 5.93781 158.801 6.16619C158.801 6.39457 158.878 6.62296 158.878 6.92747V12.9415H151.569V6.92747C151.569 6.62296 151.569 6.31845 151.645 6.16619C151.645 5.93781 151.722 5.78555 151.874 5.70943C151.95 5.6333 152.102 5.55717 152.331 5.48104C152.559 5.40492 152.635 5.40492 152.711 5.40492V4.7959H147.611H146.545V5.40492C146.621 5.40492 146.697 5.48104 146.926 5.48104C147.154 5.55717 147.306 5.6333 147.382 5.70943C147.458 5.78555 147.535 5.93781 147.611 6.16619C147.611 6.39457 147.687 6.62296 147.687 6.92747V7.38423V20.402V20.4781V21.4678C147.687 21.7723 147.687 22.0007 147.611 22.2291C147.611 22.4575 147.535 22.6097 147.382 22.6858C147.306 22.762 147.154 22.9142 146.926 22.9142C146.697 22.9903 146.621 22.9903 146.545 22.9903V23.5994H152.711V22.9903Z" fill="#1A9F29"/>
<path d="M33.2686 6.77641C32.888 6.24352 32.5073 5.71063 32.1267 5.17773L11.0394 17.282L0.838356 11.4202C0.609974 12.1053 0.457719 12.7143 0.381592 13.3995L11.1156 19.5658L33.2686 6.77641Z" fill="#1A9F29"/>
<path d="M11.0385 21.8472L0.0761274 15.5286C-5.67193e-09 15.9093 0 16.366 0 16.7467C0 26.7193 8.0695 34.865 18.1183 34.865C28.091 34.865 36.2366 26.7955 36.2366 16.7467C36.2366 13.7777 35.5515 10.961 34.2573 8.5249L11.0385 21.8472Z" fill="#1A9F29"/>
<path d="M30.6777 3.65447C30.1448 3.12158 29.612 2.74094 29.0791 2.28418L11.0369 12.7136L2.35835 7.76535C2.05384 8.29824 1.74933 8.90726 1.44482 9.51628L10.9607 14.9975L30.6777 3.65447Z" fill="#1A9F29"/>
<path d="M27.2551 1.06578C26.57 0.685146 25.8848 0.30451 25.1235 0L11.04 8.14563L4.72141 4.56764C4.26465 5.02441 3.88401 5.5573 3.42725 6.09019L10.9639 10.4295L27.2551 1.06578Z" fill="#1A9F29"/>
<path d="M123.098 44.5337L124.544 37.0732H126.904C128.274 37.0732 128.883 37.7584 128.883 38.8242C128.883 39.8138 128.274 40.3467 127.132 40.7274C127.894 41.0319 128.35 41.5648 128.35 42.326C128.35 43.6963 127.437 44.4576 125.61 44.4576H123.098V44.5337ZM124.011 43.8486H125.762C126.904 43.8486 127.589 43.2396 127.589 42.326C127.589 41.6409 126.98 40.9557 125.838 40.9557H124.468L124.011 43.8486ZM124.696 40.3467H126.219C127.513 40.3467 128.198 39.7377 128.198 38.8242C128.198 38.0629 127.741 37.6823 126.828 37.6823H125.305L124.696 40.3467Z" fill="#1A9F29"/>
<path d="M133.526 43.1612C133.07 43.9986 132.537 44.6076 131.471 44.6076C130.253 44.6076 129.416 43.618 129.416 42.2477C129.416 40.5729 130.481 39.1265 131.928 39.1265C132.994 39.1265 133.526 39.7355 133.831 40.649L133.146 40.8013C132.917 40.1161 132.537 39.7355 131.928 39.7355C130.938 39.7355 130.101 40.8013 130.101 42.3238C130.101 43.3896 130.634 43.9225 131.547 43.9225C132.384 43.9225 132.689 43.4657 132.994 42.9328L133.526 43.1612Z" fill="#1A9F29"/>
<path d="M135.124 41.9432C135.124 42.0954 135.124 42.2477 135.124 42.3238C135.124 43.3896 135.657 43.9986 136.494 43.9986C137.255 43.9986 137.712 43.4657 138.169 42.7806L138.778 43.0851C138.169 43.9986 137.56 44.6076 136.418 44.6076C135.2 44.6076 134.438 43.6941 134.438 42.3238C134.438 40.4968 135.504 39.1265 137.027 39.1265C138.245 39.1265 138.93 39.8877 138.93 41.258C138.93 41.4864 138.854 41.7148 138.854 41.9432H135.124ZM138.245 41.3342C138.321 41.1819 138.245 41.1058 138.245 41.0296C138.245 40.4206 137.864 39.8116 137.027 39.8116C136.037 39.8116 135.58 40.4206 135.276 41.4103H138.245V41.3342Z" fill="#1A9F29"/>
<path d="M140.684 39.2812H143.653L143.577 39.8903H141.293L140.379 44.534H139.694L140.684 39.2812Z" fill="#1A9F29"/>
<path d="M143.04 43.925L145.248 39.2812H146.313L146.922 43.925H147.455L147.151 45.5237H146.618L146.694 44.534H143.116L142.811 45.5237H142.279L142.583 43.925H143.04ZM146.161 43.925L145.78 39.9664H145.628L143.801 43.925H146.161Z" fill="#1A9F29"/>
<path d="M151.796 41.4108C151.796 41.1824 151.872 40.9541 151.872 40.8018C151.872 40.1928 151.415 39.8121 150.73 39.8121C150.273 39.8121 149.892 40.0405 149.588 40.4212L149.131 39.9644C149.588 39.5838 150.121 39.2031 150.882 39.2031C151.948 39.2031 152.633 39.8883 152.633 40.7257C152.633 40.8779 152.557 41.1824 152.557 41.5631L152.176 43.314C152.024 43.923 152.024 44.3037 152.024 44.6082H151.339C151.263 44.4559 151.263 44.2275 151.263 43.9991C150.806 44.3798 150.349 44.6843 149.74 44.6843C148.903 44.6843 148.218 43.9992 148.218 43.1617C148.218 42.096 149.207 41.4108 151.034 41.4108H151.796ZM151.643 41.9437H151.11C149.664 41.9437 148.903 42.3243 148.903 43.0856C148.903 43.6185 149.283 43.9991 149.816 43.9991C150.349 43.9991 150.806 43.6946 151.339 43.314L151.643 41.9437Z" fill="#1A9F29"/>
<path d="M158.113 39.8877C158.57 39.431 159.027 39.1265 159.636 39.1265C160.778 39.1265 161.387 39.8877 161.387 41.3342C161.387 43.2373 160.245 44.6076 158.874 44.6076C158.189 44.6076 157.732 44.3031 157.352 43.9225L156.819 46.5869H156.134L157.58 39.2026H158.189L158.113 39.8877ZM157.504 43.2373C157.809 43.6941 158.189 43.9986 158.874 43.9986C159.864 43.9986 160.778 42.8567 160.778 41.258C160.778 40.2684 160.321 39.7355 159.56 39.7355C159.027 39.7355 158.494 39.9639 158.113 40.649L157.504 43.2373Z" fill="#1A9F29"/>
<path d="M164.358 42.098L162.683 44.534H161.922L163.673 42.098C162.988 41.8696 162.607 41.3367 162.607 40.7277C162.607 40.0425 163.216 39.2812 164.434 39.2812H166.946L165.88 44.534H165.195L165.652 42.098H164.358ZM166.033 39.8141H164.358C163.597 39.8141 163.216 40.2709 163.216 40.6515C163.216 41.1844 163.521 41.4128 164.13 41.4128H165.652L166.033 39.8141Z" fill="#1A9F29"/>
<path d="M167.63 43.925L169.838 39.2812H170.903L171.512 43.925H172.045L171.741 45.5237H171.208L171.284 44.534H167.706L167.402 45.5237H166.869L167.173 43.925H167.63ZM170.675 43.925L170.294 39.9664H170.142L168.315 43.925H170.675Z" fill="#1A9F29"/>
<path d="M172.655 42.3238C172.655 40.4968 173.797 39.1265 175.167 39.1265C176.309 39.1265 176.994 40.04 176.994 41.4103C176.994 43.1612 175.852 44.6076 174.482 44.6076C173.416 44.6076 172.655 43.7702 172.655 42.3238ZM173.34 42.4761C173.34 43.4657 173.873 43.9986 174.558 43.9986C175.472 43.9986 176.385 42.8567 176.385 41.3342C176.385 40.3445 175.852 39.7355 175.167 39.7355C174.254 39.7355 173.34 40.8774 173.34 42.4761Z" fill="#1A9F29"/>
<path d="M183.085 39.8903L180.801 44.534H180.116L179.431 39.8903L178.518 44.534H177.833L178.898 39.2812H180.04L180.649 43.8489L182.857 39.2812H183.999L182.933 44.534H182.248L183.085 39.8903Z" fill="#1A9F29"/>
</svg>
