<svg width="194" height="44" viewBox="0 0 194 44" fill="none" xmlns="http://www.w3.org/2000/svg">
<path d="M131.65 13.8696V17.1073H122.901V20.9187H126.162C132.049 20.9187 133.278 24.47 133.278 26.8192C133.278 28.7513 131.88 32.1449 126.162 32.1449H118.842V13.8696H131.65ZM122.901 29.2731H125.417C127.677 29.2731 128.991 28.3852 128.991 26.5329C128.991 24.6787 127.677 23.7912 125.417 23.7912H122.901V29.2731Z" fill="#005187"/>
<path d="M146.341 13.8696L154.289 32.1449H149.715L148.028 28.0201H139.766L138.079 32.1449H133.734L141.709 13.8696H146.341ZM146.828 25.0171L143.883 17.5509H143.824L141.054 25.0171H146.828Z" fill="#005187"/>
<path d="M160.202 13.8696V21.2321H168.32V13.8696H172.38V32.1449H168.32V24.2351H160.202V32.1449H156.142V13.8696" fill="#005187"/>
<path d="M181.335 13.8696V21.6757H181.421L188.654 13.8696H193.486L185.137 22.1455L194 32.1449H188.855L181.421 23.0589H181.335V32.1449H177.277V13.8696" fill="#005187"/>
<path d="M60.6637 31.5699C58.8906 32.1195 57.09 32.3543 55.489 32.3543C50.5135 32.3543 45.0828 29.769 45.0828 23.1115C45.0828 16.8197 49.9432 13.6606 56.2321 13.6606C57.8044 13.6606 59.1478 13.8441 60.6637 14.288L60.4916 17.4207C59.3203 17.0032 58.0342 16.7413 56.5181 16.7413C52.0297 16.7413 49.3712 19.3263 49.3712 23.0586C49.3712 27.4722 52.6303 29.2728 56.2321 29.2728C58.0052 29.2728 59.4051 28.8806 60.4067 28.4631" fill="#005187"/>
<path d="M107.481 13.8696V32.1449H103.422V16.8724H95.5036V32.1449H91.4443V13.8696" fill="#005187"/>
<path d="M79.9564 13.8696L75.0188 26.9917L70.0938 13.8696H63.2329V32.1449H67.2915V16.4811H67.3202L73.0946 32.1449H76.9533L82.729 16.4811H82.758V32.1449H86.8173V13.8696" fill="#005187"/>
<path d="M43.3587 0.971505C43.114 0.707931 39.8206 2.20743 39.8206 2.20743C39.8638 2.17876 39.9161 2.14532 39.9694 2.11C40.6167 1.73543 41.6458 1.19666 41.2611 0.759006C41.0681 0.543343 40.6331 0.639229 39.377 1.35046C38.7874 1.68629 35.7046 2.88497 32.5165 4.14582C29.8864 5.21174 25.1108 7.14224 24.6839 7.58454C24.6716 7.59939 24.6603 7.60979 24.6495 7.62587C24.6045 7.69457 24.5622 7.77942 24.5184 7.86581C24.3541 8.21165 24.1886 8.74041 24.0259 9.40535C24.0199 9.42769 24.0146 9.44629 24.0092 9.46901C23.9998 9.50905 23.9903 9.55257 23.9805 9.5926C23.786 10.4751 23.611 11.5546 23.4193 12.7489C22.8568 16.3743 22.2824 21.7697 22.2824 21.7697C22.2824 21.7697 22.1374 25.4437 21.7653 27.197C21.6928 27.5306 21.6089 27.7642 21.5446 27.9303C21.5191 28.018 21.4876 28.1057 21.4545 28.1901C21.4532 28.1911 21.4504 28.1961 21.4504 28.199C21.4504 28.1977 21.4504 28.1961 21.4504 28.1961C21.3233 28.5215 21.1509 28.8279 20.9113 29.0685C20.1754 29.822 18.3637 29.5815 17.8631 29.5235C16.6928 29.3898 15.5461 28.6274 15.3875 28.4257C15.2352 28.2204 14.4265 27.2093 13.3883 27.1153C13.0819 27.0882 11.8258 27.2935 11.414 27.2818C11.0003 27.2692 10.424 26.7272 9.77298 26.6623C9.11089 26.586 8.05717 27.2058 8.05717 27.2058C8.05717 27.2058 10.646 28.1057 10.9625 28.5114C11.2769 28.9213 12.0544 29.946 12.997 30.3473C13.9397 30.7493 17.2335 34.2218 17.2335 34.2218C17.2335 34.2218 17.9053 34.8599 19.0218 35.6961C18.046 36.0164 17.0169 36.2434 15.9484 36.3525C8.58245 37.106 2.29103 32.5896 1.46751 25.8672C1.284 24.3929 1.39338 22.9284 1.78215 21.5288C2.23769 19.8418 2.93698 18.2225 4.16407 16.8204C6.39915 14.255 9.45956 12.578 13.0295 12.2167C15.2052 11.9919 17.4182 12.3043 19.4499 13.044C19.4347 12.8277 19.4187 12.6139 19.4049 12.4005C17.3662 11.6798 15.1536 11.4096 12.9201 11.6407C9.25591 12.0168 5.97351 13.6686 3.67573 16.3006C2.04224 18.1598 1.05161 20.3579 0.756205 22.6733C0.695381 22.9933 0.687506 23.2244 0.64902 23.6454C0.583417 24.4326 0.605177 25.9286 0.705131 26.7433C1.54157 33.5635 8.27219 38.473 15.7447 37.7088C17.3385 37.5461 18.8414 37.1375 20.1984 36.5347C21.2839 37.2536 22.5901 38.0153 24.012 38.5878C27.5271 40.0161 31.8401 40.1693 32.8005 40.279C34.8124 40.5186 36.6148 42.8681 37.1766 43.3372C37.7268 43.8007 41.4969 43.0636 41.4969 43.0636C41.4969 43.0636 41.2255 42.3579 41.0681 41.455C40.9108 40.5539 39.8329 40.1479 39.6223 39.9146C39.4098 39.6837 34.5604 37.6622 33.7832 37.2138C33.0143 36.7699 32.036 35.8398 31.022 34.2641C30.0216 32.6823 30.4457 31.5041 30.6115 31.2071C30.7906 30.9132 31.1797 30.8511 31.4067 30.4595C31.6444 30.0645 31.4558 30.0339 31.4325 29.8343C31.4133 29.6325 31.4968 29.486 31.7033 29.1414C31.9114 28.7993 31.8254 28.8292 31.8254 28.8292C31.8254 28.8292 31.8254 28.8292 31.8701 28.4017C31.9127 27.9739 31.8701 28.4017 31.9593 28.2564C32.0442 28.1057 32.0442 28.1057 32.0442 28.1057C32.0442 28.1057 32.0221 27.902 32.1122 27.7554C32.1971 27.6119 32.0073 27.4581 32.0442 27.2818C32.0811 27.1084 32.129 27.1343 32.2015 26.7909C32.2633 26.4419 32.2302 26.6131 32.2425 26.2411C32.2633 25.8672 32.3601 26.0399 32.5666 25.8274C32.7586 25.6071 32.3601 25.3387 32.3601 25.3387C32.3601 25.3387 32.3878 25.1713 32.7189 24.5102C33.0442 23.8418 32.7189 24.5102 32.8103 24.2406C32.9046 23.9644 32.6955 23.7318 32.6514 23.4644C32.6067 23.1794 32.6886 23.2806 32.7501 22.9372C32.8119 22.5886 32.7501 22.9372 32.8705 22.6159C32.9881 22.2972 32.9402 22.1433 32.9402 22.1433L32.7189 21.4636C32.7189 21.4636 32.7189 21.4636 32.8352 21.2703C32.954 21.0705 32.8324 20.6905 32.8324 20.6905L32.5297 19.9083C32.5297 19.9083 32.542 19.5356 32.5792 19.3606C32.6123 19.1835 32.3122 18.4035 32.3122 18.4035L32.5051 17.6112L32.2232 16.4595L32.0372 15.4796C32.0372 15.4796 32.0057 14.0025 32.0044 13.4289C31.9909 12.858 31.9909 12.1618 32.1044 11.3859C32.211 10.6147 34.6481 9.67176 34.9135 9.22274C35.1696 8.78419 33.4342 9.25684 33.4342 9.25684C33.4342 9.25684 36.4969 8.42699 36.7059 8.0767C36.8632 7.81474 34.7039 8.2019 34.7039 8.2019C34.5125 8.2356 34.7039 8.2019 34.7039 8.2019C35.5375 8.02943 37.7445 7.53347 38.4974 6.94111C39.3455 6.2484 37.0127 6.78091 36.6372 6.87363C37.0193 6.77871 39.5866 6.14122 39.941 5.43405C40.1476 5.02765 38.0213 5.32273 38.0213 5.32273C39.0841 5.07175 40.3499 4.72811 41.1259 4.36929C42.654 3.66942 42.7429 3.13847 42.4352 2.98963C42.1259 2.84112 39.6031 3.62087 39.6031 3.62087C39.5451 3.63946 39.5135 3.64954 39.4716 3.66342C39.5425 3.63946 39.6031 3.62087 39.6031 3.62087C40.332 3.36388 41.1366 3.04859 41.6007 2.76357C42.5749 2.17179 43.7761 1.43434 43.3587 0.971505ZM39.4208 2.39882C39.5088 2.35627 39.6384 2.2948 39.7273 2.2525C39.5835 2.32127 39.4826 2.36886 39.4208 2.39882Z" fill="#005187"/>
<path d="M36.8385 0.0529003C36.6008 -0.198079 35.0392 0.52549 35.0392 0.52549C35.0392 0.52549 25.5186 4.71026 21.3216 6.78953C20.4183 7.23597 19.3009 7.93932 19.2927 9.28625C19.2719 13.6138 20.2036 19.9866 20.6743 23.3406C21.145 26.6958 21.4654 28.0877 21.4502 28.1987C21.4666 28.0815 21.6404 27.7838 21.7652 27.1968C22.1372 25.4435 22.2822 21.7695 22.2822 21.7695C22.2822 21.7695 22.8567 16.3741 23.4191 12.7487C23.8038 10.3349 24.1323 8.3864 24.6591 7.60957C24.9984 7.11457 32.6815 4.09891 34.0224 3.52824C35.6594 2.83082 35.8425 2.64731 35.8753 2.1489C35.9094 1.6501 34.1621 2.20372 34.1621 2.20372C34.1621 2.20372 35.6688 1.46123 36.2149 1.10752C36.7688 0.75878 37.0765 0.302918 36.8385 0.0529003ZM5.10411 15.8141L7.56867 12.6153L4.56243 15.3541L3.18878 10.7394L3.42963 15.4295L0.908948 13.9048L3.20925 16.085L0 16.894L3.25277 16.7448L0.564019 20.1789L3.76196 17.2698L5.08364 21.5359L4.85377 17.2799L7.27611 18.7204L4.94139 16.509L8.15697 15.6716L5.10411 15.8141Z" fill="#009FE3"/>
</svg>
