<svg width="144" height="66" viewBox="0 0 144 66" fill="none" xmlns="http://www.w3.org/2000/svg">
<path d="M1 17.8662C1 27.186 8.5517 34.7383 17.8701 34.7383C27.1884 34.7383 34.7392 27.186 34.7392 17.8662C34.7392 8.5518 27.1884 1 17.8701 1C8.5517 1 1 8.5518 1 17.8662Z" fill="#EC6608" stroke="#EC6608" stroke-width="0.3"/>
<path d="M1 43.7373C1 46.2196 8.5517 48.2344 17.8701 48.2344C27.1884 48.2344 34.7392 46.2196 34.7392 43.7373C34.7392 41.249 27.1884 39.2354 17.8701 39.2354C8.5517 39.2354 1 41.249 1 43.7373Z" fill="#EC6608" stroke="#EC6608" stroke-width="0.3"/>
<path d="M17.8701 52.7334C30.0195 52.7334 34.7392 53.9092 34.7392 55.5469C34.7392 57.1807 30.0195 58.3604 17.8701 58.3604C5.7168 58.3604 1 57.1807 1 55.5469C1 53.9092 5.7168 52.7334 17.8701 52.7334Z" fill="#EC6608" stroke="#EC6608" stroke-width="0.3"/>
<path d="M17.8701 62.8555C32.8554 62.8555 34.7392 63.1904 34.7392 63.9814C34.7392 64.7725 32.8554 65.1084 17.8701 65.1084C2.8779 65.1084 1 64.7725 1 63.9814C1 63.1904 2.8779 62.8555 17.8701 62.8555Z" fill="#EC6608" stroke="#EC6608" stroke-width="0.3"/>
<path d="M54.9376 42.9307C56.3389 42.9307 57.962 43.3555 59.213 43.9756L59.8243 47.6846H61.7969V42.2647C60.4571 41.7695 58.1661 41.0635 55.1807 41.0635C50.8848 41.0635 48.1036 42.5088 46.4493 43.9873C44.4053 45.7783 42.6133 48.8057 42.6133 53.1387C42.6133 57.8857 44.7569 60.7061 45.8546 61.8682C48.5928 64.8242 51.9776 65.5273 54.8243 65.5273C57.1475 65.5273 59.6192 65.0674 61.7969 64.292V58.7314H59.8243L58.9512 63.1514C57.8848 63.4365 56.4903 63.6611 55.3887 63.6611C51.7266 63.6611 49.6524 61.9736 48.5284 60.5635C47.2569 58.9795 46.3067 56.4834 46.3067 53.1729C46.3067 50.3936 47.0176 47.4365 48.7061 45.5342C49.8956 44.1982 51.9776 42.9307 54.9376 42.9307Z" fill="#004280"/>
<path d="M84.2548 43.7051C86.6123 45.8896 88.1259 49.2313 88.1259 53.2773C88.1259 57.0448 86.8291 60.1376 84.958 62.1846C83.413 63.8721 80.7724 65.6709 76.7939 65.6709C73.167 65.6709 70.4892 64.1865 68.6972 62.3291C67.3232 60.8818 65.3857 57.9951 65.3857 53.2773C65.3857 48.4188 67.4257 45.3584 69.331 43.666C70.7412 42.4365 73.167 40.9229 76.8642 40.9229C80.1767 40.9229 82.5244 42.1191 84.2548 43.7051ZM71.7959 44.8672C70.038 46.6982 69.083 49.7588 69.083 53.2461C69.083 54.6161 69.2275 58.1006 71.0537 60.7411C72.7793 63.2421 75.1046 63.8026 76.7939 63.8026C78.0576 63.8026 80.5244 63.4512 82.3564 60.9561C84.2861 58.3466 84.4345 54.7568 84.4345 53.3486C84.4345 49.7216 83.4443 46.6982 81.792 44.9384C79.9599 42.9648 77.6748 42.791 76.6904 42.791C74.331 42.791 72.749 43.8759 71.7959 44.8672Z" fill="#004280"/>
<path d="M119.78 43.666C118.474 42.4365 116.118 40.9229 112.466 40.9229C109.435 40.9229 106.87 42.0498 105.103 43.666C102.212 46.3134 101.569 50.1386 101.384 52.3369H96.4483V43.1543L99.2296 42.9306V41.4873H90.6768V42.9306L93.2803 43.1592V63.4346L90.6768 63.6611V65.1084H99.2296V63.6611L96.4483 63.4365V53.9501H101.355C101.509 57.4678 102.913 60.5634 104.476 62.3291C105.921 63.9434 108.407 65.6709 112.317 65.6709C116.374 65.6709 118.868 63.8721 120.384 62.1846C122.284 60.0713 123.481 57.0106 123.481 53.2461C123.481 49.124 121.999 45.7783 119.78 43.666ZM117.78 60.9561C116.405 62.8554 114.397 63.8026 112.362 63.8026C110.702 63.8026 108.378 63.167 106.763 60.7411C105.425 58.7715 104.862 55.8115 104.862 53.2461C104.862 50.5342 105.563 46.9443 107.503 44.8672C108.661 43.5966 110.278 42.791 112.532 42.791C114.435 42.791 115.94 43.3506 117.247 44.8672C119.116 47.0136 119.78 50.4619 119.78 53.3486C119.78 56.0264 119.187 58.9795 117.78 60.9561Z" fill="#004280"/>
<path d="M131.401 51.9121V54.0225L134.437 53.6641C135.704 53.6641 137.782 53.8057 139.081 55.1777C139.747 55.8486 140.312 57.0107 140.312 58.6279C140.312 60.1787 139.821 61.6201 138.239 62.6416C136.933 63.5244 135.173 63.7676 133.735 63.7676C132.167 63.7676 130.759 63.3682 129.679 62.7178L129.083 58.2051H127.112V64.3994C130.282 65.46 133.062 65.5273 133.903 65.5273C135.989 65.5273 139.081 65.0674 141.083 63.6611C143.052 62.29 143.833 60.3897 143.833 58.1729C143.833 56.7275 143.446 55.3232 142.142 54.1553C140.944 53.1016 139.181 52.5732 137.675 52.5029V52.4336C138.864 52.1143 140.241 51.4463 141.157 50.5674C142.317 49.4053 142.634 48.1768 142.634 46.9795C142.634 44.5166 141.407 43.0381 139.991 42.1904C138.37 41.2441 136.269 41.0635 134.222 41.0635C132.993 41.0635 130.774 41.1357 127.825 42.0498V47.5029H129.794L130.226 43.7178C131.64 43.0869 133.194 42.8232 134.253 42.8232C135.589 42.8232 136.786 43.0703 137.813 43.9873C138.618 44.7256 139.181 45.7783 139.181 47.3281C139.181 48.6709 138.765 49.8975 137.528 50.8848C136.579 51.6494 135.489 52.0293 134.413 52.1143L131.401 51.9121Z" fill="#004280"/>
<path d="M58.4493 20.2436C56.6212 19.0136 54.3692 18.8345 52.3633 18.8345C51.9776 18.8345 50.3946 18.8345 48.3848 19.0464V10.4951H57.3907L57.9698 14.0146H59.9434V8.87695H42.6133V10.3198L45.2178 10.5503V30.8208L42.6133 31.0503V32.4956H51.9005C53.7745 32.4956 56.7637 32.2856 58.838 30.5933C60.7745 29.0459 61.129 27.0756 61.129 25.5966C61.129 23.1631 60.2442 21.4414 58.4493 20.2436ZM56.1602 29.4688C54.7169 30.8081 52.5069 30.8731 50.9542 30.8731C50.1075 30.8731 49.3008 30.8398 48.3848 30.7363V20.7349C49.4786 20.5581 50.7452 20.457 51.9005 20.457C53.418 20.457 55.1104 20.6304 56.3389 21.8989C57.4327 23.0586 57.6065 24.6099 57.6065 25.666C57.6065 26.792 57.3633 28.3428 56.1602 29.4688Z" fill="#004280"/>
<path d="M85.4834 30.6304L77.04 8.59277H74.7197L66.4804 30.6304L63.582 31.0503V32.4956H71.3349V31.0503L68.5312 30.8311L71.1992 23.6553H79.5107L82.2158 30.8398L79.6142 31.0503V32.4956H87.6025V31.0503L85.4834 30.6304ZM71.7998 22.0371L75.2802 12.2925L78.9013 22.0371H71.7998Z" fill="#004280"/>
<path d="M115.718 10.3198V8.87695H107.165V10.3198L109.946 10.5415V19.7226H97.8389V10.5415L100.62 10.3198V8.87695H92.0596V10.3198L94.6631 10.5513V30.8208L92.0596 31.0503V32.4956H100.62V31.0503L97.8389 30.8281V21.3413H109.946V30.8281L107.165 31.0503V32.4956H115.718V31.0503L113.112 30.8208V10.5503L115.718 10.3198Z" fill="#004280"/>
<path d="M141.188 30.8731L133.194 19.3936L140.587 10.5996L142.905 10.3198V8.87695H135.589V10.3198L138.13 10.5503L130.474 19.896H127.87V10.5415L130.651 10.3198V8.87695H122.099V10.3198L124.702 10.5503V30.8208L122.099 31.0503V32.4956H130.651V31.0503L127.87 30.8281V21.3413H130.784L138.694 32.4956H143.833V31.0503L141.188 30.8731Z" fill="#004280"/>
</svg>
