<svg width="224" height="28" viewBox="0 0 224 28" fill="none" xmlns="http://www.w3.org/2000/svg">
<path d="M16.5472 0.287109V7.33665H13.7734C10.2695 7.33665 7.44629 10.1182 7.44629 13.5714C7.44629 17.0232 10.2695 19.8048 13.7721 19.8048H16.5472V26.8543C22.873 25.6555 27.5953 20.1888 27.5953 13.5701C27.5953 7.00083 22.8743 1.53405 16.5472 0.287109Z" fill="#003791"/>
<path d="M13.7737 22.0103C9.05272 22.0103 5.20645 18.2226 5.20645 13.5719C5.20645 8.92126 9.05142 5.13226 13.7711 5.13226H14.3073V0H13.7724C6.18136 0 0 6.09025 0 13.5706C0 21.1004 6.18136 27.1907 13.7737 27.1907H14.3086V22.0129H13.7737V22.0103ZM47.0624 18.3189C45.9472 19.2211 44.5555 19.7119 43.1211 19.709C39.6654 19.709 36.8916 16.9756 36.8916 13.5706C36.8916 10.1669 39.6641 7.43351 43.1211 7.43351C44.6253 7.42706 46.0795 7.97263 47.2082 8.96681L49.3988 6.81004C47.6763 5.25935 45.4388 4.40435 43.1211 4.41117C37.9615 4.41117 33.825 8.53598 33.825 13.5706C33.825 18.6066 37.9615 22.7782 43.1211 22.7782C45.5057 22.7782 47.6468 21.9153 49.253 20.477L47.0624 18.3189ZM146.105 5.13096L139.243 13.283L132.331 5.13096L132.283 5.22728V5.13096H129.508V22.0116H132.283V9.63844L139.243 17.7904L146.105 9.83108V22.0116H148.83V5.13096H146.105ZM70.0346 13.5706C70.0346 18.6547 65.8486 22.7301 60.7385 22.7301C55.5802 22.7301 51.4436 18.6066 51.4436 13.5706C51.4436 8.53598 55.6283 4.41117 60.7385 4.41117C65.8486 4.41117 70.0346 8.53598 70.0346 13.5706ZM66.9198 13.5706C66.9198 10.1669 64.1461 7.43351 60.6903 7.43351C57.2345 7.43351 54.4608 10.1669 54.4608 13.5706C54.4608 16.9756 57.2345 19.709 60.6903 19.709C64.1461 19.709 66.9198 16.9756 66.9198 13.5706ZM126.686 13.5706C126.686 18.6547 122.5 22.7301 117.39 22.7301C112.23 22.7301 108.094 18.6066 108.094 13.5706C108.094 8.53598 112.28 4.41117 117.39 4.41117C122.548 4.41117 126.686 8.53598 126.686 13.5706ZM123.619 13.5706C123.619 10.1669 120.846 7.43351 117.39 7.43351C113.934 7.43351 111.16 10.1669 111.16 13.5706C111.16 16.9756 113.934 19.709 117.39 19.709C120.796 19.709 123.619 16.9756 123.619 13.5706ZM108.046 5.13096H104.297L97.2409 12.2287H94.3695V5.13096H91.644V22.0116H94.3695V14.962H97.1914L104.249 22.0116H107.948L99.5773 13.6188L108.046 5.13096Z" fill="#FF4B5F"/>
<path d="M223.487 5.13086H219.791L212.684 12.2286H209.812V5.13086H207.087V22.0115H209.812V14.9619H212.684L219.692 22.0115H223.391L215.068 13.6187L223.487 5.13086ZM183.189 22.0102H186.209L178.663 5.13086H175.549L168.006 22.0115H171.023L172.677 18.367H181.536L183.189 22.0115V22.0102ZM173.896 15.6804L177.107 8.58404L180.319 15.6804H173.894H173.896Z" fill="#003791"/>
<path d="M88.1402 17.12C88.1403 16.4528 88.0018 15.7928 87.7336 15.1818C87.4654 14.5708 87.0733 14.0221 86.5822 13.5705C87.5063 12.6594 88.1402 11.4125 88.1402 10.0223C88.1361 8.72202 87.616 7.47651 86.6942 6.55937C85.7724 5.64223 84.5243 5.12845 83.224 5.13087H73.199V22.0583H83.224C85.9496 22.0115 88.1402 19.8053 88.1402 17.12ZM75.9727 7.86556H83.1758C84.3928 7.86556 85.3652 8.82354 85.3652 10.0223C85.3652 11.2211 84.3928 12.1804 83.1758 12.1804H75.9727V7.86425V7.86556ZM83.1758 19.325H75.9727V14.962H83.224C84.441 14.962 85.4146 15.9681 85.4146 17.12C85.3652 18.3175 84.3928 19.325 83.1758 19.325Z" fill="#FF4B5F"/>
<path d="M200.905 5.17902V12.2286H190.928V5.17902H188.155V21.9633H190.928V14.9606H200.905V21.9633H203.68V5.17902H200.905ZM167.032 17.12C167.032 14.4335 164.793 12.2286 162.068 12.2286H154.865V7.86425H165.378V5.13086H152.091V22.0583H162.068C164.793 22.0115 167.032 19.8052 167.032 17.12ZM162.068 19.325H154.865V14.9619H162.068C163.285 14.9619 164.258 15.9681 164.258 17.12C164.258 18.3175 163.285 19.325 162.068 19.325Z" fill="#003791"/>
</svg>
