<svg width="146" height="61" viewBox="0 0 146 61" fill="none" xmlns="http://www.w3.org/2000/svg">
<path d="M0 18.9835H14.3898C20.8582 30.2219 30.1859 39.5479 41.4255 46.0141V60.399C31.8139 57.1215 23.082 51.6834 15.9013 44.5027C8.7206 37.322 3.28244 28.5901 0.00503105 18.9785" fill="#00AFAA"/>
<path d="M41.4251 18.9844V46.02C30.1868 39.5517 20.8608 30.2239 14.3945 18.9844H41.4251Z" fill="#00539B"/>
<path d="M41.4262 18.9837H14.3905C10.9737 13.0464 8.41508 6.65501 6.79102 6.65417e-07H22.4374C24.9308 -0.000659489 27.3999 0.489886 29.7037 1.44361C32.0075 2.39734 34.1008 3.79557 35.8642 5.55844C37.6275 7.3213 39.0263 9.41427 39.9806 11.7178C40.935 14.0214 41.4262 16.4903 41.4262 18.9837Z" fill="#00AFAA"/>
<path d="M60.4095 37.9681V53.6044C53.7545 51.9853 47.3629 49.43 41.4258 46.015V18.9844C46.461 18.9857 51.2896 20.9869 54.8496 24.5478C58.4096 28.1088 60.4095 32.9379 60.4095 37.9731" fill="#F39A00"/>
<path d="M41.2695 0C42.3058 4.68041 44.6571 8.96759 48.0468 12.3573C51.4365 15.747 55.7236 18.0982 60.4041 19.1345V0H41.2695Z" fill="#00AFAA"/>
<path d="M115.366 42.7681L107.379 31.605V42.7681H101.388V18.904H107.374V29.3382L114.451 18.904H120.985L113.3 29.7001L122.372 42.7681H115.386H115.366ZM134.41 38.5914C138.31 38.5914 139.763 35.4149 139.763 30.8813C139.763 26.8 138.582 23.4426 134.591 23.4426C132.414 23.4426 130.776 23.9854 129.6 24.9856C129.328 26.5286 129.414 28.9764 129.414 30.5144C129.414 35.4148 130.957 38.5914 134.405 38.5914H134.41ZM128.962 21.0803C130.947 19.4882 133.403 18.596 135.948 18.5421C142.753 18.5421 146 23.3521 146 30.248C146 38.9583 141.1 43.4064 134.023 43.4064C127.036 43.4064 123.222 38.9583 123.222 28.7049C123.222 20.1605 125.152 14.3 128.122 11.5558C131.51 8.42447 132.57 8.4697 136.561 7.4695C139.014 6.83621 141.371 6.46428 142.276 6.10742L144.452 11.0079C143.271 11.7367 141.095 12.189 136.742 13.0938C131.751 14.099 129.479 15.8129 128.936 21.0803H128.962ZM91.9138 23.4376V42.7681H86.0534V23.4426H79.7908V18.9191H98.2216V23.4426H91.954L91.9138 23.4376Z" fill="#00539B"/>
</svg>
