<svg width="222" height="45" viewBox="0 0 222 45" fill="none" xmlns="http://www.w3.org/2000/svg">
<path fill-rule="evenodd" clip-rule="evenodd" d="M10.3581 44.2757C12.5604 40.4684 13.7735 33.2253 14.2401 20.5407H15.8451C16.3117 33.2439 17.5248 40.487 19.7084 44.2757C18.2527 44.74 16.6663 45 15.0426 45C13.4189 45 11.8512 44.7586 10.3581 44.2757ZM186.913 32.0553C186.913 32.8539 186.67 33.5411 186.148 34.1539C185.439 34.9525 184.356 35.3611 182.919 35.3611H178.776V24.0693H185.998V26.0565H181.053V28.4338H182.9C184.393 28.4338 185.457 28.8423 186.148 29.6967C186.67 30.3095 186.913 31.0896 186.913 32.0553ZM184.524 31.8882C184.524 31.3124 184.337 30.9038 184.001 30.6253C183.647 30.3281 183.143 30.1795 182.508 30.1795H181.071V33.5596H182.508C183.143 33.5596 183.647 33.4296 184.001 33.1511C184.319 32.8725 184.524 32.4453 184.524 31.8882ZM199.735 35.3611H197.178L196.207 32.8353H191.541L190.571 35.3611H188.107L192.624 24.0693H195.218L199.735 35.3611ZM195.517 30.9596L193.856 26.3351L192.251 30.9596H195.517ZM210.279 35.3611H207.984V30.4581H203.411V35.3611H201.116V24.0693H203.411V28.6195H207.984V24.0693H210.279V35.3611ZM222 35.3611H219.07L214.871 29.7338L214.815 35.3611H212.519V24.0693H214.815V28.8981L218.958 24.0693H221.683L216.961 29.1581L222 35.3611ZM162.632 41.3599H163.621V18.7206H162.632V41.3599ZM60.2078 37.1998H55.318V22.1936H65.3962C70.5473 22.1936 70.5473 26.4094 70.5473 27.338C70.5473 28.3223 70.5473 32.8725 65.3962 32.8725H60.2078V37.1998ZM60.1892 25.908V29.1395H63.6979C64.3138 29.1395 65.6762 29.1395 65.6762 27.468C65.6762 25.9265 64.2951 25.9265 63.7538 25.9265H60.1892V25.908ZM68.1211 37.1998H73.2535L74.4479 34.1168H79.9163L81.0734 37.1998H89.2666L93.1486 26.3723L97.0305 37.1998H102.182L95.7801 22.1936H90.4237L85.142 34.6925L79.9349 22.1936H74.4479L68.1211 37.1998ZM77.1728 26.428L78.7405 30.6624H75.6237L77.1354 26.3908L77.1728 26.428ZM142.476 27.8952C147.627 27.8952 147.627 30.811 147.627 32.4453C147.627 34.1539 147.627 37.2183 142.532 37.2183H132.603V22.2121H146.899V25.9637H137.493V27.9137H142.476V27.8952ZM141.673 33.7082C142.756 33.7082 142.756 32.8539 142.756 32.501C142.756 32.1667 142.756 31.4053 141.654 31.4053H137.493V33.7268H141.673V33.7082ZM46.8262 37.1998H41.5259L43.9334 32.9653L37.8865 22.1936H43.3549L46.4903 28.5823L49.6444 22.1936H54.9448L46.8262 37.1998ZM114.163 37.1998H107.482C103.805 37.1998 100.95 34.1911 100.95 29.9009C100.95 25.0722 103.824 22.1936 107.538 22.1936H114.163V25.9451H109.89C107.239 25.9451 105.84 26.7251 105.84 29.8267C105.84 32.9096 107.277 33.4853 109.89 33.4853H114.163V37.1998ZM131.614 37.1998H126.724V26.6137L121.013 37.1998H115.171V22.1936H120.08V32.5196L125.66 22.1936H131.614V37.1998ZM15.0613 19.6121C22.5079 19.6121 28.8535 24.7379 28.8535 31.3496C28.8535 33.4482 28.1629 35.584 26.8378 37.5526C23.3105 34.2468 20.1937 28.1923 18.9992 21.0235C18.8686 20.9678 17.8048 20.7264 16.9836 20.6707C16.9836 21.7107 17.8608 37.1069 23.3291 42.5671C27.3791 39.8741 30.0852 35.2311 30.0852 30.0124C30.0852 22.8436 25.0648 16.8448 18.3274 15.3591C17.9728 10.5303 17.9728 8.58027 17.9354 6.18448H16.741C16.741 6.20305 16.797 12.9076 16.8156 15.1176C16.405 15.0619 15.9945 15.0433 15.5465 15.0062C15.5465 11.1432 15.5465 4.10442 15.5279 0H14.5387C14.5201 4.10442 14.52 11.1618 14.52 15.0062C14.0721 15.0248 13.6615 15.0619 13.2509 15.1176C13.2696 12.9076 13.3256 6.22163 13.3256 6.18448H12.1125C12.1125 8.58027 12.1125 10.5303 11.7579 15.3591C5.02043 16.8448 0 22.8436 0 30.0124C0 35.2497 2.66885 39.8741 6.75612 42.5671C12.2245 37.1069 13.1016 21.7107 13.1016 20.6707C12.2805 20.7264 11.2166 20.9678 11.086 21.0235C9.87289 28.1923 6.77478 34.2468 3.24741 37.5526C1.90366 35.6026 1.23178 33.4482 1.23178 31.3496C1.2691 24.7194 7.5773 19.6121 15.0613 19.6121Z" fill="#0E3263"/>
</svg>
