<svg width="183" height="31" viewBox="0 0 183 31" fill="none" xmlns="http://www.w3.org/2000/svg">
<path d="M30.4976 11.5741V3.04443H34.9861C36.6102 3.04443 37.4414 4.0802 37.4414 5.21851C37.4414 6.29271 36.7764 7.00883 35.9708 7.17502C36.8787 7.31573 37.6077 8.19805 37.6077 9.27225C37.6077 10.551 36.7509 11.5741 35.1268 11.5741H30.4976ZM35.5872 5.53815C35.5872 5.00092 35.2035 4.60468 34.5897 4.60468H32.3134V6.4589H34.5897C35.2035 6.4589 35.5872 6.07537 35.5872 5.53815ZM35.7534 9.01647C35.7534 8.47927 35.3698 8.01914 34.6537 8.01914H32.3134V10.0011H34.6537C35.3441 10.0011 35.7534 9.6303 35.7534 9.01647Z" fill="black"/>
<path d="M38.5356 7.31609C38.5356 4.69438 40.5177 2.9043 43.0753 2.9043C44.9551 2.9043 46.0421 3.92735 46.6431 4.98856L45.0831 5.75584C44.725 5.06541 43.9577 4.51547 43.0753 4.51547C41.5279 4.51547 40.4026 5.70469 40.4026 7.31609C40.4026 8.92726 41.5279 10.1165 43.0753 10.1165C43.9577 10.1165 44.725 9.5795 45.0831 8.87611L46.6431 9.63065C46.0293 10.6921 44.9551 11.7279 43.0753 11.7279C40.5177 11.7279 38.5356 9.93758 38.5356 7.31609Z" fill="black"/>
<path d="M47.7388 11.5741V3.04443H53.7747V4.64312H49.5548V6.44616H53.6853V8.0446H49.5548V9.97563H53.7747V11.5741H47.7388Z" fill="black"/>
<path d="M55.3242 11.5741V3.04443H59.3141C61.1684 3.04443 62.1786 4.29778 62.1786 5.7939C62.1786 7.27732 61.1555 8.54338 59.3141 8.54338H57.1401V11.5741H55.3242ZM60.3243 5.7939C60.3243 5.07777 59.7873 4.64312 59.0712 4.64312H57.1401V6.9447H59.0712C59.7873 6.9447 60.3243 6.49731 60.3243 5.7939Z" fill="black"/>
<path d="M63.0542 7.31609C63.0542 4.74577 64.934 2.9043 67.5044 2.9043C70.0876 2.9043 71.9675 4.74577 71.9675 7.31609C71.9675 9.88643 70.0876 11.7279 67.5044 11.7279C64.934 11.7279 63.0542 9.88643 63.0542 7.31609ZM70.1003 7.31609C70.1003 5.7174 69.0773 4.51547 67.5044 4.51547C65.9316 4.51547 64.9212 5.7174 64.9212 7.31609C64.9212 8.90181 65.9316 10.1165 67.5044 10.1165C69.0773 10.1165 70.1003 8.90181 70.1003 7.31609Z" fill="black"/>
<path d="M72.9685 7.31609C72.9685 4.69438 74.9506 2.9043 77.5082 2.9043C79.388 2.9043 80.475 3.92735 81.076 4.98856L79.516 5.75584C79.1579 5.06541 78.3906 4.51547 77.5082 4.51547C75.9608 4.51547 74.8354 5.70469 74.8354 7.31609C74.8354 8.92726 75.9608 10.1165 77.5082 10.1165C78.3906 10.1165 79.1579 9.5795 79.516 8.87611L81.076 9.63065C80.4622 10.6921 79.388 11.7279 77.5082 11.7279C74.9506 11.7279 72.9685 9.93758 72.9685 7.31609Z" fill="black"/>
<path d="M81.7214 7.31609C81.7214 4.69438 83.7035 2.9043 86.2611 2.9043C88.1409 2.9043 89.2279 3.92735 89.8289 4.98856L88.2689 5.75584C87.9108 5.06541 87.1435 4.51547 86.2611 4.51547C84.7137 4.51547 83.5884 5.70469 83.5884 7.31609C83.5884 8.92726 84.7137 10.1165 86.2611 10.1165C87.1435 10.1165 87.9108 9.5795 88.2689 8.87611L89.8289 9.63065C89.2151 10.6921 88.1409 11.7279 86.2611 11.7279C83.7035 11.7279 81.7214 9.93758 81.7214 7.31609Z" fill="black"/>
<path d="M90.9246 11.5741V3.04443H92.7406V8.55612L96.692 3.04443H98.559V11.5741H96.7431V5.85778L92.6766 11.5741H90.9246Z" fill="black"/>
<path d="M100.296 11.5742V3.04458H102.112V8.55626L106.064 3.04458H107.931V11.5742H106.115V5.85793L102.048 11.5742H100.296ZM104.12 2.64809C103.212 2.64809 102.394 2.21341 101.869 1.52274L102.585 0.921875C102.931 1.4077 103.455 1.71463 104.12 1.71463C104.759 1.71463 105.284 1.42044 105.642 0.921875L106.358 1.52274C105.846 2.21341 105.041 2.64809 104.12 2.64809Z" fill="black"/>
<path d="M109.204 7.31609C109.204 4.69438 111.186 2.9043 113.744 2.9043C115.624 2.9043 116.711 3.92735 117.312 4.98856L115.752 5.75584C115.393 5.06541 114.626 4.51547 113.744 4.51547C112.196 4.51547 111.071 5.70469 111.071 7.31609C111.071 8.92726 112.196 10.1165 113.744 10.1165C114.626 10.1165 115.393 9.5795 115.752 8.87611L117.312 9.63065C116.698 10.6921 115.624 11.7279 113.744 11.7279C111.186 11.7279 109.204 9.93758 109.204 7.31609Z" fill="black"/>
<path d="M123.471 11.5741L120.888 8.15964L120.223 8.95261V11.5741H118.407V3.04443H120.223V6.85538L123.241 3.04443H125.479L122.09 7.04702L125.709 11.5741H123.471Z" fill="black"/>
<path d="M126.686 11.5741V3.04443H128.501V8.55612L132.453 3.04443H134.32V11.5741H132.504V5.85778L128.437 11.5741H126.686Z" fill="black"/>
<path d="M136.058 11.5742V3.04458H137.874V8.55626L141.825 3.04458H143.692V11.5742H141.876V5.85793L137.81 11.5742H136.058ZM139.881 2.64809C138.973 2.64809 138.155 2.21341 137.631 1.52274L138.347 0.921875C138.692 1.4077 139.216 1.71463 139.881 1.71463C140.521 1.71463 141.045 1.42044 141.403 0.921875L142.119 1.52274C141.608 2.21341 140.802 2.64809 139.881 2.64809Z" fill="black"/>
<path d="M155.481 3.04443V4.64312H151.07V6.15197H153.282C155.098 6.15197 156.108 7.39233 156.108 8.86302C156.108 10.3337 155.111 11.5741 153.282 11.5741H149.254V3.04443H155.481ZM151.07 7.75041V9.97563H153.039C153.742 9.97563 154.254 9.54074 154.254 8.86302C154.254 8.17235 153.742 7.75041 153.039 7.75041H151.07Z" fill="black"/>
<path d="M163.206 11.5741L162.681 10.1291H159.024L158.487 11.5741H156.415L159.714 3.04443H161.991L165.277 11.5741H163.206ZM160.853 4.86046L159.523 8.53067H162.182L160.853 4.86046Z" fill="black"/>
<path d="M172.208 11.5741V7.99345H168.179V11.5741H166.363V3.04443H168.179V6.39501H172.208V3.04443H174.036V11.5741H172.208Z" fill="black"/>
<path d="M180.762 11.5741L178.179 8.15964L177.514 8.95261V11.5741H175.698V3.04443H177.514V6.85538L180.532 3.04443H182.77L179.381 7.04702L183 11.5741H180.762Z" fill="black"/>
<path d="M30.4976 24.3988V15.8691H34.4874C36.3417 15.8691 37.3519 17.1225 37.3519 18.6186C37.3519 20.102 36.3289 21.3681 34.4874 21.3681H32.3134V24.3988H30.4976ZM35.4976 18.6186C35.4976 17.9025 34.9606 17.4678 34.2445 17.4678H32.3134V19.7694H34.2445C34.9606 19.7694 35.4976 19.322 35.4976 18.6186Z" fill="black"/>
<path d="M43.8018 24.3988L43.2776 22.9538H39.6202L39.0832 24.3988H37.0115L40.3108 15.8691H42.5871L45.8736 24.3988H43.8018ZM41.4489 17.6851L40.1189 21.3554H42.7788L41.4489 17.6851Z" fill="black"/>
<path d="M46.3525 23.1837L47.2987 21.969C47.8871 22.5828 48.9613 22.9407 49.7925 22.9407C50.9178 22.9407 51.57 22.4933 51.57 21.8538C51.57 21.176 50.9689 20.8692 49.6901 20.8692H47.9637V19.2707H49.6901C50.7004 19.2707 51.4293 18.9893 51.4293 18.3627C51.4293 17.685 50.662 17.3524 49.6901 17.3524C48.859 17.3524 47.9766 17.6593 47.3756 18.2347L46.4676 17.0966C47.1581 16.3166 48.3729 15.7412 49.8692 15.7412C51.8641 15.7412 53.2452 16.6363 53.2452 18.0558C53.2452 19.13 52.3245 19.8334 51.3909 19.9996C52.2477 20.0891 53.3731 20.7669 53.3731 22.0456C53.3731 23.5163 51.9024 24.5521 49.8692 24.5521C48.2963 24.5521 46.9791 23.951 46.3525 23.1837Z" fill="black"/>
<path d="M54.7642 24.3988V15.8691H59.2527C60.8768 15.8691 61.708 16.9049 61.708 18.0432C61.708 19.1174 61.043 19.8335 60.2374 19.9997C61.1453 20.1404 61.8743 21.0228 61.8743 22.097C61.8743 23.3758 61.0175 24.3988 59.3934 24.3988H54.7642ZM59.8538 18.3629C59.8538 17.8256 59.4701 17.4294 58.8563 17.4294H56.58V19.2836H58.8563C59.4701 19.2836 59.8538 18.9001 59.8538 18.3629ZM60.02 21.8412C60.02 21.304 59.6364 20.8439 58.9203 20.8439H56.58V22.8258H58.9203C59.6108 22.8258 60.02 22.455 60.02 21.8412Z" fill="black"/>
<path d="M63.2881 24.3988V15.8691H65.104V21.3808L69.0554 15.8691H70.9226V24.3988H69.1065V18.6825L65.0401 24.3988H63.2881Z" fill="black"/>
<path d="M74.5474 24.3988V17.4678H72.0537V15.8691H78.8569V17.4678H76.3762V24.3988H74.5474Z" fill="black"/>
<path d="M79.9819 24.3988V15.8691H81.798V21.3808L85.7494 15.8691H87.6164V24.3988H85.8005V18.6825L81.7339 24.3988H79.9819Z" fill="black"/>
<path d="M88.9341 24.3988L90.8523 21.1508C89.9316 20.9332 88.9852 20.1277 88.9852 18.6186C88.9852 17.0329 90.0723 15.8691 91.8498 15.8691H95.8396V24.3988H94.0237V21.3681H92.7065L91.0185 24.3988H88.9341ZM94.0237 19.7694V17.4678H92.1184C91.3894 17.4678 90.8396 17.9025 90.8396 18.6186C90.8396 19.3347 91.3894 19.7694 92.1184 19.7694H94.0237Z" fill="black"/>
<path d="M101.338 24.3988V15.8691H105.328C107.182 15.8691 108.192 17.1225 108.192 18.6186C108.192 20.102 107.169 21.3681 105.328 21.3681H103.154V24.3988H101.338ZM106.338 18.6186C106.338 17.9025 105.801 17.4678 105.085 17.4678H103.154V19.7694H105.085C105.801 19.7694 106.338 19.322 106.338 18.6186Z" fill="black"/>
<path d="M109.306 24.3988V15.8691H115.342V17.4678H111.122V19.2709H115.252V20.8693H111.122V22.8003H115.342V24.3988H109.306Z" fill="black"/>
<path d="M116.891 24.3988V15.8691H122.927V17.4678H118.707V24.3988H116.891Z" fill="black"/>
<path d="M124.1 24.3988V15.8691H125.915V21.3808L129.867 15.8691H131.734V24.3988H129.918V18.6825L125.851 24.3988H124.1Z" fill="black"/>
<path d="M133.007 20.1403C133.007 17.57 134.887 15.7285 137.458 15.7285C140.041 15.7285 141.92 17.57 141.92 20.1403C141.92 22.7106 140.041 24.5521 137.458 24.5521C134.887 24.5521 133.007 22.7106 133.007 20.1403ZM140.054 20.1403C140.054 18.5416 139.031 17.3397 137.458 17.3397C135.885 17.3397 134.875 18.5416 134.875 20.1403C134.875 21.726 135.885 22.9407 137.458 22.9407C139.031 22.9407 140.054 21.726 140.054 20.1403Z" fill="black"/>
<path d="M149.045 24.3988V20.8182H145.017V24.3988H143.201V15.8691H145.017V19.2197H149.045V15.8691H150.874V24.3988H149.045Z" fill="black"/>
<path d="M152.142 20.1403C152.142 17.57 154.022 15.7285 156.593 15.7285C159.176 15.7285 161.056 17.57 161.056 20.1403C161.056 22.7106 159.176 24.5521 156.593 24.5521C154.022 24.5521 152.142 22.7106 152.142 20.1403ZM159.188 20.1403C159.188 18.5416 158.165 17.3397 156.593 17.3397C155.02 17.3397 154.009 18.5416 154.009 20.1403C154.009 21.726 155.02 22.9407 156.593 22.9407C158.165 22.9407 159.188 21.726 159.188 20.1403Z" fill="black"/>
<path d="M162.336 24.3988V15.8691H166.825C168.449 15.8691 169.28 16.9049 169.28 18.0432C169.28 19.1174 168.615 19.8335 167.81 19.9997C168.718 20.1404 169.447 21.0228 169.447 22.097C169.447 23.3758 168.59 24.3988 166.966 24.3988H162.336ZM167.426 18.3629C167.426 17.8256 167.042 17.4294 166.429 17.4294H164.152V19.2836H166.429C167.042 19.2836 167.426 18.9001 167.426 18.3629ZM167.592 21.8412C167.592 21.304 167.209 20.8439 166.492 20.8439H164.152V22.8258H166.492C167.183 22.8258 167.592 22.455 167.592 21.8412Z" fill="black"/>
<path d="M182.982 28.4644H4.57446V30.4975H182.982V28.4644Z" fill="#FFD300"/>
<path d="M10.4739 14.3325L4.38281 14.6519L4.89383 24.3976L10.9849 24.0782L10.4739 14.3325Z" fill="black"/>
<path d="M12.8812 15.9802L11.3027 21.8721L20.7294 24.3976L22.3079 18.5057L12.8812 15.9802Z" fill="black"/>
<path d="M20.5015 5.99728L15.1868 14.1821L20.3024 17.5038L25.6172 9.319L20.5015 5.99728Z" fill="black"/>
<path d="M12.8125 -0.000108704L8.07227 3.83838L14.2136 11.4224L18.9539 7.58392L12.8125 -0.000108704Z" fill="black"/>
<path d="M9.11065 5.82144L0 9.31934L2.1861 15.0135L11.2968 11.5156L9.11065 5.82144Z" fill="black"/>
</svg>
