<svg width="138" height="49" viewBox="0 0 138 49" fill="none" xmlns="http://www.w3.org/2000/svg">
<path d="M39.9856 6.51135H7.11809L9.48585 0H42.3534L39.9856 6.51135ZM38.8017 9.76703H5.91941L3.55165 16.2784H36.4192L38.8017 9.76703ZM35.2501 19.5045H2.36776L0 26.0158H32.8379L35.2501 19.5045Z" fill="#009FDF"/>
<path d="M118.3 42.3084H124.219C125.061 42.4088 125.914 42.3007 126.704 41.9936C127.493 41.6865 128.195 41.1898 128.748 40.5474C129.56 39.4847 129.969 38.1686 129.902 36.8329C129.958 35.983 129.801 35.1325 129.448 34.3577C129.094 33.5829 128.553 32.908 127.875 32.3934C126.776 31.6744 125.469 31.3412 124.16 31.4463H118.3V42.3084ZM110.531 48.8641V9.76643H135.969L133.735 16.3222H118.3V24.9793H124.589C129.665 24.9793 132.299 26.1928 134.12 27.7466C135.421 28.899 136.444 30.3311 137.113 31.9355C137.782 33.5399 138.079 35.275 137.982 37.0105C138.082 38.8794 137.713 40.7437 136.91 42.4339C136.106 44.1241 134.892 45.5867 133.38 46.6887C130.938 48.3758 128.378 48.8493 123.169 48.8493L110.531 48.8641ZM88.0074 48.8641V16.3074H76.7013V9.76643H108.089L105.854 16.3222H95.8506V48.8789L88.0074 48.8641ZM56.6789 25.4233H61.1184C62.0264 25.4853 62.9386 25.4155 63.8266 25.2161C64.7501 24.9211 65.5459 24.3211 66.0837 23.5145C66.6214 22.7078 66.8692 21.7424 66.7863 20.7765C66.9095 19.8168 66.6762 18.8452 66.1306 18.0459C65.5851 17.2467 64.7653 16.6755 63.8266 16.4406C62.857 16.2155 61.861 16.1258 60.8669 16.1742H56.6789V25.4233ZM56.6789 32.1862V42.4416H62.0952C63.5878 42.6122 65.0886 42.1985 66.2831 41.2873C66.8336 40.7772 67.2649 40.1521 67.5463 39.4564C67.8276 38.7606 67.9521 38.0114 67.911 37.2621C67.9345 36.0648 67.5713 34.8919 66.8751 33.9176C65.7208 32.4378 64.3001 32.1566 61.8732 32.1566L56.6789 32.1862ZM69.1984 28.0574V28.1906C70.5179 28.6985 71.7508 29.4073 72.8537 30.292C73.9685 31.2171 74.8495 32.392 75.4254 33.7212C76.0014 35.0505 76.256 36.4968 76.1685 37.9428C76.1685 43.2851 73.3272 47.1475 68.6657 48.3018C66.8076 48.756 64.8937 48.9404 62.9831 48.8493H48.9097V9.76643H61.4292C63.4177 9.69373 65.4072 9.87777 67.3486 10.314C71.877 11.5275 74.8515 14.6499 74.8515 19.5778C74.8885 20.7527 74.6858 21.9229 74.2558 23.0169C73.8258 24.1109 73.1776 25.1059 72.3505 25.9412C71.4722 26.833 70.4261 27.5422 69.2724 28.0278L69.1984 28.0574Z" fill="#0A2973"/>
</svg>
