<svg width="68" height="68" viewBox="0 0 68 68" fill="none" xmlns="http://www.w3.org/2000/svg">
<path d="M34 68C52.7777 68 68 52.7777 68 34C68 15.2223 52.7777 0 34 0C15.2223 0 0 15.2223 0 34C0 52.7777 15.2223 68 34 68Z" fill="#48B83D"/>
<path d="M30.4193 13L14.4742 22.6013H20.0464V37.1748H30.4193H40.7922V22.6013H46.3644L30.4193 13Z" fill="#48B83D"/>
<path d="M30.4193 14.2119L42.6275 21.5631H40.7922H39.7539V22.6013V36.1365H30.4193H21.0847V22.6013V21.5631H20.0464H18.2112L30.4193 14.2119ZM30.4193 13L14.4742 22.6013H20.0464V37.1748H30.4193H40.7922V22.6013H46.3644L30.4193 13Z" fill="white"/>
<path d="M40.7566 24.7729L31.2766 30.9738H35.4353V37.1747H40.7566H46.0779V30.9738H50.2367L40.7566 24.7729Z" fill="#48B83D"/>
<path d="M40.7566 26.0136L46.7527 29.9356H46.0779H45.0397V30.9738V36.1364H40.7566H36.4736V30.9738V29.9356H35.4353H34.7606L40.7566 26.0136ZM40.7566 24.7729L31.2766 30.9738H35.4353V37.1747H40.7566H46.0779V30.9738H50.2367L40.7566 24.7729Z" fill="white"/>
<path d="M58.3808 29.2308C58.9304 31.7091 57.1324 34.2157 57.1324 34.2157C57.1324 34.2157 54.4432 32.7043 53.8935 30.226C53.3439 27.7478 55.1419 25.2412 55.1419 25.2412C55.1419 25.2412 57.8311 26.7526 58.3808 29.2308Z" fill="#48B83D"/>
<path d="M55.4769 26.7392C56.2187 27.3482 57.1141 28.3145 57.3671 29.4556C57.6318 30.6489 57.1925 31.9034 56.7975 32.7177C56.0556 32.1087 55.1603 31.1424 54.9071 30.0012C54.6426 28.8082 55.0816 27.554 55.4769 26.7392ZM55.142 25.2412C55.142 25.2412 53.3439 27.7478 53.8935 30.226C54.4432 32.7043 57.1323 34.2157 57.1323 34.2157C57.1323 34.2157 58.9304 31.7091 58.3808 29.2308C57.8311 26.7526 55.142 25.2412 55.142 25.2412Z" fill="white"/>
<path d="M61.247 33.8055C59.3648 34.9066 56.8422 34.0952 56.8422 34.0952C56.8422 34.0952 57.3711 31.4986 59.2533 30.3975C61.1355 29.2964 63.6582 30.1078 63.6582 30.1078C63.6582 30.1078 63.1292 32.7044 61.247 33.8055Z" fill="#48B83D"/>
<path d="M61.6411 29.8198L61.641 30.8581H61.6412C61.8781 30.8581 62.1041 30.8734 62.3096 30.8963C62.0204 31.5792 61.5197 32.4431 60.7227 32.9093C60.2287 33.1984 59.6018 33.3449 58.8595 33.3449C58.622 33.3449 58.3954 33.3295 58.1895 33.3066C58.478 32.624 58.9781 31.7613 59.7776 31.2937C60.2716 31.0047 60.8985 30.8581 61.6409 30.8581L61.6411 29.8198ZM61.6409 29.8198C60.8797 29.8199 60.0141 29.9525 59.2533 30.3975C57.3711 31.4986 56.8422 34.0952 56.8422 34.0952C56.8422 34.0952 57.7374 34.3832 58.8595 34.3832C59.6206 34.3832 60.4863 34.2505 61.247 33.8055C63.1292 32.7044 63.6582 30.1078 63.6582 30.1078C63.6582 30.1078 62.7629 29.8198 61.6409 29.8198Z" fill="white"/>
<path d="M12.3153 30.142L10.5004 27.5491H13.7679L11.7126 24.6127L9.65736 21.6763L7.60208 24.6127L5.54681 27.5491H8.81433L6.99945 30.142L4.34155 33.9394H9.65736H14.9732L12.3153 30.142Z" fill="#48B83D"/>
<path d="M9.65736 23.4869L10.862 25.208L11.7739 26.5108H10.5004H8.50639H7.5408L8.45267 25.208L9.65736 23.4869ZM9.65736 28.1552L11.4647 30.7373L12.9792 32.9011H9.65736H6.33554L7.85004 30.7373L9.65736 28.1552ZM9.65736 21.6763L7.60208 24.6127L5.54681 27.5491H8.81433L6.99945 30.142L4.34155 33.9394H9.65736H14.9732L12.3153 30.142L10.5004 27.5491H13.7679L11.7126 24.6127L9.65736 21.6763Z" fill="white"/>
<path d="M54.2891 36.1367H12.3042V37.175H54.2891V36.1367Z" fill="white"/>
<path d="M12.3042 37.1747C8.98664 37.1747 8.94824 33.9717 8.94824 33.9394H9.98648H9.46736L9.98648 33.937C9.98857 34.1622 10.0715 36.1364 12.3042 36.1364V37.1747Z" fill="white"/>
<path d="M54.2889 37.1747V36.1364C56.5217 36.1364 56.6046 34.1622 56.6066 33.937L57.6448 33.9394C57.6448 33.9717 57.6064 37.1747 54.2889 37.1747Z" fill="white"/>
<path fill-rule="evenodd" clip-rule="evenodd" d="M22.4139 48.028C20.5739 48.028 19.7582 46.8998 19.7582 45.0215C19.7582 43.1865 20.6819 42 22.4394 42C24.2718 42 25.125 43.1775 25.125 45.005C25.1325 46.8759 24.3498 48.028 22.4139 48.028ZM22.4319 43.4031C21.7691 43.4031 21.4557 44.1189 21.4557 44.9557C21.4557 45.9808 21.7001 46.6189 22.4738 46.6189C23.2236 46.6189 23.4395 45.8717 23.4395 45.011C23.4126 44.1383 23.2296 43.4031 22.4334 43.4031H22.4319ZM18.8255 46.1406C18.8255 47.2105 17.9348 47.9337 16.7576 47.9337H14.5518C14.0855 47.9337 14 47.7723 14 47.3853V42.6424C14 42.2733 14.0855 42.091 14.5518 42.091H16.7576C17.7668 42.091 18.5781 42.5259 18.5781 43.5853C18.5718 43.8066 18.5116 44.023 18.4027 44.2159C18.2937 44.4088 18.1393 44.5724 17.9528 44.6926V44.7389C18.2232 44.8575 18.4513 45.0548 18.6071 45.305C18.7629 45.5551 18.839 45.8464 18.8255 46.1406ZM16.4832 44.2458C16.7127 44.2458 16.9421 44.1621 16.9421 43.8378C16.9462 43.7826 16.9378 43.7271 16.9176 43.6755C16.8974 43.6238 16.8659 43.5773 16.8254 43.5394C16.7849 43.5014 16.7363 43.473 16.6834 43.4561C16.6304 43.4392 16.5743 43.4344 16.5192 43.4419H15.5955V44.2458H16.4832ZM16.5942 45.4831H15.5955V46.5754H16.5942C17.044 46.5754 17.1715 46.2691 17.1715 46.0315C17.1715 45.7057 16.9676 45.4831 16.5942 45.4831ZM31.4201 47.7589V42.6424C31.4201 42.2733 31.3391 42.091 30.8757 42.091H27.5183C27.0489 42.091 26.9634 42.2733 26.9634 42.6424L26.8975 44.0411C26.7865 46.0136 26.6665 46.5515 25.8208 46.9849C25.6828 47.0596 25.6678 47.0954 25.7323 47.2254L26.1657 48.0876C26.2422 48.2281 26.2797 48.2206 26.4761 48.1534C28.2027 47.4994 28.2733 46.3411 28.4162 43.9941L28.4255 43.8423L28.4525 43.4419H29.8246V47.7589C29.8246 47.8799 29.892 47.9367 30.0195 47.9367H31.2191C31.4126 47.9367 31.4201 47.8964 31.4201 47.7589ZM34.0953 47.9367H32.8957C32.7682 47.9367 32.7007 47.8799 32.7007 47.7708V43.675C32.7007 42.8666 33.1221 42.091 34.3277 42.091H36.9054C37.0433 42.091 37.0673 42.1 37.0673 42.2868V43.2326C37.0673 43.3746 37.0328 43.4179 36.9054 43.4179H34.806C34.3562 43.4179 34.2977 43.675 34.2977 43.8916V47.7768C34.2992 47.9023 34.2887 47.9367 34.0953 47.9367ZM38.8428 47.7543L39.1202 46.792H40.7952L41.0741 47.7946C41.1116 47.9201 41.203 47.9366 41.338 47.9366H42.6186C42.7536 47.9366 42.7536 47.8335 42.7311 47.7752L41.0591 42.6019C40.8956 42.1058 40.6947 42.0804 40.2958 42.0804H39.609C39.2282 42.0804 39.0362 42.1626 38.8863 42.6109L37.2173 47.7752C37.1888 47.8693 37.2173 47.9366 37.3267 47.9366H38.5729C38.7678 47.9366 38.8023 47.8798 38.8428 47.7543ZM40.2853 44.9076L40.4473 45.5547H39.4801L39.66 44.9286L39.9494 43.7032H40.0139L40.2853 44.9076ZM44.8678 47.9367H43.6681C43.5422 47.9367 43.4747 47.8799 43.4747 47.7708V42.6424C43.4747 42.3435 43.5587 42.091 44.025 42.091H46.1784C47.5114 42.091 48.2492 42.9009 48.2492 43.9693C48.2492 44.5058 48.0633 45.9478 45.91 45.9478H45.0762V47.7708C45.0762 47.9023 45.0612 47.9367 44.8678 47.9367ZM45.9849 43.4538H45.0762V44.715H45.9894C46.0714 44.7152 46.1526 44.6985 46.228 44.6662C46.3033 44.6339 46.3712 44.5865 46.4274 44.5269C46.4836 44.4674 46.527 44.397 46.5548 44.3201C46.5826 44.2433 46.5944 44.1615 46.5892 44.0799C46.5907 43.8423 46.4888 43.4523 45.9849 43.4523V43.4538ZM49.1312 46.9322C49.132 47.1068 49.1325 47.2261 49.1325 47.3883C49.1325 47.7753 49.218 47.9367 49.6813 47.9367H51.9306C53.1093 47.9367 54 47.1118 54 46.0315C54 45.4995 53.9205 44.1262 51.7822 44.1262H50.725V42.2643C50.725 42.1329 50.716 42.091 50.5211 42.091H49.3215C49.194 42.091 49.125 42.1478 49.125 42.2643C49.125 45.5663 49.129 46.4554 49.1312 46.9322ZM50.7235 45.4457H51.7732V45.4397C51.8493 45.4316 51.9262 45.4403 51.9985 45.4651C52.0708 45.4899 52.1368 45.5303 52.1917 45.5833C52.2467 45.6363 52.2892 45.7008 52.3164 45.772C52.3436 45.8433 52.3547 45.9196 52.349 45.9956C52.3544 46.0729 52.3433 46.1504 52.3164 46.2231C52.2896 46.2958 52.2475 46.362 52.1931 46.4174C52.1387 46.4727 52.0732 46.5159 52.0008 46.5442C51.9284 46.5725 51.8508 46.5851 51.7732 46.5814H50.7235V45.4457Z" fill="white"/>
</svg>
