<svg width="11" height="13" viewBox="0 0 11 13" fill="none" xmlns="http://www.w3.org/2000/svg">
<path d="M5.50108 0C2.90501 0 0.792969 2.11204 0.792969 4.70808C0.792969 7.92985 5.00626 12.6596 5.18565 12.8594C5.35414 13.047 5.64832 13.0467 5.8165 12.8594C5.99589 12.6596 10.2092 7.92985 10.2092 4.70808C10.2091 2.11204 8.09712 0 5.50108 0ZM5.50108 7.07685C4.19493 7.07685 3.13233 6.01423 3.13233 4.70808C3.13233 3.40194 4.19496 2.33934 5.50108 2.33934C6.8072 2.33934 7.86979 3.40196 7.86979 4.70811C7.86979 6.01425 6.8072 7.07685 5.50108 7.07685Z" fill="#1C81DE"/>
</svg>
