<svg width="50" height="50" viewBox="0 0 50 50" fill="none" xmlns="http://www.w3.org/2000/svg">
<path fill-rule="evenodd" clip-rule="evenodd" d="M8.108 8.108C-1.22119 17.4372 -1.22119 32.5628 8.108 41.892C17.4372 51.2212 32.5628 51.2212 41.892 41.892C51.2212 32.5628 51.2212 17.4372 41.892 8.108C32.5628 -1.22119 17.4372 -1.22119 8.108 8.108ZM7.32233 42.6777C-2.44078 32.9146 -2.44078 17.0854 7.32233 7.32233C17.0854 -2.44078 32.9146 -2.44078 42.6777 7.32233C52.4408 17.0854 52.4408 32.9146 42.6777 42.6777C32.9146 52.4408 17.0854 52.4408 7.32233 42.6777Z" fill="#E1EAF1"/>
<path d="M10.7191 10.7209C10.6078 10.8322 10.4245 10.8322 10.3132 10.7209L9.37692 9.78463C9.26562 9.67332 9.26562 9.49 9.37692 9.3787C9.48822 9.26739 9.67155 9.26739 9.78285 9.3787L10.7191 10.315C10.8304 10.4263 10.8304 10.6096 10.7191 10.7209Z" fill="#BDCAD2"/>
<path d="M40.6206 40.6223C40.5093 40.7336 40.3259 40.7337 40.2146 40.6223L39.2784 39.6861C39.1671 39.5748 39.1671 39.3915 39.2784 39.2802C39.3897 39.1688 39.573 39.1688 39.6843 39.2802L40.6206 40.2164C40.7319 40.3277 40.7319 40.511 40.6206 40.6223Z" fill="#BDCAD2"/>
<path d="M8.42756 13.4577C8.32935 13.5559 8.17222 13.569 8.05437 13.4904L6.96752 12.7309C6.83657 12.6392 6.80384 12.4625 6.8955 12.3315C6.98716 12.2006 7.16394 12.1678 7.29488 12.2595L8.38173 13.019C8.51268 13.1106 8.54541 13.2874 8.45375 13.4184C8.44066 13.4315 8.44066 13.4446 8.42756 13.4577Z" fill="#BDCAD2"/>
<path d="M43.0692 37.7153C42.971 37.8136 42.8139 37.8266 42.6961 37.7481L41.6092 36.9886C41.4783 36.8969 41.4455 36.7202 41.5372 36.5892C41.6288 36.4583 41.8056 36.4255 41.9366 36.5172L43.0234 37.2767C43.1544 37.3683 43.1871 37.5451 43.0954 37.6761C43.0889 37.6826 43.0823 37.7023 43.0692 37.7153Z" fill="#BDCAD2"/>
<path d="M6.63361 16.548C6.54849 16.6331 6.41755 16.6593 6.30624 16.6004L5.10809 16.0438C4.96405 15.9784 4.89858 15.8081 4.9706 15.6575C5.03607 15.5135 5.2063 15.448 5.35689 15.5201L6.55504 16.0766C6.69908 16.142 6.76455 16.3123 6.69253 16.4629C6.67944 16.5021 6.6598 16.5218 6.63361 16.548Z" fill="#BDCAD2"/>
<path d="M44.968 34.4155C44.8828 34.5006 44.7519 34.5268 44.6406 34.4679L43.4424 33.9114C43.2984 33.8459 43.2329 33.6757 43.305 33.5251C43.3704 33.381 43.5407 33.3156 43.6912 33.3876L44.8894 33.9441C45.0334 34.0096 45.0989 34.1798 45.0269 34.3304C45.0138 34.3697 44.9876 34.3959 44.968 34.4155Z" fill="#BDCAD2"/>
<path d="M5.41581 19.9002C5.34379 19.9722 5.23904 19.9984 5.13428 19.9722L3.85756 19.6252C3.70042 19.5859 3.60876 19.4288 3.64805 19.2716C3.68733 19.1145 3.84446 19.0228 4.0016 19.0621L5.27832 19.4091C5.43545 19.4484 5.52712 19.6056 5.48783 19.7627C5.48129 19.8216 5.44855 19.8674 5.41581 19.9002Z" fill="#BDCAD2"/>
<path d="M46.2709 30.8472C46.1989 30.9193 46.0941 30.9455 45.9893 30.9193L44.7126 30.5723C44.5555 30.533 44.4638 30.3758 44.5031 30.2187C44.5424 30.0616 44.6995 29.9699 44.8567 30.0092L46.1334 30.3562C46.2905 30.3955 46.3822 30.5526 46.3429 30.7098C46.3298 30.7752 46.3036 30.8145 46.2709 30.8472Z" fill="#BDCAD2"/>
<path d="M4.79382 23.4161C4.7349 23.475 4.64978 23.5077 4.56467 23.5012L3.24866 23.3899C3.09153 23.3768 2.97368 23.2328 2.98677 23.0756C2.99986 22.9185 3.1439 22.8006 3.30104 22.8137L4.61704 22.925C4.77418 22.9381 4.89203 23.0822 4.87894 23.2393C4.87239 23.3113 4.83965 23.3702 4.79382 23.4161Z" fill="#BDCAD2"/>
<path d="M46.9256 27.1022C46.8667 27.1611 46.7816 27.1939 46.6964 27.1873L45.3804 27.076C45.2233 27.0629 45.1055 26.9189 45.1185 26.7617C45.1316 26.6046 45.2757 26.4868 45.4328 26.4998L46.7488 26.6112C46.906 26.6242 47.0238 26.7683 47.0107 26.9254C47.0042 26.9974 46.9714 27.0564 46.9256 27.1022Z" fill="#BDCAD2"/>
<path d="M4.79382 26.9909C4.74799 27.0367 4.68906 27.0695 4.61704 27.076L3.30104 27.1873C3.1439 27.2004 2.99986 27.0826 2.98677 26.9254C2.97368 26.7683 3.09153 26.6242 3.24866 26.6112L4.56467 26.4998C4.7218 26.4868 4.86584 26.6046 4.87894 26.7617C4.88548 26.8469 4.85275 26.932 4.79382 26.9909Z" fill="#BDCAD2"/>
<path d="M46.9256 23.3048C46.8798 23.3506 46.8208 23.3833 46.7488 23.3899L45.4328 23.5012C45.2757 23.5143 45.1316 23.3964 45.1185 23.2393C45.1055 23.0822 45.2233 22.9381 45.3804 22.925L46.6964 22.8137C46.8536 22.8006 46.9976 22.9185 47.0107 23.0756C47.0173 23.1607 46.9845 23.2459 46.9256 23.3048Z" fill="#BDCAD2"/>
<path d="M5.41581 30.5068C5.38308 30.5395 5.33725 30.5723 5.28487 30.5854L4.00815 30.9324C3.85101 30.9716 3.69388 30.88 3.65459 30.7228C3.61531 30.5657 3.70697 30.4086 3.86411 30.3693L5.14083 30.0223C5.29796 29.983 5.4551 30.0747 5.49438 30.2318C5.51402 30.33 5.48783 30.4348 5.41581 30.5068Z" fill="#BDCAD2"/>
<path d="M46.2709 19.5597C46.2381 19.5925 46.1923 19.6252 46.1399 19.6383L44.8632 19.9853C44.7061 20.0246 44.5489 19.9329 44.5097 19.7758C44.4704 19.6187 44.562 19.4615 44.7192 19.4222L45.9959 19.0752C46.153 19.0359 46.3102 19.1276 46.3494 19.2847C46.3691 19.3829 46.3363 19.4943 46.2709 19.5597Z" fill="#BDCAD2"/>
<path d="M6.64016 33.8655C6.61397 33.8917 6.58778 33.9048 6.55504 33.9245L5.35689 34.481C5.21285 34.5465 5.03607 34.4875 4.9706 34.3435C4.90512 34.1995 4.96405 34.0227 5.10809 33.9572L6.30624 33.4007C6.45028 33.3352 6.62706 33.3941 6.69253 33.5382C6.75146 33.6495 6.72527 33.7804 6.64016 33.8655Z" fill="#BDCAD2"/>
<path d="M44.968 15.9915C44.9418 16.0176 44.9156 16.0307 44.8828 16.0504L43.6847 16.6069C43.5407 16.6724 43.3639 16.6134 43.2984 16.4694C43.2329 16.3254 43.2919 16.1486 43.4359 16.0831L44.634 15.5266C44.7781 15.4611 44.9549 15.52 45.0203 15.6641C45.0793 15.7754 45.0531 15.9063 44.968 15.9915Z" fill="#BDCAD2"/>
<path d="M8.42102 36.9559C8.40792 36.969 8.39483 36.9821 8.38828 36.9886L7.30143 37.7481C7.17048 37.8397 6.99371 37.807 6.90205 37.6761C6.81038 37.5451 6.84312 37.3683 6.97407 37.2767L8.06092 36.5172C8.19186 36.4255 8.36864 36.4583 8.4603 36.5892C8.53232 36.7005 8.51922 36.8577 8.42102 36.9559Z" fill="#BDCAD2"/>
<path d="M43.0627 12.6982C43.0496 12.7113 43.0365 12.7244 43.03 12.7309L41.9431 13.4904C41.8122 13.5821 41.6354 13.5493 41.5437 13.4184C41.4521 13.2874 41.4848 13.1106 41.6158 13.019L42.7026 12.2595C42.8335 12.1678 43.0103 12.2006 43.102 12.3315C43.1805 12.4494 43.1609 12.6 43.0627 12.6982Z" fill="#BDCAD2"/>
<path d="M10.7191 39.6861L9.78285 40.6223C9.67155 40.7337 9.48822 40.7337 9.37692 40.6223C9.26562 40.511 9.26562 40.3277 9.37692 40.2164L10.3132 39.2802C10.4245 39.1688 10.6078 39.1688 10.7191 39.2802C10.8304 39.3915 10.8304 39.5748 10.7191 39.6861Z" fill="#BDCAD2"/>
<path d="M40.6206 9.78463L39.6843 10.7209C39.573 10.8322 39.3897 10.8322 39.2784 10.7209C39.1671 10.6096 39.1671 10.4263 39.2784 10.315L40.2146 9.3787C40.3259 9.26739 40.5093 9.26739 40.6206 9.3787C40.7319 9.49 40.7319 9.67333 40.6206 9.78463Z" fill="#BDCAD2"/>
<path d="M12.6964 43.0645C12.5982 43.1627 12.441 43.1758 12.3232 43.0972C12.1923 43.0056 12.1595 42.8288 12.2512 42.6978L13.0107 41.611C13.1023 41.48 13.2791 41.4473 13.41 41.539C13.541 41.6306 13.5737 41.8074 13.4821 41.9384L12.7291 43.0317C12.716 43.0448 12.7029 43.0579 12.6964 43.0645Z" fill="#BDCAD2"/>
<path d="M36.9541 8.42279C36.8559 8.521 36.6987 8.5341 36.5809 8.45553C36.4499 8.36387 36.4172 8.18709 36.5089 8.05614L37.2684 6.9693C37.36 6.83835 37.5368 6.80561 37.6677 6.89727C37.7987 6.98894 37.8314 7.16571 37.7398 7.29666L36.9803 8.38351C36.9737 8.40315 36.9606 8.41624 36.9541 8.42279Z" fill="#BDCAD2"/>
<path d="M15.9897 44.9697C15.9046 45.0549 15.7736 45.081 15.6623 45.0221C15.5183 44.9566 15.4528 44.7864 15.5248 44.6358L16.0813 43.4377C16.1468 43.2936 16.317 43.2282 16.4676 43.3002C16.6117 43.3657 16.6771 43.5359 16.6051 43.6865L16.0486 44.8846C16.029 44.9174 16.0093 44.9501 15.9897 44.9697Z" fill="#BDCAD2"/>
<path d="M33.8638 6.64193C33.7787 6.72705 33.6477 6.75323 33.5364 6.69431C33.3924 6.62884 33.3269 6.45861 33.3989 6.30802L33.9554 5.10987C34.0209 4.96583 34.1911 4.90035 34.3417 4.97237C34.4858 5.03785 34.5512 5.20808 34.4792 5.35866L33.9227 6.55682C33.9031 6.58955 33.8834 6.62229 33.8638 6.64193Z" fill="#BDCAD2"/>
<path d="M19.5579 46.2726C19.4859 46.3447 19.3812 46.3709 19.2764 46.3447C19.1193 46.3054 19.0276 46.1483 19.0669 45.9911L19.4139 44.7144C19.4532 44.5573 19.6103 44.4656 19.7675 44.5049C19.9246 44.5442 20.0163 44.7013 19.977 44.8584L19.63 46.1352C19.6169 46.1875 19.5972 46.2334 19.5579 46.2726Z" fill="#BDCAD2"/>
<path d="M30.505 5.41759C30.433 5.48961 30.3282 5.5158 30.2235 5.48961C30.0663 5.45032 29.9747 5.29319 30.014 5.13605L30.361 3.85933C30.4003 3.7022 30.5574 3.61054 30.7145 3.64982C30.8717 3.6891 30.9633 3.84624 30.924 4.00337L30.577 5.28009C30.5705 5.33902 30.5377 5.38485 30.505 5.41759Z" fill="#BDCAD2"/>
<path d="M23.303 46.9274C23.2441 46.9863 23.159 47.019 23.0738 47.0125C22.9167 46.9994 22.7989 46.8554 22.812 46.6982L22.9233 45.3822C22.9363 45.2251 23.0804 45.1072 23.2375 45.1203C23.3947 45.1334 23.5125 45.2775 23.4994 45.4346L23.3881 46.7506C23.3816 46.8226 23.3488 46.8815 23.303 46.9274Z" fill="#BDCAD2"/>
<path d="M26.9891 4.7956C26.9302 4.85452 26.8451 4.88726 26.76 4.88071C26.6028 4.86762 26.485 4.72358 26.4981 4.56644L26.6094 3.25044C26.6225 3.0933 26.7665 2.97545 26.9236 2.98855C27.0808 3.00164 27.1986 3.14568 27.1855 3.30282L27.0742 4.61882C27.0677 4.69084 27.0349 4.74976 26.9891 4.7956Z" fill="#BDCAD2"/>
<path d="M27.1004 46.9274C27.0546 46.9732 26.9957 47.0059 26.9236 47.0125C26.7665 47.0256 26.6225 46.9077 26.6094 46.7506L26.4981 45.4346C26.485 45.2775 26.6028 45.1334 26.76 45.1203C26.9171 45.1072 27.0611 45.2251 27.0742 45.3822L27.1855 46.6982C27.1986 46.7899 27.1593 46.8685 27.1004 46.9274Z" fill="#BDCAD2"/>
<path d="M23.4143 4.7956C23.3685 4.84143 23.3095 4.87416 23.2375 4.88071C23.0804 4.8938 22.9363 4.77596 22.9233 4.61882L22.812 3.30281C22.7989 3.14568 22.9167 3.00164 23.0738 2.98855C23.231 2.97545 23.375 3.0933 23.3881 3.25044L23.4994 4.56644C23.5125 4.6581 23.4732 4.73667 23.4143 4.7956Z" fill="#BDCAD2"/>
<path d="M30.8455 46.2727C30.8127 46.3054 30.7669 46.3381 30.7145 46.3512C30.5574 46.3905 30.4003 46.2988 30.361 46.1417L30.014 44.865C29.9747 44.7078 30.0663 44.5507 30.2235 44.5114C30.3806 44.4721 30.5377 44.5638 30.577 44.7209L30.924 45.9977C30.9502 46.0893 30.9175 46.2006 30.8455 46.2727Z" fill="#BDCAD2"/>
<path d="M19.8984 5.41759C19.8657 5.45032 19.8198 5.48306 19.7675 5.49616C19.6103 5.53544 19.4532 5.44378 19.4139 5.28664L19.0669 4.00992C19.0276 3.85279 19.1193 3.69565 19.2764 3.65637C19.4335 3.61709 19.5907 3.70875 19.63 3.86588L19.977 5.1426C20.0032 5.24736 19.9704 5.34557 19.8984 5.41759Z" fill="#BDCAD2"/>
<path d="M34.4137 44.9697C34.3875 44.9959 34.3614 45.009 34.3286 45.0287C34.1846 45.0941 34.0078 45.0352 33.9423 44.8912L33.3858 43.693C33.3203 43.549 33.3793 43.3722 33.5233 43.3067C33.6673 43.2413 33.8441 43.3002 33.9096 43.4442L34.4661 44.6424C34.525 44.7537 34.4989 44.8846 34.4137 44.9697Z" fill="#BDCAD2"/>
<path d="M16.5462 6.63538C16.52 6.66157 16.4938 6.67467 16.4611 6.69431C16.317 6.75978 16.1403 6.70086 16.0748 6.55682L15.5183 5.35866C15.4528 5.21462 15.5117 5.03785 15.6558 4.97237C15.7998 4.9069 15.9766 4.96583 16.0421 5.10987L16.5986 6.30802C16.651 6.42587 16.6248 6.55681 16.5462 6.63538Z" fill="#BDCAD2"/>
<path d="M37.7136 43.071C37.7005 43.0841 37.6874 43.0972 37.6808 43.1038C37.5499 43.1954 37.3731 43.1627 37.2814 43.0317L36.522 41.9449C36.4303 41.8139 36.463 41.6372 36.594 41.5455C36.7249 41.4538 36.9017 41.4866 36.9934 41.6175L37.7529 42.7044C37.8249 42.8157 37.8118 42.9728 37.7136 43.071Z" fill="#BDCAD2"/>
<path d="M13.4559 8.42934C13.4428 8.44243 13.4297 8.45553 13.4231 8.46208C13.2922 8.55374 13.1154 8.521 13.0238 8.39006L12.2643 7.30321C12.1726 7.17226 12.2053 6.99548 12.3363 6.90382C12.4672 6.81216 12.644 6.8449 12.7357 6.97584L13.4952 8.06269C13.5672 8.174 13.5541 8.33113 13.4559 8.42934Z" fill="#BDCAD2"/>
<path d="M11.1512 13.4184C11.0465 13.5231 10.8762 13.5362 10.7649 13.438L8.10675 11.2119C7.9889 11.1072 7.96925 10.9304 8.06746 10.806C8.16567 10.6816 8.349 10.6685 8.4734 10.7667L11.1316 12.9928C11.2494 13.0976 11.2691 13.2743 11.1709 13.3987C11.1643 13.4053 11.1578 13.4118 11.1512 13.4184Z" fill="#BDCAD2"/>
<path d="M41.9038 39.2212C41.7991 39.326 41.6288 39.3391 41.5175 39.2409L38.8593 37.0148C38.7415 36.91 38.7218 36.7333 38.8201 36.6089C38.9183 36.4845 39.1016 36.4714 39.226 36.5696L41.8842 38.7957C42.002 38.9004 42.0217 39.0772 41.9235 39.2016C41.9169 39.2081 41.9104 39.2147 41.9038 39.2212Z" fill="#BDCAD2"/>
<path d="M9.318 16.0373C9.22633 16.1289 9.08884 16.1486 8.97099 16.0831L5.96579 14.3481C5.82829 14.263 5.77591 14.0927 5.86103 13.9552C5.9396 13.8112 6.11637 13.7654 6.25387 13.8505L9.25907 15.5855C9.39656 15.6706 9.44894 15.8409 9.36383 15.9784C9.35728 15.998 9.33764 16.0176 9.318 16.0373Z" fill="#BDCAD2"/>
<path d="M44.0906 36.1047C43.999 36.1964 43.8615 36.216 43.7436 36.1505L40.7384 34.4155C40.6009 34.3304 40.5485 34.1602 40.6337 34.0227C40.7122 33.8786 40.889 33.8328 41.0265 33.9179L44.0317 35.653C44.1692 35.7381 44.2216 35.9083 44.1365 36.0458C44.1234 36.072 44.1037 36.0916 44.0906 36.1047Z" fill="#BDCAD2"/>
<path d="M7.96925 18.9312C7.89069 19.0098 7.77284 19.0359 7.66808 18.9967L4.40753 17.8051C4.25694 17.7461 4.17838 17.589 4.2373 17.4384C4.29623 17.2878 4.45336 17.2092 4.60395 17.2682L7.8645 18.4598C8.01509 18.5187 8.09365 18.6758 8.03473 18.8264C8.02163 18.8657 7.99544 18.905 7.96925 18.9312Z" fill="#BDCAD2"/>
<path d="M45.6947 32.6674C45.6161 32.746 45.4983 32.7721 45.3935 32.7329L42.133 31.5413C41.9824 31.4823 41.9038 31.3252 41.9628 31.1746C42.0217 31.024 42.1788 30.9455 42.3294 31.0044L45.59 32.196C45.7405 32.2549 45.8191 32.412 45.7602 32.5626C45.7471 32.6019 45.7274 32.6347 45.6947 32.6674Z" fill="#BDCAD2"/>
<path d="M7.1443 22.0215C7.07882 22.087 6.98061 22.1197 6.88895 22.1066L3.47127 21.5043C3.31413 21.4781 3.20938 21.3209 3.24211 21.1704C3.2683 21.0132 3.42544 20.9085 3.57603 20.9412L6.99371 21.5305C7.15084 21.5566 7.2556 21.7138 7.22286 21.8644C7.20977 21.9298 7.18358 21.9822 7.1443 22.0215Z" fill="#BDCAD2"/>
<path d="M46.6768 28.9878C46.6113 29.0533 46.5131 29.086 46.4215 29.0729L43.0038 28.4706C42.8466 28.4444 42.7419 28.2873 42.7746 28.1367C42.8008 27.9795 42.9579 27.8748 43.1085 27.9075L46.5262 28.5099C46.6834 28.5361 46.7881 28.6932 46.7554 28.8438C46.7488 28.9027 46.7161 28.9485 46.6768 28.9878Z" fill="#BDCAD2"/>
<path d="M6.86931 25.2035C6.81693 25.2559 6.74491 25.2886 6.66634 25.2886H3.19628C3.03915 25.2886 2.9082 25.1577 2.9082 25.0005C2.9082 24.8434 3.03915 24.7124 3.19628 24.7124H6.66634C6.82348 24.7124 6.95442 24.8434 6.95442 25.0005C6.95442 25.0791 6.92169 25.1511 6.86931 25.2035Z" fill="#BDCAD2"/>
<path d="M47.0107 25.21C46.9583 25.2624 46.8863 25.2951 46.8077 25.2951H43.3377C43.1806 25.2951 43.0496 25.1642 43.0496 25.0071C43.0496 24.8499 43.1806 24.719 43.3377 24.719H46.8078C46.9649 24.719 47.0958 24.8499 47.0958 25.0071C47.0958 25.0856 47.0631 25.1577 47.0107 25.21Z" fill="#BDCAD2"/>
<path d="M7.1443 28.3855C7.10501 28.4247 7.05263 28.4509 6.98716 28.464L3.56948 29.0664C3.41234 29.0926 3.26176 28.9944 3.23557 28.8372C3.20938 28.6801 3.30759 28.5295 3.46472 28.5033L6.8824 27.901C7.03954 27.8748 7.19013 27.973 7.21632 28.1301C7.24251 28.2349 7.20322 28.3265 7.1443 28.3855Z" fill="#BDCAD2"/>
<path d="M46.6768 21.4192C46.6375 21.4584 46.5851 21.4846 46.5197 21.4977L43.102 22.1001C42.9448 22.1263 42.7943 22.0281 42.7681 21.8709C42.7419 21.7138 42.8401 21.5632 42.9972 21.537L46.4149 20.9347C46.572 20.9085 46.7226 21.0067 46.7488 21.1638C46.775 21.2555 46.7423 21.3537 46.6768 21.4192Z" fill="#BDCAD2"/>
<path d="M7.96925 31.4758C7.94306 31.502 7.90378 31.5282 7.8645 31.5413L4.60395 32.7329C4.45336 32.7918 4.28968 32.7067 4.2373 32.5626C4.17838 32.412 4.26349 32.2484 4.40753 32.196L7.66808 31.0044C7.81867 30.9455 7.98235 31.0306 8.03473 31.1746C8.08056 31.2859 8.04782 31.3972 7.96925 31.4758Z" fill="#BDCAD2"/>
<path d="M45.7013 17.7461C45.6751 17.7723 45.6358 17.7985 45.5965 17.8116L42.336 19.0032C42.1854 19.0621 42.0217 18.977 41.9693 18.833C41.9169 18.6889 41.9955 18.5187 42.1395 18.4663L45.4001 17.2747C45.5507 17.2158 45.7143 17.3009 45.7667 17.445C45.806 17.5497 45.7733 17.6741 45.7013 17.7461Z" fill="#BDCAD2"/>
<path d="M9.32454 34.3762C9.3049 34.3959 9.29181 34.409 9.26562 34.4221L6.26041 36.1571C6.12292 36.2422 5.9396 36.1898 5.86758 36.0523C5.78246 35.9148 5.83484 35.7315 5.97233 35.6595L8.97754 33.9245C9.11503 33.8394 9.29835 33.8917 9.37037 34.0292C9.4293 34.1405 9.4162 34.2846 9.32454 34.3762Z" fill="#BDCAD2"/>
<path d="M44.0906 14.3023C44.071 14.3219 44.0579 14.335 44.0317 14.3481L41.0265 16.0831C40.889 16.1682 40.7057 16.1159 40.6337 15.9784C40.5485 15.8409 40.6009 15.6575 40.7384 15.5855L43.7436 13.8505C43.8811 13.7654 44.0644 13.8178 44.1365 13.9552C44.2019 14.0731 44.1823 14.2106 44.0906 14.3023Z" fill="#BDCAD2"/>
<path d="M11.1578 36.9951C11.1512 37.0017 11.1447 37.0082 11.1381 37.0148L8.47994 39.2409C8.36209 39.3456 8.17222 39.326 8.07401 39.2016C7.96925 39.0837 7.98889 38.8939 8.11329 38.7956L10.7715 36.5696C10.8893 36.4648 11.0792 36.4845 11.1774 36.6089C11.2691 36.7136 11.2625 36.8904 11.1578 36.9951Z" fill="#BDCAD2"/>
<path d="M41.9038 11.1857C41.8973 11.1923 41.8907 11.1988 41.8842 11.2054L39.226 13.4315C39.1081 13.5362 38.9183 13.5166 38.8201 13.3922C38.7153 13.2743 38.7349 13.0845 38.8593 12.9863L41.5175 10.7602C41.6354 10.6554 41.8253 10.6751 41.9235 10.7995C42.0217 10.9108 42.0086 11.081 41.9038 11.1857Z" fill="#BDCAD2"/>
<path d="M11.184 41.9056C11.0792 42.0104 10.909 42.0235 10.7977 41.9253C10.6798 41.8205 10.6602 41.6437 10.7584 41.5193L12.9845 38.8611C13.0892 38.7433 13.266 38.7236 13.3904 38.8218C13.5083 38.9266 13.5279 39.1034 13.4297 39.2278L11.2036 41.886C11.1971 41.8925 11.1905 41.8991 11.184 41.9056Z" fill="#BDCAD2"/>
<path d="M36.9934 11.1596C36.8886 11.2643 36.7184 11.2774 36.6071 11.1792C36.4892 11.0744 36.4696 10.8977 36.5678 10.7733L38.7939 8.11507C38.8921 7.99067 39.0754 7.97758 39.1998 8.07579C39.3242 8.174 39.3373 8.35732 39.2391 8.48172L37.013 11.1399C37.0065 11.1465 36.9999 11.153 36.9934 11.1596Z" fill="#BDCAD2"/>
<path d="M14.3005 44.0924C14.2088 44.1841 14.0713 44.2037 13.9535 44.1382C13.816 44.0531 13.7636 43.8829 13.8487 43.7454L15.5837 40.7402C15.6623 40.5962 15.8391 40.5503 15.9766 40.6354C16.1141 40.7206 16.1665 40.8908 16.0813 41.0283L14.3463 44.0335C14.3267 44.0531 14.3201 44.0728 14.3005 44.0924Z" fill="#BDCAD2"/>
<path d="M34.3745 9.32632C34.2828 9.41798 34.1453 9.43762 34.0274 9.37215C33.89 9.28703 33.8376 9.1168 33.9227 8.97931L35.6577 5.97411C35.7363 5.83007 35.9131 5.78424 36.0506 5.86935C36.1881 5.95447 36.2404 6.1247 36.1553 6.26219L34.4203 9.26739C34.4006 9.28703 34.3941 9.30667 34.3745 9.32632Z" fill="#BDCAD2"/>
<path d="M17.7444 45.703C17.6658 45.7816 17.5479 45.8078 17.4432 45.7685C17.2926 45.7096 17.214 45.5524 17.2729 45.4019L18.4646 42.1413C18.5235 41.9907 18.6806 41.9122 18.8312 41.9711C18.9818 42.03 19.0604 42.1871 19.0014 42.3377L17.8098 45.5983C17.7967 45.6376 17.7771 45.6703 17.7444 45.703Z" fill="#BDCAD2"/>
<path d="M31.474 7.97103C31.3954 8.0496 31.2776 8.07579 31.1728 8.0365C31.0222 7.97758 30.9437 7.82044 31.0026 7.66985L32.1942 4.40931C32.2531 4.25872 32.4103 4.18015 32.5609 4.23908C32.7114 4.298 32.79 4.45514 32.7311 4.60573L31.5395 7.86627C31.5264 7.90556 31.5002 7.94484 31.474 7.97103Z" fill="#BDCAD2"/>
<path d="M21.4174 46.6786C21.3519 46.7441 21.2537 46.7768 21.162 46.7637C21.0049 46.7375 20.9001 46.5804 20.9329 46.4298L21.5287 43.0056C21.5549 42.8484 21.712 42.7437 21.8626 42.7764C22.0197 42.8026 22.1245 42.9597 22.0917 43.1103L21.4894 46.528C21.4829 46.5869 21.4567 46.6393 21.4174 46.6786Z" fill="#BDCAD2"/>
<path d="M28.3837 7.14607C28.3182 7.21154 28.22 7.24428 28.1283 7.23118C27.9712 7.205 27.8665 7.04786 27.8992 6.89727L28.5015 3.47959C28.5277 3.32246 28.6849 3.2177 28.8355 3.25044C28.9926 3.27663 29.0973 3.43376 29.0646 3.58435L28.4688 6.99548C28.4557 7.04786 28.4295 7.10024 28.3837 7.14607Z" fill="#BDCAD2"/>
<path d="M25.2083 47.0125C25.1559 47.0649 25.0839 47.0976 25.0053 47.0976C24.8482 47.0976 24.7172 46.9667 24.7172 46.8095V43.3395C24.7172 43.1823 24.8482 43.0514 25.0053 43.0514C25.1624 43.0514 25.2934 43.1823 25.2934 43.3395V46.8095C25.2934 46.8881 25.2606 46.9601 25.2083 47.0125Z" fill="#BDCAD2"/>
<path d="M25.2017 6.87109C25.1493 6.92346 25.0773 6.9562 24.9987 6.9562C24.8416 6.9562 24.7107 6.82526 24.7107 6.66812V3.19806C24.7107 3.04092 24.8416 2.90998 24.9987 2.90998C25.1559 2.90998 25.2868 3.04092 25.2868 3.19806V6.66812C25.2868 6.74669 25.2541 6.81871 25.2017 6.87109Z" fill="#BDCAD2"/>
<path d="M28.986 46.6786C28.9468 46.7179 28.8944 46.7441 28.8289 46.7571C28.6718 46.7833 28.5212 46.6851 28.495 46.528L27.8926 43.1103C27.8665 42.9532 27.9647 42.8026 28.1218 42.7764C28.2789 42.7502 28.4295 42.8484 28.4557 43.0056L29.0581 46.4232C29.0908 46.5214 29.0515 46.6131 28.986 46.6786Z" fill="#BDCAD2"/>
<path d="M22.0197 7.14607C21.9804 7.18535 21.9281 7.21155 21.8626 7.22464C21.7055 7.25083 21.5549 7.15262 21.5287 6.99548L20.9263 3.5778C20.9001 3.42066 20.9984 3.27008 21.1555 3.24389C21.3126 3.2177 21.4632 3.31591 21.4894 3.47304L22.0917 6.89073C22.1114 6.98894 22.0852 7.0806 22.0197 7.14607Z" fill="#BDCAD2"/>
<path d="M32.6656 45.6965C32.6394 45.7227 32.6001 45.7489 32.5609 45.762C32.4103 45.8209 32.2466 45.7358 32.1942 45.5917L31.0026 42.3312C30.9437 42.1806 31.0288 42.0169 31.1728 41.9645C31.3234 41.9056 31.4871 41.9907 31.5395 42.1348L32.7311 45.3953C32.7704 45.5001 32.7376 45.6245 32.6656 45.6965Z" fill="#BDCAD2"/>
<path d="M18.9294 7.97103C18.9032 7.99722 18.8639 8.02341 18.8247 8.0365C18.6741 8.09543 18.5104 8.01031 18.458 7.86627L17.2664 4.60572C17.2075 4.45514 17.2926 4.29146 17.4366 4.23908C17.5872 4.18015 17.7509 4.26527 17.8033 4.40931L18.9949 7.66985C19.0407 7.78116 19.008 7.89246 18.9294 7.97103Z" fill="#BDCAD2"/>
<path d="M36.1029 44.0924C36.0833 44.112 36.0702 44.1251 36.044 44.1382C35.9065 44.2234 35.7232 44.171 35.6512 44.0335L33.9161 41.0283C33.831 40.8908 33.8834 40.7075 34.0209 40.6354C34.1584 40.5503 34.3417 40.6027 34.4137 40.7402L36.1488 43.7454C36.2208 43.8567 36.1946 44.0007 36.1029 44.0924Z" fill="#BDCAD2"/>
<path d="M16.0355 9.31977C16.0159 9.33941 16.0028 9.35251 15.9766 9.3656C15.8391 9.45072 15.6558 9.39834 15.5837 9.26085L13.8487 6.25564C13.7636 6.11815 13.816 5.93482 13.9535 5.8628C14.091 5.77769 14.2743 5.83007 14.3463 5.96756L16.0813 8.97276C16.1468 9.09062 16.1206 9.23466 16.0355 9.31977Z" fill="#BDCAD2"/>
<path d="M39.2195 41.9056C39.2129 41.9122 39.2064 41.9187 39.1998 41.9253C39.082 42.03 38.8921 42.0104 38.7939 41.886L36.5678 39.2278C36.463 39.1099 36.4827 38.92 36.6071 38.8218C36.7249 38.7171 36.9148 38.7367 37.013 38.8611L39.2391 41.5193C39.3308 41.6372 39.3242 41.8009 39.2195 41.9056Z" fill="#BDCAD2"/>
<path d="M13.4166 11.153C13.41 11.1596 13.4035 11.1661 13.397 11.1727C13.2726 11.2709 13.0892 11.2578 12.991 11.1334L10.7649 8.47517C10.6602 8.35732 10.6733 8.174 10.8042 8.06924C10.9286 7.97103 11.112 7.98412 11.2102 8.10852L13.4362 10.7667C13.5279 10.8846 13.5214 11.0483 13.4166 11.153Z" fill="#BDCAD2"/>
<path d="M29.045 25.0005L24.9987 2.88379L20.9525 25.0005L24.9987 47.1172L29.045 25.0005Z" fill="#BDCAD2"/>
<path d="M29.0457 25.0001L24.9994 2.88337L20.9532 25.0001H29.0457Z" fill="#FF525D"/>
<path d="M29.0462 25.0005L25 2.88379V47.1172L29.0462 25.0005Z" fill="white" fill-opacity="0.2"/>
</svg>
