<svg width="12" height="12" viewBox="0 0 12 12" fill="none" xmlns="http://www.w3.org/2000/svg">
<path d="M5.72362 0.1215L1.59862 4.6215C1.49887 4.731 1.47187 4.89 1.53262 5.02575C1.59187 5.16225 1.72687 5.25 1.87537 5.25H10.1254C10.2739 5.25 10.4089 5.16225 10.4689 5.02575C10.4899 4.97775 10.5004 4.926 10.5004 4.875C10.5004 4.78275 10.4666 4.692 10.4014 4.6215L6.27637 0.1215C6.20587 0.0435 6.10537 0 6.00037 0C5.89537 0 5.79487 0.0435 5.72362 0.1215Z" fill="#AFBDC8"/>
<path d="M1.53262 6.97425C1.47262 7.11 1.49887 7.269 1.59937 7.3785L5.72437 11.8785C5.79487 11.9557 5.89537 12 6.00037 12C6.10537 12 6.20587 11.9557 6.27712 11.8785L10.4021 7.3785C10.4666 7.308 10.5004 7.2165 10.5004 7.125C10.5004 7.074 10.4899 7.02225 10.4689 6.97425C10.4089 6.83775 10.2739 6.75 10.1254 6.75H1.87537C1.72687 6.75 1.59187 6.83775 1.53262 6.97425Z" fill="#1C81DE"/>
</svg>
