<svg width="35" height="37" viewBox="0 0 35 37" fill="none" xmlns="http://www.w3.org/2000/svg">
    <path fill-rule="evenodd" clip-rule="evenodd" d="M1.20689 35.7664H8.44825V32.0664H1.20689V35.7664ZM9.05169 36.9997H0.603446C0.270344 36.9997 0 36.7241 0 36.3831V31.4497C0 31.1093 0.270344 30.8331 0.603446 30.8331H9.05169C9.3848 30.8331 9.65514 31.1093 9.65514 31.4497V36.3831C9.65514 36.7241 9.3848 36.9997 9.05169 36.9997Z" fill="#1C81DE"/>
    <path fill-rule="evenodd" clip-rule="evenodd" d="M9.65502 35.7664H16.8964V32.0664H9.65502V35.7664ZM17.4998 36.9997H9.05169C8.71859 36.9997 8.44813 36.7241 8.44813 36.3831V31.4497C8.44813 31.1093 8.71859 30.8331 9.05169 30.8331H17.4998C17.8329 30.8331 18.1033 31.1093 18.1033 31.4497V36.3831C18.1033 36.7241 17.8329 36.9997 17.4998 36.9997Z" fill="#1C81DE"/>
    <path fill-rule="evenodd" clip-rule="evenodd" d="M1.20689 30.8331H4.22412V27.1331H1.20689V30.8331ZM4.82757 32.0664H0.603446C0.270344 32.0664 0 31.7907 0 31.4497V26.5164C0 26.176 0.270344 25.8998 0.603446 25.8998H4.82757C5.16067 25.8998 5.43102 26.176 5.43102 26.5164V31.4498C5.43102 31.7908 5.16067 32.0664 4.82757 32.0664Z" fill="#1C81DE"/>
    <path fill-rule="evenodd" clip-rule="evenodd" d="M30.7759 30.8331H33.7931V27.1331H30.7759V30.8331ZM34.3966 32.0664H30.1724C29.8393 32.0664 29.569 31.7908 29.569 31.4498V26.5164C29.569 26.176 29.8393 25.8998 30.1724 25.8998H34.3966C34.7297 25.8998 35 26.176 35 26.5164V31.4498C35 31.7908 34.7297 32.0664 34.3966 32.0664Z" fill="#1C81DE"/>
    <path fill-rule="evenodd" clip-rule="evenodd" d="M5.43113 30.8331H12.6725V27.1331H5.43113V30.8331ZM13.2759 32.0664H4.82757C4.49447 32.0664 4.22424 31.7908 4.22424 31.4498V26.5164C4.22424 26.176 4.49447 25.8998 4.82757 25.8998H13.2759C13.609 25.8998 13.8794 26.176 13.8794 26.5164V31.4498C13.8794 31.7908 13.609 32.0664 13.2759 32.0664Z" fill="#1C81DE"/>
    <path fill-rule="evenodd" clip-rule="evenodd" d="M1.20689 25.8997H8.44825V22.1997H1.20689V25.8997ZM9.05169 27.133H0.603446C0.270344 27.133 0 26.8574 0 26.5164V21.583C0 21.2426 0.270344 20.9664 0.603446 20.9664H9.05169C9.3848 20.9664 9.65514 21.2426 9.65514 21.583V26.5164C9.65514 26.8574 9.3848 27.133 9.05169 27.133Z" fill="#1C81DE"/>
    <path fill-rule="evenodd" clip-rule="evenodd" d="M9.65502 25.8997H16.8964V22.1997H9.65502V25.8997ZM17.4998 27.133H9.05169C8.71859 27.133 8.44813 26.8574 8.44813 26.5164V21.583C8.44813 21.2426 8.71859 20.9664 9.05169 20.9664H17.4998C17.8329 20.9664 18.1033 21.2426 18.1033 21.583V26.5164C18.1033 26.8574 17.8329 27.133 17.4998 27.133Z" fill="#1C81DE"/>
    <path fill-rule="evenodd" clip-rule="evenodd" d="M1.20689 20.9664H4.22412V17.2664H1.20689V20.9664ZM4.82757 22.1997H0.603446C0.270344 22.1997 0 21.924 0 21.583V16.6497C0 16.3093 0.270344 16.033 0.603446 16.033H4.82757C5.16067 16.033 5.43102 16.3093 5.43102 16.6497V21.583C5.43102 21.9241 5.16067 22.1997 4.82757 22.1997Z" fill="#1C81DE"/>
    <path fill-rule="evenodd" clip-rule="evenodd" d="M30.7759 20.9664H33.7931V17.2664H30.7759V20.9664ZM34.3966 22.1997H30.1724C29.8393 22.1997 29.569 21.9241 29.569 21.583V16.6497C29.569 16.3093 29.8393 16.033 30.1724 16.033H34.3966C34.7297 16.033 35 16.3093 35 16.6497V21.583C35 21.9241 34.7297 22.1997 34.3966 22.1997Z" fill="#1C81DE"/>
    <path fill-rule="evenodd" clip-rule="evenodd" d="M5.43113 20.9664H12.6725V17.2664H5.43113V20.9664ZM13.2759 22.1997H4.82757C4.49447 22.1997 4.22424 21.9241 4.22424 21.583V16.6497C4.22424 16.3093 4.49447 16.033 4.82757 16.033H13.2759C13.609 16.033 13.8794 16.3093 13.8794 16.6497V21.583C13.8794 21.9241 13.609 22.1997 13.2759 22.1997Z" fill="#1C81DE"/>
    <path fill-rule="evenodd" clip-rule="evenodd" d="M1.20689 16.0331H8.44825V12.3331H1.20689V16.0331ZM9.05169 17.2664H0.603446C0.270344 17.2664 0 16.9907 0 16.6497V11.7164C0 11.376 0.270344 11.0997 0.603446 11.0997H9.05169C9.3848 11.0997 9.65514 11.376 9.65514 11.7164V16.6497C9.65514 16.9908 9.3848 17.2664 9.05169 17.2664Z" fill="#1C81DE"/>
    <path fill-rule="evenodd" clip-rule="evenodd" d="M9.65502 16.0331H16.8964V12.3331H9.65502V16.0331ZM17.4998 17.2664H9.05169C8.71859 17.2664 8.44813 16.9908 8.44813 16.6497V11.7164C8.44813 11.376 8.71859 11.0997 9.05169 11.0997H17.4998C17.8329 11.0997 18.1033 11.376 18.1033 11.7164V16.6497C18.1033 16.9908 17.8329 17.2664 17.4998 17.2664Z" fill="#1C81DE"/>
    <path fill-rule="evenodd" clip-rule="evenodd" d="M1.20689 11.0997H4.22412V7.39968H1.20689V11.0997ZM4.82757 12.333H0.603446C0.270344 12.333 0 12.0574 0 11.7164V6.78301C0 6.44261 0.270344 6.16634 0.603446 6.16634H4.82757C5.16067 6.16634 5.43102 6.44261 5.43102 6.78301V11.7163C5.43102 12.0574 5.16067 12.333 4.82757 12.333Z" fill="#1C81DE"/>
    <path fill-rule="evenodd" clip-rule="evenodd" d="M5.43113 11.0997H12.6725V7.39968H5.43113V11.0997ZM13.2759 12.333H4.82757C4.49447 12.333 4.22424 12.0574 4.22424 11.7163V6.78301C4.22424 6.44261 4.49447 6.16634 4.82757 6.16634H13.2759C13.609 6.16634 13.8794 6.44261 13.8794 6.78301V11.7163C13.8794 12.0574 13.609 12.333 13.2759 12.333Z" fill="#1C81DE"/>
    <path fill-rule="evenodd" clip-rule="evenodd" d="M22.9311 32.6834H21.1207C20.7876 32.6834 20.5173 32.4077 20.5173 32.0667C20.5173 31.7257 20.7876 31.45 21.1207 31.45H22.9311C23.2642 31.45 23.5345 31.7257 23.5345 32.0667C23.5345 32.4077 23.2642 32.6834 22.9311 32.6834Z" fill="#1C81DE"/>
    <path fill-rule="evenodd" clip-rule="evenodd" d="M22.9311 30.2167H21.1207C20.7876 30.2167 20.5173 29.941 20.5173 29.6C20.5173 29.259 20.7876 28.9833 21.1207 28.9833H22.9311C23.2642 28.9833 23.5345 29.259 23.5345 29.6C23.5345 29.941 23.2642 30.2167 22.9311 30.2167Z" fill="#1C81DE"/>
    <path fill-rule="evenodd" clip-rule="evenodd" d="M22.0739 16.0333H26.2015L27.724 13.3108C28.1802 12.4943 28.5592 11.6279 28.85 10.7362C29.3268 9.27406 29.5687 7.75151 29.5687 6.21107V1.23333H18.7067V6.21107C18.7067 7.75151 18.9487 9.27406 19.4254 10.7362C19.7163 11.6279 20.0952 12.4943 20.5515 13.3108L22.0739 16.0333ZM26.5515 17.2667H21.7239C21.5073 17.2667 21.3076 17.1483 21.2002 16.9559L19.5039 13.9225C19.0078 13.0357 18.5963 12.0947 18.2801 11.1265C17.7623 9.53861 17.4998 7.88471 17.4998 6.21107V0.616667C17.4998 0.27565 17.7702 0 18.1033 0H30.1722C30.5053 0 30.7756 0.27565 30.7756 0.616667V6.21107C30.7756 7.88471 30.5131 9.53861 29.9948 11.1265C29.6792 12.0947 29.2676 13.0357 28.7716 13.9225L27.0753 16.9559C26.9679 17.1483 26.7682 17.2667 26.5515 17.2667Z" fill="#1C81DE"/>
    <path fill-rule="evenodd" clip-rule="evenodd" d="M13.8793 30.8331H20.5172V27.1331H13.8793V30.8331ZM21.1206 32.0664H13.2759C12.9428 32.0664 12.6724 31.7908 12.6724 31.4498V26.5164C12.6724 26.176 12.9428 25.8998 13.2759 25.8998H21.1206C21.4537 25.8998 21.7241 26.176 21.7241 26.5164V31.4498C21.7241 31.7908 21.4537 32.0664 21.1206 32.0664Z" fill="#1C81DE"/>
    <path fill-rule="evenodd" clip-rule="evenodd" d="M18.1035 16.0333H20.6844L19.5039 13.9225C19.2377 13.447 18.9942 12.9352 18.7468 12.3333H18.1035V16.0333ZM21.7239 17.2667L17.4998 17.2664C17.1667 17.2664 16.8966 16.991 16.8966 16.65V11.7167C16.8966 11.3757 17.1667 11.0997 17.4998 11.0997L19.1523 11.1C19.3991 11.1 19.6218 11.2542 19.7129 11.4891C19.9929 12.2088 20.2594 12.7872 20.5515 13.3108L22.248 16.3441C22.3548 16.5347 22.3542 16.769 22.2462 16.9596C22.1381 17.1501 21.9388 17.2667 21.7239 17.2667Z" fill="#1C81DE"/>
    <path fill-rule="evenodd" clip-rule="evenodd" d="M27.3123 20.9667H29.5686V17.2667H28.2235C28.3949 17.7174 28.3961 18.2237 28.2163 18.6831L27.7148 19.9621C27.7088 19.9781 27.6895 20.0201 27.6823 20.0349C27.5199 20.321 27.398 20.63 27.3123 20.9667ZM30.1724 22.1997L26.5924 22.2C26.4211 22.2 26.2581 22.1254 26.1435 21.9953C26.0294 21.8651 25.9739 21.6912 25.9926 21.5173C26.0759 20.7305 26.2871 20.0343 26.6208 19.449L27.0957 18.2256C27.1814 18.006 27.156 17.7686 27.0269 17.5738C26.8978 17.3789 26.6914 17.2667 26.4609 17.2667C26.1278 17.2667 25.8574 16.991 25.8574 16.65C25.8574 16.309 26.1278 16.0333 26.4609 16.0333L30.1724 16.033C30.5061 16.033 30.7755 16.309 30.7755 16.65V21.5833C30.7755 21.9243 30.5061 22.1997 30.1724 22.1997Z" fill="#1C81DE"/>
    <path fill-rule="evenodd" clip-rule="evenodd" d="M13.8793 20.9667H20.9637C20.8804 20.6429 20.7622 20.3426 20.6071 20.0614C20.6029 20.0534 20.598 20.0441 20.5932 20.0349L20.5805 20.009L20.0664 18.6998C19.8823 18.2305 19.8842 17.723 20.064 17.2667H13.8793V20.9667ZM21.6848 22.2L13.2759 22.1997C12.9428 22.1997 12.6724 21.9243 12.6724 21.5833V16.65C12.6724 16.309 12.9428 16.033 13.2759 16.033L21.7241 16.0333C22.0572 16.0333 22.3275 16.309 22.3275 16.65C22.3275 16.9707 22.0873 17.2519 21.7748 17.2784C21.5521 17.2975 21.3566 17.4202 21.2389 17.6151C21.1713 17.7267 21.0754 17.9567 21.187 18.2422L21.6704 19.4768C21.9992 20.0805 22.2056 20.7669 22.2847 21.518C22.3028 21.6919 22.2479 21.8651 22.1338 21.9953C22.0191 22.126 21.8556 22.2 21.6848 22.2Z" fill="#1C81DE"/>
    <path fill-rule="evenodd" clip-rule="evenodd" d="M27.7584 25.9001H33.7929V22.2H27.161C27.1526 22.9308 27.2721 23.7207 27.5183 24.5569C27.6715 24.9424 27.7584 25.4036 27.7584 25.8754V25.9001ZM34.3963 27.1334H27.155C26.8219 27.1334 26.5515 26.8577 26.5515 26.5167V25.8754C26.5515 25.5615 26.4936 25.2544 26.3796 24.9633C26.0066 23.7022 25.8822 22.5595 25.9926 21.5173C26.0252 21.2041 26.2842 20.9667 26.5926 20.9667H34.3963C34.7294 20.9667 35 21.242 35 21.583V26.5164C35 26.8574 34.7294 27.1334 34.3963 27.1334Z" fill="#1C81DE"/>
    <path fill-rule="evenodd" clip-rule="evenodd" d="M18.1035 25.9001L20.5173 25.8754C20.5173 25.4147 20.6 24.9646 20.7635 24.5366C21.0031 23.6671 21.1195 22.8969 21.1147 22.2H18.1035V25.9001ZM21.1207 27.1334L17.4998 27.133C17.1667 27.133 16.8966 26.8577 16.8966 26.5167V21.5834C16.8966 21.2424 17.1667 20.9664 17.4998 20.9664L21.685 20.9667C21.9927 20.9667 22.2515 21.2047 22.2847 21.518C22.3909 22.5231 22.2703 23.6301 21.9161 24.9029C21.9106 24.9233 21.904 24.9436 21.8962 24.9633C21.7821 25.2544 21.7242 25.5615 21.7242 25.8754L21.7241 26.5164C21.7241 26.8574 21.4538 27.1334 21.1207 27.1334Z" fill="#1C81DE"/>
    <path fill-rule="evenodd" clip-rule="evenodd" d="M27.7584 30.8331H29.5687V27.1331H27.7584V30.8331ZM30.1724 32.0664H27.155C26.8219 32.0664 26.5515 31.7908 26.5515 31.4498L26.5515 26.5167C26.5515 26.1763 26.8219 25.8998 27.155 25.8998H30.1724C30.5055 25.8998 30.7756 26.176 30.7756 26.5164V31.4498C30.7756 31.7908 30.5055 32.0664 30.1724 32.0664Z" fill="#1C81DE"/>
    <path fill-rule="evenodd" clip-rule="evenodd" d="M18.1035 35.7667H21.1256C20.7436 35.2493 20.5173 34.6061 20.5173 33.9093L20.5173 32.0667L18.1035 32.0667V35.7667ZM23.5418 37L17.4998 36.9997C17.1667 36.9997 16.8966 36.7243 16.8966 36.3833V31.45C16.8966 31.109 17.1667 30.8331 17.4998 30.8331L21.1207 30.8333C21.4538 30.8333 21.7241 31.1087 21.7241 31.4498L21.7242 33.9093C21.7242 34.9335 22.5394 35.7667 23.5418 35.7667C23.8749 35.7667 24.1452 36.0423 24.1452 36.3833C24.1452 36.7243 23.8749 37 23.5418 37Z" fill="#1C81DE"/>
    <path fill-rule="evenodd" clip-rule="evenodd" d="M21.8332 17.2667C21.5985 17.2667 21.3885 17.3807 21.257 17.5793C21.1254 17.7779 21.0995 18.0202 21.187 18.2428L21.6812 19.5045C22.4512 20.8951 22.5357 22.6761 21.9159 24.9022C21.9105 24.9226 21.9039 24.9423 21.896 24.962C21.782 25.2543 21.7242 25.5615 21.7242 25.8754L21.7242 33.9093C21.7242 34.9335 22.5394 35.7667 23.5418 35.7667H24.734C25.7363 35.7667 26.5516 34.9336 26.5516 33.9093L26.5515 25.8754C26.5515 25.5615 26.4937 25.2543 26.3796 24.962C25.7357 22.7809 25.8279 20.8415 26.6208 19.449L27.0953 18.225C27.181 18.006 27.1567 17.7686 27.0269 17.5738C26.8978 17.3789 26.6914 17.2667 26.4609 17.2667H21.8332ZM24.734 37H23.5418C21.8738 37 20.5173 35.6137 20.5173 33.9093V25.8754C20.5173 25.4153 20.5998 24.9645 20.7633 24.5359C21.2889 22.631 21.2395 21.209 20.6071 20.0614C20.5944 20.038 20.5702 19.9874 20.56 19.9621L20.0664 18.7004C19.8316 18.101 19.9028 17.4227 20.2576 16.888C20.6119 16.3528 21.2008 16.0333 21.8332 16.0333H26.4609C27.0891 16.0333 27.674 16.3509 28.0264 16.8825C28.3782 17.4134 28.4494 18.0868 28.2165 18.6825L27.7156 19.9621C27.709 19.9781 27.6901 20.0201 27.6823 20.0349C27.0414 21.1634 26.9891 22.7568 27.5177 24.5557C27.6716 24.9423 27.7584 25.4036 27.7584 25.8754L27.7585 33.9093C27.7585 35.6137 26.4019 37 24.734 37Z" fill="#1C81DE"/>
    <path fill-rule="evenodd" clip-rule="evenodd" d="M27.1492 35.766L33.7931 35.7667V32.0667H27.7586L27.7585 33.9093C27.7585 34.6049 27.5317 35.2487 27.1492 35.766ZM34.3966 37H24.7414C24.4083 37 24.1386 36.725 24.138 36.3846C24.1374 36.0442 24.4065 35.7679 24.739 35.7667H24.7414V35.766H24.78C25.7606 35.7401 26.5516 34.9157 26.5516 33.9093L26.5515 31.4498C26.5515 31.1087 26.8221 30.8333 27.1552 30.8333H34.3966C34.7297 30.8333 35 31.1087 35 31.4498V36.3833C35 36.7243 34.7297 37 34.3966 37Z" fill="#1C81DE"/>
</svg>
