<svg width="40" height="37" viewBox="0 0 40 37" fill="none" xmlns="http://www.w3.org/2000/svg">
    <path fill-rule="evenodd" clip-rule="evenodd" d="M9.28572 0C9.09628 1.88678e-05 8.91461 0.0749907 8.78066 0.208426C8.64671 0.341861 8.57145 0.522833 8.57143 0.711538V35.5769H0V37H40V35.5769H31.4286V0.711538C31.4286 0.522833 31.3533 0.341861 31.2193 0.208426C31.0854 0.0749907 30.9037 1.88678e-05 30.7143 0H9.28572ZM10 1.42308H30V35.5769H10V1.42308ZM15 5.69231C14.8106 5.69233 14.6289 5.7673 14.4949 5.90073C14.361 6.03417 14.2857 6.21514 14.2857 6.40385V23.4808C14.2857 23.6695 14.361 23.8504 14.4949 23.9839C14.6289 24.1173 14.8106 24.1923 15 24.1923H25C25.1894 24.1923 25.3711 24.1173 25.5051 23.9839C25.639 23.8504 25.7143 23.6695 25.7143 23.4808V6.40385C25.7143 6.21514 25.639 6.03417 25.5051 5.90073C25.3711 5.7673 25.1894 5.69233 25 5.69231H15ZM15.7143 7.11538H19.2857V14.2308H15.7143V7.11538ZM20.7143 7.11538H24.2857V14.2308H20.7143V7.11538ZM15.7143 15.6538H19.2857V22.7692H15.7143V15.6538ZM20.7143 15.6538H24.2857V22.7692H20.7143V15.6538ZM12.1429 21.3462C11.9534 21.3462 11.7717 21.4211 11.6378 21.5546C11.5038 21.688 11.4286 21.869 11.4286 22.0577C11.4286 22.2464 11.5038 22.4274 11.6378 22.5608C11.7717 22.6943 11.9534 22.7692 12.1429 22.7692C12.3323 22.7692 12.514 22.6943 12.6479 22.5608C12.7819 22.4274 12.8571 22.2464 12.8571 22.0577C12.8571 21.869 12.7819 21.688 12.6479 21.5546C12.514 21.4211 12.3323 21.3462 12.1429 21.3462ZM15 29.8846C14.8106 29.8846 14.6289 29.9596 14.4949 30.093C14.361 30.2265 14.2857 30.4074 14.2857 30.5962V33.4423C14.2857 33.631 14.361 33.812 14.4949 33.9454C14.6289 34.0789 14.8106 34.1538 15 34.1538H25C25.1894 34.1538 25.3711 34.0789 25.5051 33.9454C25.639 33.812 25.7143 33.631 25.7143 33.4423V30.5962C25.7143 30.4074 25.639 30.2265 25.5051 30.093C25.3711 29.9596 25.1894 29.8846 25 29.8846H15ZM15.7143 31.3077H24.2857V32.7308H15.7143V31.3077Z" fill="#1C81DE"/>
</svg>
