<svg width="35" height="37" viewBox="0 0 35 37" fill="none" xmlns="http://www.w3.org/2000/svg">
    <path d="M34.2228 35.4496H33.3408V17.0002H34.2228C34.6517 17.0002 35 16.6518 35 16.2241C35 15.7965 34.6517 15.4481 34.2228 15.4481H28.559C29.3308 14.6034 29.8042 13.4791 29.8042 12.2486V11.084C29.8042 11.0029 29.8025 10.919 29.7972 10.8162C29.7753 10.4042 29.434 10.0805 29.0184 10.0805H21.0527C20.6392 10.0805 20.2962 10.4038 20.2756 10.8162C20.2706 10.9121 20.2673 10.9997 20.2673 11.084V12.2486C20.2673 13.4791 20.7403 14.6034 21.5138 15.4481H0.778814C0.348754 15.4481 0 15.7965 0 16.2241C0 16.6518 0.348754 17.0002 0.778814 17.0002H1.67649V35.4496H0.778814C0.348754 35.4496 0 35.7967 0 36.2256C0 36.6533 0.348754 37 0.778814 37H34.2228C34.6517 37 35 36.6533 35 36.2256C35 35.7967 34.6517 35.4496 34.2228 35.4496ZM21.8245 11.6326H28.2482V12.2486C28.2482 14.0125 26.8074 15.4481 25.0355 15.4481C23.2654 15.4481 21.8245 14.0125 21.8245 12.2486V11.6326ZM16.7307 35.4496H3.23288V17.0002H16.7307V35.4496ZM31.7857 35.4496H18.2875V17.0002H31.7857V35.4496Z" fill="#1C81DE"/>
    <path d="M26.6068 6.13455C26.3195 6.4545 26.3464 6.9443 26.6675 7.23011C26.8156 7.36336 27.0018 7.42875 27.1875 7.42875C27.3988 7.42875 27.6114 7.34156 27.767 7.1713C29.0877 5.70192 28.275 4.24774 27.6807 3.18425C27.1165 2.17423 26.9221 1.71651 27.2766 1.23535C27.5301 0.888666 27.4562 0.404215 27.1099 0.151298C26.7632 -0.102854 26.2754 -0.028829 26.022 0.316208C25.0405 1.64906 25.7801 2.97205 26.3191 3.93807C26.9494 5.06407 27.1372 5.54523 26.6068 6.13455Z" fill="#1C81DE"/>
    <path d="M22.6641 6.13455C22.3773 6.4545 22.4041 6.9443 22.7248 7.23011C22.8734 7.36336 23.0595 7.42875 23.2436 7.42875C23.4582 7.42875 23.6707 7.34156 23.8226 7.1713C25.1454 5.70192 24.3311 4.2461 23.7384 3.18425C23.1742 2.17423 22.9798 1.71651 23.3344 1.23535C23.5878 0.888666 23.5135 0.404215 23.1672 0.151298C22.8193 -0.102854 22.3331 -0.028829 22.0776 0.316208C21.0978 1.64906 21.8378 2.97205 22.3768 3.93807C23.0071 5.06407 23.1945 5.54523 22.6641 6.13455Z" fill="#1C81DE"/>
    <path d="M2.43991 1.55205H5.59602V5.99888C4.58608 6.32705 3.85267 7.27292 3.85267 8.38741V9.04047C3.85267 10.4256 4.98436 11.5516 6.37442 11.5516C7.76449 11.5516 8.89453 10.4256 8.89453 9.04047V8.38741C8.89453 7.27334 8.16318 6.32747 7.15283 5.99888V1.55205H12.8109V5.99888C11.8001 6.32705 11.0667 7.27292 11.0667 8.38741V10.7776C11.0667 11.2049 11.4155 11.5532 11.8455 11.5532H15.331C15.7611 11.5532 16.109 11.2049 16.109 10.7776V8.38905C16.109 7.27334 15.3776 6.32747 14.3665 5.99888V1.55205H17.5226C17.953 1.55205 18.3014 1.20372 18.3014 0.776025C18.3014 0.347093 17.9535 0 17.5226 0H13.6083C13.5955 0 13.5823 0 13.5695 0H6.393C6.38144 0 6.36782 0 6.3542 0H2.43949C2.00943 0 1.66192 0.346682 1.66192 0.776025C1.66192 1.20372 2.00985 1.55205 2.43991 1.55205ZM13.5889 7.42755C14.1201 7.42755 14.5526 7.85854 14.5526 8.387V10.0011H12.6243V8.387C12.6243 7.85854 13.0569 7.42755 13.5889 7.42755ZM6.3736 7.42755H6.37442C6.9056 7.42755 7.33814 7.85854 7.33814 8.387V9.04006C7.33814 9.57016 6.9056 10.0011 6.3736 10.0011C5.84242 10.0011 5.40988 9.57016 5.40988 9.04006V8.387C5.40988 7.85854 5.84242 7.42755 6.3736 7.42755Z" fill="#1C81DE"/>
    <path d="M7.82232 21.2833H12.1407C12.5707 21.2833 12.9195 20.9383 12.9195 20.509C12.9195 20.08 12.5707 19.7329 12.1407 19.7329H7.82232C7.39309 19.7329 7.04475 20.08 7.04475 20.509C7.04434 20.9383 7.39309 21.2833 7.82232 21.2833Z" fill="#1C81DE"/>
    <path d="M28.4764 21.2833H28.6201C29.0509 21.2833 29.3989 20.9383 29.3989 20.509C29.3989 20.08 29.0509 19.7329 28.6201 19.7329H28.4764C28.0455 19.7329 27.6976 20.08 27.6976 20.509C27.6976 20.9383 28.0455 21.2833 28.4764 21.2833Z" fill="#1C81DE"/>
    <path d="M24.8922 21.2833H25.0358C25.4667 21.2833 25.8147 20.9383 25.8147 20.509C25.8147 20.08 25.4667 19.7329 25.0358 19.7329H24.8922C24.4634 19.7329 24.1134 20.08 24.1134 20.509C24.1134 20.9383 24.463 21.2833 24.8922 21.2833Z" fill="#1C81DE"/>
    <path d="M21.4514 33.1343H28.62C29.0509 33.1343 29.3988 32.7872 29.3988 32.3582V23.9429C29.3988 23.5152 29.0509 23.1685 28.62 23.1685H21.4514C21.0225 23.1685 20.6746 23.5152 20.6746 23.9429V32.3582C20.6746 32.7872 21.0225 33.1343 21.4514 33.1343ZM22.2298 24.7189H27.8428V31.5822H22.2298V24.7189Z" fill="#1C81DE"/>
    <path d="M21.4514 21.2833H21.5954C22.0259 21.2833 22.3738 20.9383 22.3738 20.509C22.3738 20.08 22.0259 19.7329 21.5954 19.7329H21.4514C21.0225 19.7329 20.6746 20.08 20.6746 20.509C20.6746 20.9383 21.0225 21.2833 21.4514 21.2833Z" fill="#1C81DE"/>
</svg>
