<svg width="25" height="37" viewBox="0 0 25 37" fill="none" xmlns="http://www.w3.org/2000/svg">
    <path fill-rule="evenodd" clip-rule="evenodd" d="M0 0H25V36.8962H24.331V37H0.252919V36.8962H0V0ZM1.22563 35.8114H3.0351V2.94344H21.965V35.8114H23.7744V1.18862H1.22563V35.8114ZM20.7394 35.8114V35.0377H4.26072V35.8114H20.7394ZM4.26072 33.8491H7.58762V15.2076H11.8483V33.8491H13.1518V15.2076H17.4124V33.8491H20.7394V4.13206H4.26072V18.4535C4.54081 17.9796 5.06749 17.6604 5.67105 17.6604C6.56823 17.6604 7.29554 18.3658 7.29554 19.2359C7.29554 19.6855 7.10131 20.0912 6.78978 20.3782V23.2641H4.55248V20.3783C4.43818 20.273 4.33966 20.1518 4.26072 20.0182V33.8491ZM16.1868 33.8491V16.3962H14.3774V33.8491H16.1868ZM10.6226 33.8491V16.3962H8.81324V33.8491H10.6226ZM6.57578 5.88681H18.424V13.8396H18.171V14.1886H6.32282V12.0189H6.57578V5.88681ZM17.1984 12.0189H7.80141V7.07543H17.1984V12.0189ZM5.67105 18.849C5.45077 18.849 5.27219 19.0222 5.27219 19.2359C5.27219 19.4495 5.45077 19.6227 5.67105 19.6227C5.89134 19.6227 6.06991 19.4495 6.06991 19.2359C6.06991 19.0222 5.89134 18.849 5.67105 18.849Z" fill="#1C81DE"/>
</svg>
