<svg width="28" height="37" viewBox="0 0 28 37" fill="none" xmlns="http://www.w3.org/2000/svg">
    <path fill-rule="evenodd" clip-rule="evenodd" d="M25.1997 34.2593V35.6296H2.79994V34.2593H25.1997ZM1.39995 33.5741V36.3148C1.39995 36.6932 1.71335 37 2.09994 37H25.8997C26.2863 37 26.5997 36.6932 26.5997 36.3148V33.5741C26.5997 33.1957 26.2863 32.8889 25.8997 32.8889H2.09994C1.71335 32.8889 1.39995 33.1957 1.39995 33.5741Z" fill="#1C81DE"/>
    <path fill-rule="evenodd" clip-rule="evenodd" d="M26.5798 28.0875L25.2209 33.4079C25.1272 33.775 25.3552 34.147 25.7302 34.2388C26.1053 34.3306 26.4853 34.1074 26.5791 33.7402L27.9791 28.2588C28.007 28.1496 28.007 28.0355 27.9791 27.9264L26.5791 22.4449C26.4853 22.0778 26.1053 21.8546 25.7302 21.9464C25.3552 22.0381 25.1272 22.4102 25.2209 22.7773L26.5798 28.0875Z" fill="#1C81DE"/>
    <path fill-rule="evenodd" clip-rule="evenodd" d="M1.41632 28.113C1.87057 26.3344 2.77907 22.7773 2.77907 22.7773C2.87283 22.4102 2.6448 22.0381 2.26975 21.9464C1.8947 21.8546 1.51465 22.0778 1.42089 22.4449L0.0209 27.9264C-0.00696668 28.0355 -0.00696668 28.1496 0.0209 28.2588L1.42089 33.7402C1.51465 34.1074 1.8947 34.3306 2.26975 34.2388C2.6448 34.147 2.87283 33.775 2.77907 33.4079C2.77907 33.4079 1.40391 28.1616 1.41632 28.113Z" fill="#1C81DE"/>
    <path fill-rule="evenodd" clip-rule="evenodd" d="M27.2997 21.9259H0.699993C0.313397 21.9259 6.52032e-10 22.2327 6.52032e-10 22.6111C6.52032e-10 22.9895 0.313397 23.2963 0.699993 23.2963H27.2997C27.6863 23.2963 27.9997 22.9895 27.9997 22.6111C27.9997 22.2327 27.6863 21.9259 27.2997 21.9259Z" fill="#1C81DE"/>
    <path fill-rule="evenodd" clip-rule="evenodd" d="M2.79994 1.37037H25.1997V19.8704C25.1997 20.2488 25.5131 20.5556 25.8997 20.5556C26.2863 20.5556 26.5997 20.2488 26.5997 19.8704V0.685185C26.5997 0.306768 26.2863 0 25.8997 0H2.09994C1.71335 0 1.39995 0.306768 1.39995 0.685185V19.8704C1.39995 20.2488 1.71335 20.5556 2.09994 20.5556C2.48654 20.5556 2.79994 20.2488 2.79994 19.8704V1.37037Z" fill="#1C81DE"/>
    <path d="M11.1999 17.1296H9.79995C9.41336 17.1296 9.09996 17.4364 9.09996 17.8148C9.09996 18.1932 9.41336 18.5 9.79995 18.5H11.1999C11.5865 18.5 11.8999 18.1932 11.8999 17.8148C11.8999 17.4364 11.5865 17.1296 11.1999 17.1296Z" fill="#1C81DE"/>
    <path d="M18.1999 17.1296H16.7999C16.4133 17.1296 16.0999 17.4364 16.0999 17.8148C16.0999 18.1932 16.4133 18.5 16.7999 18.5H18.1999C18.5865 18.5 18.8999 18.1932 18.8999 17.8148C18.8999 17.4364 18.5865 17.1296 18.1999 17.1296Z" fill="#1C81DE"/>
    <path fill-rule="evenodd" clip-rule="evenodd" d="M13.3 0.685185V19.8704C13.3 20.2488 13.6134 20.5556 14 20.5556C14.3866 20.5556 14.7 20.2488 14.7 19.8704V0.685185C14.7 0.306768 14.3866 0 14 0C13.6134 0 13.3 0.306768 13.3 0.685185Z" fill="#1C81DE"/>
    <path fill-rule="evenodd" clip-rule="evenodd" d="M2.09994 8.9074H25.8997C26.2863 8.9074 26.5997 8.60063 26.5997 8.22222C26.5997 7.8438 26.2863 7.53703 25.8997 7.53703H2.09994C1.71335 7.53703 1.39995 7.8438 1.39995 8.22222C1.39995 8.60063 1.71335 8.9074 2.09994 8.9074Z" fill="#1C81DE"/>
    <path fill-rule="evenodd" clip-rule="evenodd" d="M5.60456 28.0997C5.83458 26.2985 6.29461 22.6961 6.29461 22.6961C6.34256 22.3206 6.07046 21.9781 5.68685 21.9312C5.30324 21.8843 4.95339 22.1506 4.90544 22.5261L4.20544 28.0076C4.19824 28.064 4.19824 28.1211 4.20544 28.1776L4.90544 33.659C4.95339 34.0345 5.30324 34.3009 5.68685 34.2539C6.07046 34.207 6.34256 33.8646 6.29461 33.4891C6.29461 33.4891 5.60125 28.1257 5.60456 28.0997Z" fill="#1C81DE"/>
    <path fill-rule="evenodd" clip-rule="evenodd" d="M9.80419 28.1014C10.0343 26.2997 10.4945 22.6961 10.4945 22.6961C10.5424 22.3206 10.2703 21.9781 9.8867 21.9312C9.50309 21.8843 9.15324 22.1506 9.10529 22.5261L8.4053 28.0076C8.39809 28.064 8.39809 28.1211 8.4053 28.1776L9.10529 33.659C9.15324 34.0345 9.50309 34.3009 9.8867 34.2539C10.2703 34.207 10.5424 33.8646 10.4945 33.4891C10.4945 33.4891 9.80095 28.1268 9.80419 28.1014Z" fill="#1C81DE"/>
    <path fill-rule="evenodd" clip-rule="evenodd" d="M14.7 33.5741V22.6111C14.7 22.2327 14.3866 21.9259 14 21.9259C13.6134 21.9259 13.3 22.2327 13.3 22.6111V33.5741C13.3 33.9525 13.6134 34.2593 14 34.2593C14.3866 34.2593 14.7 33.9525 14.7 33.5741Z" fill="#1C81DE"/>
    <path fill-rule="evenodd" clip-rule="evenodd" d="M19.5945 28.1776C19.6017 28.1211 19.6017 28.064 19.5945 28.0076L18.8945 22.5261C18.8466 22.1506 18.4967 21.8843 18.1131 21.9312C17.7295 21.9781 17.4574 22.3206 17.5053 22.6961C17.5053 22.6961 18.198 28.0648 18.1944 28.0934C17.9647 29.892 17.5053 33.4891 17.5053 33.4891C17.4574 33.8646 17.7295 34.207 18.1131 34.2539C18.4967 34.3009 18.8466 34.0345 18.8945 33.659L19.5945 28.1776Z" fill="#1C81DE"/>
    <path fill-rule="evenodd" clip-rule="evenodd" d="M23.7944 28.1776C23.8016 28.1211 23.8016 28.064 23.7944 28.0076L23.0944 22.5261C23.0464 22.1506 22.6966 21.8843 22.3129 21.9312C21.9293 21.9781 21.6572 22.3206 21.7052 22.6961C21.7052 22.6961 22.3981 28.063 22.3946 28.0907C22.1648 29.8902 21.7052 33.4891 21.7052 33.4891C21.6572 33.8646 21.9293 34.207 22.3129 34.2539C22.6966 34.3009 23.0464 34.0345 23.0944 33.659L23.7944 28.1776Z" fill="#1C81DE"/>
</svg>
