<svg width="33" height="37" viewBox="0 0 33 37" fill="none" xmlns="http://www.w3.org/2000/svg">
    <path d="M33 0V37H0V0H33ZM31.7386 35.7746V29.6079H26.6523V35.7746H31.7386ZM31.7386 28.3825V1.22543H26.6523V28.3429H31.7386V28.3825ZM25.3909 35.7746V8.65705H20.3046V35.7746H25.3909ZM25.3909 7.39209V1.22543H20.3046V7.39209H25.3909ZM19.0432 35.7746V18.5H13.9568V35.7746H19.0432ZM19.0432 17.2746V1.22543H13.9568V17.2746H19.0432ZM12.6954 35.7746V24.6667H7.60912V35.7746H12.6954ZM12.6954 23.4412V1.22543H7.60912V23.4412H12.6954ZM6.34772 35.7746V14.8237H1.26141V35.7746H6.34772ZM6.34772 13.5588V1.22543H1.26141V13.5588H6.34772Z" fill="#1C81DE"/>
</svg>
