<svg width="36" height="37" viewBox="0 0 36 37" fill="none" xmlns="http://www.w3.org/2000/svg">
    <path d="M33.9954 26.8164H33.0095V10.1701H33.9954C35.101 10.1701 36 9.26804 36 8.15865C36 7.04926 35.101 6.14648 33.9954 6.14648H33.0095V5.1421C33.0095 2.81287 31.5281 0.752282 29.3245 0.013827C29.3102 0.00905394 29.2952 0.0138262 29.281 0.0104169C29.2409 0.00018902 29.2035 -0.000492424 29.162 0.000189437C29.122 0.000189437 29.0859 0.00087088 29.0465 0.0104169C29.0323 0.0138262 29.0166 0.00973542 29.0024 0.0145084C26.7987 0.752964 25.318 2.81355 25.318 5.14278V6.14716H21.845V5.14278C21.845 2.81355 20.3644 0.752964 18.1607 0.0145084C18.1464 0.00973542 18.1308 0.0145077 18.1165 0.0110984C18.0771 0.00155237 18.0398 0.000870923 17.9997 0.000870923C17.9596 0.000870923 17.9222 0.000870507 17.8828 0.0110984C17.8685 0.0145077 17.8529 0.00973542 17.8386 0.0145084C15.6343 0.752964 14.1536 2.81355 14.1536 5.14278V6.14716H10.6806V5.14278C10.6806 2.81355 9.19995 0.752964 6.99628 0.0145084C6.98201 0.00973542 6.96706 0.0145077 6.95211 0.0110984C6.9127 0.00155237 6.87533 0.000870923 6.83524 0.000870923C6.79447 0.000870923 6.75709 0.000870507 6.71768 0.0110984C6.70341 0.0145077 6.68846 0.0104173 6.67419 0.0145084C4.47053 0.752964 2.98987 2.81355 2.98987 5.14278V6.14716H2.00389C0.898999 6.14716 0 7.04995 0 8.15934C0 9.26872 0.898999 10.1708 2.00389 10.1708H2.98987V26.8171H2.00389C0.898999 26.8171 0 27.7192 0 28.8286C0 29.938 0.898999 30.8408 2.00389 30.8408H2.98987V31.8458C2.98987 34.1757 4.47053 36.2363 6.67419 36.9741C6.67555 36.9748 6.67623 36.9741 6.67759 36.9748C6.72855 36.9911 6.78156 37 6.83524 37C6.88892 37 6.94192 36.9911 6.99289 36.9748C6.99425 36.9741 6.99492 36.9748 6.99628 36.9741C9.19995 36.2363 10.6806 34.1757 10.6806 31.8458V30.8408H14.1536V31.8458C14.1536 34.1757 15.6343 36.2363 17.8386 36.9741C17.84 36.9748 17.8407 36.9741 17.842 36.9748C17.893 36.9911 17.946 37 17.9997 37C18.0533 37 18.1063 36.9911 18.1573 36.9748C18.1587 36.9741 18.1593 36.9748 18.1607 36.9741C20.3644 36.2363 21.845 34.1757 21.845 31.8458V30.8408H25.318V31.8458C25.318 34.1751 26.7987 36.2356 29.0024 36.9741C29.0037 36.9748 29.0044 36.9741 29.0058 36.9748C29.0567 36.9911 29.1097 37 29.1634 37C29.2171 37 29.2701 36.9911 29.3211 36.9748C29.3224 36.9741 29.3231 36.9748 29.3245 36.9741C31.5281 36.2363 33.0095 34.1757 33.0095 31.8458V30.8408H33.9954C35.101 30.8408 36 29.938 36 28.8286C36 27.7192 35.101 26.8164 33.9954 26.8164ZM2.00253 9.14735C1.4596 9.14735 1.01791 8.70414 1.01791 8.15865C1.01791 7.61316 1.4596 7.16927 2.00253 7.16927H2.98851V9.14735H2.00253ZM2.00253 29.8173C1.4596 29.8173 1.01791 29.3734 1.01791 28.8279C1.01791 28.2824 1.4596 27.8392 2.00253 27.8392H2.98851V29.8173H2.00253ZM6.32424 35.7147C4.91425 34.9633 4.00778 33.4864 4.00778 31.8451V5.1421C4.00778 3.50086 4.91425 2.02463 6.32424 1.27254V35.7147ZM10.6799 10.1701H14.1529V26.8164H10.6799V10.1701ZM14.1529 7.16927V9.14735H10.6799V7.16927H14.1529ZM9.66066 31.8451C9.66066 33.4864 8.75419 34.9633 7.34419 35.7147V1.27254C8.75419 2.02395 9.66066 3.50086 9.66066 5.1421V31.8451ZM10.6799 29.8173V27.8392H14.1529V29.8173H10.6799ZM17.4893 35.7147C16.0787 34.9633 15.1722 33.4864 15.1722 31.8451V5.1421C15.1722 3.50154 16.0787 2.02463 17.4893 1.27254V35.7147ZM25.3174 7.16927V9.14735H21.845V7.16927H25.3174ZM20.8251 31.8451C20.8251 33.4864 19.9186 34.9633 18.5086 35.7147V1.27254C19.9186 2.02463 20.8251 3.50086 20.8251 5.1421V31.8451ZM25.3174 29.8173H21.845V27.8392H25.3174V29.8173ZM21.8444 26.8164V10.1701H25.3174V26.8164H21.8444ZM28.6538 35.7147C27.2438 34.9633 26.3373 33.4864 26.3373 31.8451V5.1421C26.3373 3.50154 27.2438 2.02463 28.6538 1.27254V35.7147ZM33.9954 7.16927C34.539 7.16927 34.9807 7.61316 34.9807 8.15865C34.9807 8.70414 34.539 9.14735 33.9954 9.14735H33.0095V7.16927H33.9954ZM31.9902 31.8451C31.9902 33.4864 31.0837 34.9633 29.673 35.7147V1.27254C31.083 2.02463 31.9902 3.50086 31.9902 5.1421V31.8451ZM33.9954 29.8173H33.0095V27.8392H33.9954C34.539 27.8392 34.9807 28.2824 34.9807 28.8279C34.9807 29.3734 34.539 29.8173 33.9954 29.8173Z" fill="#1C81DE"/>
</svg>
