<svg width="35" height="37" viewBox="0 0 35 37" fill="none" xmlns="http://www.w3.org/2000/svg">
    <path fill-rule="evenodd" clip-rule="evenodd" d="M6.24986 16.65H8.12485C9.0986 16.65 11.0542 10.4247 11.2361 6.16664H6.24986V16.65ZM8.12485 17.8833H5.62486C5.27986 17.8833 4.99986 17.6077 4.99986 17.2666V5.54997C4.99986 5.20895 5.27986 4.9333 5.62486 4.9333H11.8748C12.2198 4.9333 12.4998 5.20895 12.4998 5.54997C12.4998 7.63307 11.0311 17.8833 8.12485 17.8833Z" fill="#1C81DE"/>
    <path fill-rule="evenodd" clip-rule="evenodd" d="M6.24986 30.8334H9.3711C9.30235 25.21 8.3036 21.2097 7.2986 20.35H6.24986V30.8334ZM9.99984 32.0667H5.62486C5.27986 32.0667 4.99986 31.791 4.99986 31.45V19.7334C4.99986 19.3923 5.27986 19.1167 5.62486 19.1167H7.49985C7.61423 19.1167 7.7261 19.1475 7.82423 19.2061C9.89109 20.4431 10.6248 26.5753 10.6248 31.45C10.6248 31.791 10.3448 32.0667 9.99984 32.0667Z" fill="#1C81DE"/>
    <path fill-rule="evenodd" clip-rule="evenodd" d="M23.7637 6.16664C23.9462 10.4247 25.9012 16.65 26.8749 16.65H28.7499V6.16664H23.7637ZM29.3749 17.8833H26.8749C23.9687 17.8833 22.4999 7.63307 22.4999 5.54997C22.4999 5.20895 22.7799 4.9333 23.1249 4.9333H29.3749C29.7199 4.9333 29.9999 5.20895 29.9999 5.54997V17.2666C29.9999 17.6077 29.7199 17.8833 29.3749 17.8833Z" fill="#1C81DE"/>
    <path fill-rule="evenodd" clip-rule="evenodd" d="M25.6287 30.8334H28.7499V20.35H27.7012C26.6962 21.2097 25.6974 25.21 25.6287 30.8334ZM29.3749 32.0667H24.9999C24.6549 32.0667 24.3749 31.791 24.3749 31.45C24.3749 26.5753 25.1087 20.4431 27.1762 19.2061C27.2737 19.1475 27.3862 19.1167 27.4999 19.1167H29.3749C29.7199 19.1167 29.9999 19.3923 29.9999 19.7334V31.45C29.9999 31.791 29.7199 32.0667 29.3749 32.0667Z" fill="#1C81DE"/>
    <path fill-rule="evenodd" clip-rule="evenodd" d="M3.75011 33.2997H31.25V3.69967H3.75011V33.2997ZM31.875 34.533H3.12511C2.78011 34.533 2.50011 34.2574 2.50011 33.9163V3.083C2.50011 2.7426 2.78011 2.46634 3.12511 2.46634H31.875C32.22 2.46634 32.5 2.7426 32.5 3.083V33.9163C32.5 34.2574 32.22 34.533 31.875 34.533Z" fill="#1C81DE"/>
    <path fill-rule="evenodd" clip-rule="evenodd" d="M2.49987 34.5333V35.15C2.49987 35.4904 2.78049 35.7667 3.12487 35.7667H31.8748C32.2191 35.7667 32.4998 35.4904 32.4998 35.15V34.5333H2.49987ZM31.8748 37H3.12487C2.09112 37 1.24987 36.17 1.24987 35.15V33.9167C1.24987 33.5756 1.52987 33.3 1.87487 33.3H33.1248C33.4698 33.3 33.7498 33.5756 33.7498 33.9167V35.15C33.7498 36.17 32.9085 37 31.8748 37Z" fill="#1C81DE"/>
    <path fill-rule="evenodd" clip-rule="evenodd" d="M3.12487 1.23333C2.78049 1.23333 2.49987 1.5096 2.49987 1.85C2.49987 2.1904 2.78074 2.46634 3.12511 2.46634H31.875C32.2194 2.46634 32.4998 2.1904 32.4998 1.85C32.4998 1.5096 32.2191 1.23333 31.8748 1.23333H3.12487ZM31.8748 3.7H3.12487C2.09112 3.7 1.24987 2.86997 1.24987 1.85C1.24987 0.830033 2.09112 0 3.12487 0H31.8748C32.9085 0 33.7498 0.830033 33.7498 1.85C33.7498 2.86997 32.9085 3.7 31.8748 3.7Z" fill="#1C81DE"/>
    <path fill-rule="evenodd" clip-rule="evenodd" d="M1.87499 34.5333H0.624998C0.279999 34.5333 0 34.2577 0 33.9167C0 33.5756 0.279999 33.3 0.624998 33.3H1.87487C2.21987 33.3 2.50011 33.5753 2.50011 33.9163C2.50011 34.2574 2.21999 34.5333 1.87499 34.5333Z" fill="#1C81DE"/>
    <path fill-rule="evenodd" clip-rule="evenodd" d="M34.375 34.5333H33.125C32.78 34.5333 32.5 34.2574 32.5 33.9163C32.5 33.5753 32.7798 33.3 33.1248 33.3H34.375C34.72 33.3 35 33.5756 35 33.9167C35 34.2577 34.72 34.5333 34.375 34.5333Z" fill="#1C81DE"/>
    <path fill-rule="evenodd" clip-rule="evenodd" d="M6.24986 16.65L15.6248 16.6497V6.16637L6.24986 6.16664V16.65ZM16.2498 17.883L5.62486 17.8833C5.27986 17.8833 4.99986 17.6077 4.99986 17.2666V5.54997C4.99986 5.20957 5.27986 4.9333 5.62486 4.9333L16.2498 4.93303C16.5948 4.93303 16.8748 5.2093 16.8748 5.5497V17.2664C16.8748 17.6074 16.5948 17.883 16.2498 17.883Z" fill="#1C81DE"/>
    <path fill-rule="evenodd" clip-rule="evenodd" d="M19.3748 16.6497L28.7499 16.65V6.16664L19.3748 6.16637V16.6497ZM29.3749 17.8833L18.7498 17.883C18.4048 17.883 18.1248 17.6074 18.1248 17.2664V5.5497C18.1248 5.2093 18.4048 4.93303 18.7498 4.93303L29.3749 4.9333C29.7199 4.9333 29.9999 5.20957 29.9999 5.54997V17.2666C29.9999 17.6077 29.7199 17.8833 29.3749 17.8833Z" fill="#1C81DE"/>
    <path fill-rule="evenodd" clip-rule="evenodd" d="M6.24986 30.8334L15.6248 30.833V20.3497L6.24986 20.35V30.8334ZM16.2498 32.0663L5.62486 32.0667C5.27986 32.0667 4.99986 31.791 4.99986 31.45V19.7334C4.99986 19.393 5.27986 19.1167 5.62486 19.1167L16.2498 19.1163C16.5948 19.1163 16.8748 19.3926 16.8748 19.733V31.4497C16.8748 31.7907 16.5948 32.0663 16.2498 32.0663Z" fill="#1C81DE"/>
    <path fill-rule="evenodd" clip-rule="evenodd" d="M19.3748 30.833L28.7499 30.8334V20.35L19.3748 20.3497V30.833ZM29.3749 32.0667L18.7498 32.0663C18.4048 32.0663 18.1248 31.7907 18.1248 31.4497V19.733C18.1248 19.3926 18.4048 19.1163 18.7498 19.1163L29.3749 19.1167C29.7199 19.1167 29.9999 19.393 29.9999 19.7334V31.45C29.9999 31.791 29.7199 32.0667 29.3749 32.0667Z" fill="#1C81DE"/>
</svg>
