<svg width="31" height="37" viewBox="0 0 31 37" fill="none" xmlns="http://www.w3.org/2000/svg">
    <path d="M30.2235 0H0.775363C0.347359 0 0 0.344924 0 0.770641V36.2299C0 36.6545 0.347359 37 0.775363 37H30.2235C30.6526 37 31 36.6545 31 36.2299V0.770641C31 0.344924 30.6526 0 30.2235 0ZM29.4493 35.4576H1.55015V1.54186H29.4493V35.4576Z" fill="#1C81DE"/>
    <path d="M27.8986 30.8325C28.3277 30.8325 28.6751 30.4881 28.6751 30.0625V25.4375C28.6751 25.0118 28.3278 24.6674 27.8986 24.6674V11.5625C28.3277 11.5625 28.6751 11.2176 28.6751 10.7918V6.16684C28.6751 5.74112 28.3278 5.39562 27.8986 5.39562V3.08312H3.10033V33.9174H27.8986V30.8325ZM26.3502 32.375H4.64989V4.62498H26.3502V32.375Z" fill="#1C81DE"/>
    <path d="M7.73369 24.6674H23.2657C23.2669 24.6674 23.2669 24.6674 23.2669 24.6674C23.6949 24.6674 24.0411 24.3219 24.0411 23.8951C24.0411 23.7461 23.9991 23.606 23.9253 23.4886L16.1769 9.6458C16.0401 9.40132 15.7807 9.25 15.4997 9.25C15.2188 9.25 14.9593 9.40132 14.8226 9.6458L7.05655 23.5202C6.92258 23.7596 6.92599 24.0509 7.06564 24.2858C7.2047 24.5217 7.45898 24.6674 7.73369 24.6674ZM15.4997 11.6054L21.9478 23.125H9.0517L15.4997 11.6054Z" fill="#1C81DE"/>
    <path d="M17.7089 18.0947C17.5681 17.8677 17.3184 17.7294 17.0505 17.7294H15.2041L16.1928 15.7613C16.3847 15.3807 16.2292 14.9178 15.8466 14.727C15.4635 14.5368 14.998 14.6915 14.8067 15.072L13.2566 18.1557C13.1363 18.3945 13.1493 18.6779 13.2907 18.9054C13.432 19.1324 13.6812 19.2707 13.9497 19.2707H15.7955L14.8062 21.2383C14.6149 21.6189 14.7698 22.0818 15.1524 22.2726C15.2637 22.3279 15.3823 22.355 15.4987 22.355C15.7831 22.355 16.0567 22.1981 16.1923 21.9282L17.7431 18.8451C17.8633 18.6062 17.8497 18.3222 17.7089 18.0947Z" fill="#1C81DE"/>
    <path d="M20.9249 26.2076H10.075C9.64703 26.2076 9.30025 26.5531 9.30025 26.98C9.30025 27.4045 9.64703 27.75 10.075 27.75H20.9249C21.3529 27.75 21.7003 27.4045 21.7003 26.98C21.7003 26.5532 21.3529 26.2076 20.9249 26.2076Z" fill="#1C81DE"/>
</svg>
