<svg width="37" height="26" viewBox="0 0 37 26" fill="none" xmlns="http://www.w3.org/2000/svg">
    <path fill-rule="evenodd" clip-rule="evenodd" d="M0 26V0H37V26H35.7458V1.99977L30.1017 9.2473V20.4286H28.8475V9.90476H22.4959C22.205 11.3972 21.0479 12.6047 19.6174 12.9133C19.3424 12.9752 19.0675 13 18.8045 13C16.9937 13 15.4818 11.6769 15.1287 9.90476H8.15254V20.4286H6.8983V9.56232L6.8737 9.58099L1.25424 2.36506V26H0ZM34.7569 1.2381H19.4407V2.42162C19.5537 2.44073 19.6606 2.49614 19.7369 2.57524L20.2749 3.13238C20.3705 3.24381 20.4303 3.38 20.4303 3.52857V4.64286C20.4303 5.18762 20.6454 5.65809 21.0041 5.93048C21.895 6.5909 22.4413 7.58187 22.5544 8.66667H28.9719L34.7569 1.2381ZM18.1864 1.2381H1.95861L7.74367 8.66667H15.0727C15.1834 7.60396 15.7113 6.63702 16.5571 5.98C16.9636 5.65809 17.2027 5.21238 17.2027 4.74191V3.52857C17.2027 3.38 17.2624 3.23143 17.3581 3.13238L17.896 2.57524C17.9801 2.49781 18.0788 2.44307 18.1864 2.42287V1.2381ZM17.1907 6.88381C17.7525 6.45048 18.1112 5.85619 18.2188 5.2H19.3903C19.5098 5.86857 19.8565 6.46286 20.3705 6.83429C21.2431 7.4781 21.6496 8.56762 21.4344 9.66952C21.2312 10.7343 20.4064 11.5886 19.3903 11.8114C19.199 11.8486 18.9958 11.8733 18.8045 11.8733C17.3222 11.8733 16.1148 10.6229 16.1148 9.08762C16.1148 8.22095 16.5093 7.40381 17.1907 6.88381Z" fill="#1C81DE"/>
</svg>
