<svg width="37" height="37" viewBox="0 0 37 37" fill="none" xmlns="http://www.w3.org/2000/svg">
    <path d="M0.578125 0C0.424801 1.53301e-05 0.277762 0.0609297 0.169346 0.169346C0.0609297 0.277762 1.53301e-05 0.424801 0 0.578125V36.4219C1.53301e-05 36.5752 0.0609297 36.7222 0.169346 36.8307C0.277762 36.9391 0.424801 37 0.578125 37H36.4219C36.5752 37 36.7222 36.9391 36.8307 36.8307C36.9391 36.7222 37 36.5752 37 36.4219V0.578125C37 0.424801 36.9391 0.277762 36.8307 0.169346C36.7222 0.0609297 36.5752 1.53301e-05 36.4219 0H0.578125ZM1.15625 1.15625H35.8437V35.8437H1.15625V1.15625ZM4.04688 2.3125C3.09585 2.3125 2.3125 3.09586 2.3125 4.04688C2.3125 4.99789 3.09585 5.78125 4.04688 5.78125C4.9979 5.78125 5.78125 4.99789 5.78125 4.04688C5.78125 3.09586 4.9979 2.3125 4.04688 2.3125ZM18.5 2.3125C9.56674 2.3125 2.31249 9.56681 2.3125 18.5C2.31249 27.4333 9.56674 34.6875 18.5 34.6875C27.4333 34.6875 34.6875 27.4333 34.6875 18.5C34.6875 9.56681 27.4333 2.3125 18.5 2.3125ZM32.9531 2.3125C32.0021 2.3125 31.2188 3.09586 31.2188 4.04688C31.2188 4.99789 32.0021 5.78125 32.9531 5.78125C33.9041 5.78125 34.6875 4.99789 34.6875 4.04688C34.6875 3.09586 33.9041 2.3125 32.9531 2.3125ZM4.04688 3.46875C4.37301 3.46875 4.625 3.72081 4.625 4.04688C4.625 4.37305 4.37301 4.625 4.04688 4.625C3.72074 4.625 3.46875 4.37305 3.46875 4.04688C3.46875 3.72081 3.72074 3.46875 4.04688 3.46875ZM18.5 3.46875C26.8084 3.46875 33.5313 10.1917 33.5312 18.5C33.5313 26.8085 26.8084 33.5312 18.5 33.5312C10.1916 33.5312 3.46874 26.8085 3.46875 18.5C3.46874 10.1917 10.1916 3.46875 18.5 3.46875ZM32.9531 3.46875C33.2793 3.46875 33.5312 3.72081 33.5312 4.04688C33.5312 4.37305 33.2793 4.625 32.9531 4.625C32.627 4.625 32.375 4.37305 32.375 4.04688C32.375 3.72081 32.627 3.46875 32.9531 3.46875ZM20.4083 4.625C19.6086 4.625 18.8181 4.66055 18.1477 4.7334C17.4773 4.80624 16.9665 4.87237 16.5308 5.12408C15.5234 5.70568 15.0579 6.92429 15.038 8.39862C15.0197 9.76148 15.3851 11.4128 16.1198 13.2449C14.7431 13.8721 13.6617 15.0192 13.1162 16.4382C11.637 16.7283 10.1823 15.8515 8.92706 14.7693C8.27164 14.2041 7.69127 13.6057 7.20172 13.1411C6.95695 12.9086 6.73878 12.71 6.5152 12.5539C6.29266 12.3984 6.04188 12.2083 5.62317 12.3123H5.61865C5.53746 12.3327 5.46169 12.3706 5.39658 12.4232C5.33146 12.4759 5.27855 12.542 5.24152 12.6171C5.20626 12.6599 5.1335 12.6793 5.11053 12.7233C5.10739 12.73 5.10438 12.7368 5.1015 12.7436C4.89004 13.1863 4.80624 13.7436 4.7334 14.4373C4.66055 15.1303 4.625 15.9342 4.625 16.734C4.625 17.5337 4.66021 18.3263 4.7334 18.9968C4.80659 19.6673 4.87021 20.178 5.12183 20.6138C5.70346 21.6211 6.92205 22.0866 8.39636 22.1065C9.7761 22.1249 11.4529 21.7535 13.3127 20.9999C13.9317 22.2772 14.9911 23.3001 16.3094 23.8431C16.4739 24.6122 16.3355 25.3534 15.991 26.0947C15.6235 26.8855 15.0289 27.6542 14.4193 28.3326C13.8096 29.0112 13.1928 29.5949 12.7571 30.0851C12.5393 30.3301 12.3598 30.5347 12.2422 30.8235C12.1835 30.9681 12.1332 31.1584 12.1903 31.3836C12.2474 31.6088 12.4319 31.8005 12.6013 31.8895C12.608 31.8934 12.6148 31.8971 12.6216 31.9008C13.0644 32.1122 13.6195 32.1983 14.3131 32.2711C15.0068 32.344 15.8123 32.3773 16.6121 32.3773C17.4118 32.3773 18.2044 32.3429 18.8749 32.2689C19.5454 32.196 20.0538 32.132 20.4896 31.8804C21.497 31.2988 21.9647 30.0802 21.9846 28.6059C22.0029 27.2393 21.637 25.5819 20.8983 23.7438C22.1723 23.1579 23.1972 22.1292 23.7709 20.8486C24.5655 20.6593 25.3308 20.8007 26.0947 21.1558C26.8856 21.5233 27.6518 22.1156 28.3304 22.7253C29.009 23.335 29.5927 23.954 30.0828 24.3896C30.3279 24.6075 30.5324 24.7848 30.8213 24.9023C30.9657 24.9613 31.1561 25.0109 31.3813 24.9542C31.6066 24.8976 31.8006 24.7126 31.8895 24.5432C31.8926 24.5357 31.8956 24.5282 31.8985 24.5206C32.11 24.0779 32.1938 23.5229 32.2666 22.8292C32.3394 22.1355 32.375 21.33 32.375 20.5302C32.375 19.7305 32.3398 18.9379 32.2666 18.2674C32.1934 17.5969 32.1298 17.0885 31.8782 16.6527C31.2965 15.6453 30.078 15.1776 28.6036 15.1577V15.16C27.2543 15.142 25.6195 15.5016 23.8093 16.2214C23.2151 14.8423 22.1006 13.7395 20.7131 13.1614C20.5485 12.3918 20.687 11.649 21.0316 10.9076C21.3991 10.1167 21.9914 9.35048 22.6011 8.67188C23.2108 7.99327 23.8298 7.40945 24.2654 6.91943C24.4833 6.67431 24.6628 6.4698 24.7803 6.18097C24.8391 6.03655 24.8894 5.84615 24.8323 5.62091C24.7751 5.39567 24.5884 5.20385 24.419 5.11505C24.4131 5.11118 24.407 5.10741 24.4009 5.10376C23.9581 4.89217 23.401 4.80838 22.7072 4.73566C22.0134 4.66281 21.2079 4.625 20.4083 4.625ZM20.4083 5.78125C21.1735 5.78125 21.9481 5.81581 22.5875 5.88287C23.016 5.92797 23.2208 5.99612 23.4683 6.05902C23.4344 6.10065 23.4418 6.1031 23.4005 6.14935C23.0274 6.56907 22.3908 7.17624 21.7429 7.89728C21.095 8.61843 20.4292 9.46115 19.9837 10.4198C19.6439 11.1513 19.5154 11.9738 19.5749 12.8226C19.2261 12.7566 18.8677 12.7187 18.5 12.7187C18.0727 12.7187 17.6592 12.7725 17.2579 12.861C16.5676 11.136 16.1788 9.56257 16.1943 8.41443C16.211 7.17077 16.583 6.4304 17.1089 6.12677C17.158 6.09902 17.6603 5.95185 18.2719 5.88513C18.8835 5.81807 19.643 5.78351 20.4083 5.78351V5.78125ZM6.05676 13.6785C6.16613 13.7699 6.25965 13.8413 6.40454 13.9789C6.86392 14.415 7.46798 15.0378 8.17279 15.6455C9.39588 16.7001 11.0271 17.5725 12.8181 17.4589C12.7564 17.7966 12.7187 18.1448 12.7187 18.5C12.7187 18.9546 12.7838 19.3919 12.8836 19.8166C12.8859 19.8338 12.8857 19.8584 12.8881 19.8753C11.152 20.5724 9.56669 20.9657 8.41217 20.9503C7.16849 20.9341 6.42814 20.5615 6.12451 20.0356C6.0962 19.9859 5.94965 19.4844 5.88287 18.8726C5.81609 18.2608 5.78125 17.4992 5.78125 16.734C5.78125 15.9688 5.81575 15.1962 5.88287 14.557C5.92773 14.1299 5.99405 13.926 6.05676 13.6785ZM18.5 13.875C21.0442 13.875 23.0933 15.9128 23.1205 18.4503C23.1194 18.483 23.122 18.5146 23.1205 18.5474C23.0945 21.086 21.0449 23.125 18.5 23.125C15.9388 23.125 13.875 21.0612 13.875 18.5C13.875 15.9389 15.9388 13.875 18.5 13.875ZM18.5 15.0312C16.5911 15.0312 15.0312 16.5911 15.0312 18.5C15.0313 20.4089 16.5912 21.9688 18.5 21.9688C20.4088 21.9688 21.9687 20.4089 21.9688 18.5C21.9688 16.5911 20.4089 15.0312 18.5 15.0312ZM18.5 16.1875C19.784 16.1875 20.8125 17.216 20.8125 18.5C20.8125 19.784 19.784 20.8125 18.5 20.8125C17.216 20.8125 16.1875 19.784 16.1875 18.5C16.1875 17.216 17.216 16.1875 18.5 16.1875ZM28.5878 16.314V16.3162C29.8315 16.3324 30.5719 16.7073 30.8755 17.2331C30.9038 17.2828 31.0503 17.7843 31.1171 18.3961C31.1839 19.0079 31.2188 19.7673 31.2188 20.5325C31.2188 21.2978 31.1842 22.0726 31.1171 22.7117C31.0721 23.1401 31.0038 23.345 30.941 23.5925C30.8989 23.5589 30.8972 23.5641 30.8506 23.5225C30.4309 23.1495 29.8261 22.5105 29.105 21.8626C28.3839 21.2146 27.5412 20.5489 26.5825 20.1034C25.8439 19.7602 25.0102 19.6357 24.1525 19.6992C24.2348 19.3117 24.2812 18.9115 24.2812 18.5C24.2812 18.1135 24.2412 17.7342 24.1683 17.3686C25.883 16.6848 27.4457 16.2983 28.5878 16.314ZM19.7624 24.1299C20.4548 25.8583 20.8438 27.4332 20.8283 28.5833C20.8116 29.8271 20.4373 30.5696 19.9114 30.8732C19.8624 30.901 19.3602 31.0459 18.7484 31.1126C18.1366 31.1797 17.3773 31.2142 16.6121 31.2142C15.8468 31.2142 15.0743 31.1797 14.4351 31.1126C14.0056 31.0675 13.7994 30.9992 13.5521 30.9365C13.5855 30.8948 13.5791 30.8935 13.6198 30.8484C13.9929 30.4287 14.6318 29.8215 15.2797 29.1005C15.9275 28.3794 16.5934 27.5366 17.0389 26.5779C17.3781 25.848 17.5043 25.0246 17.4454 24.1774C17.788 24.241 18.1393 24.2812 18.5 24.2812C18.9348 24.2812 19.3547 24.2215 19.7624 24.1299ZM4.04688 31.2188C3.09585 31.2188 2.3125 32.0021 2.3125 32.9531C2.3125 33.9041 3.09585 34.6875 4.04688 34.6875C4.9979 34.6875 5.78125 33.9041 5.78125 32.9531C5.78125 32.0021 4.9979 31.2188 4.04688 31.2188ZM32.9531 31.2188C32.0021 31.2188 31.2188 32.0021 31.2188 32.9531C31.2188 33.9041 32.0021 34.6875 32.9531 34.6875C33.9041 34.6875 34.6875 33.9041 34.6875 32.9531C34.6875 32.0021 33.9041 31.2188 32.9531 31.2188ZM4.04688 32.375C4.37301 32.375 4.625 32.6271 4.625 32.9531C4.625 33.2793 4.37301 33.5312 4.04688 33.5312C3.72074 33.5312 3.46875 33.2793 3.46875 32.9531C3.46875 32.6271 3.72074 32.375 4.04688 32.375ZM32.9531 32.375C33.2793 32.375 33.5312 32.6271 33.5312 32.9531C33.5312 33.2793 33.2793 33.5312 32.9531 33.5312C32.627 33.5312 32.375 33.2793 32.375 32.9531C32.375 32.6271 32.627 32.375 32.9531 32.375Z" fill="#1C81DE"/>
</svg>
