<svg width="37" height="31" viewBox="0 0 37 31" fill="none" xmlns="http://www.w3.org/2000/svg">
    <path d="M25.1388 0C23.6706 0 22.4596 1.09932 22.2458 2.51875C21.6914 2.59435 21.1491 2.78106 20.6511 3.0782C19.3151 3.87515 18.5 5.34364 18.5 6.92414V7.54414H19.7333V8.68H20.9667V7.54414H22.2V8.68H23.4333V7.54414H24.6667V8.68H25.9V7.54414H27.1333V6.92414C27.1334 5.34364 26.3182 3.87515 24.9822 3.0782C24.5148 2.79929 24.0077 2.62184 23.4887 2.53812C23.6717 1.78534 24.3293 1.24 25.1388 1.24H30.3612C31.3158 1.24 32.0667 1.9958 32.0667 2.95953V14.88H16.0285C16.0361 14.8061 16.0303 14.7315 16.0117 14.6596C15.6835 13.3936 14.5775 12.538 13.3354 12.538C13.1527 12.538 12.9827 12.6074 12.8055 12.6446C12.3346 11.7289 11.5083 11.0389 10.4641 11.0389V11.0413C9.46115 11.0413 8.59704 11.6083 8.11302 12.4291C7.76619 12.5045 7.44559 12.6533 7.16393 12.865C6.52445 12.2031 5.66135 11.7912 4.72135 11.7897C2.96611 11.7897 1.53373 13.1481 1.28392 14.88H1.23333C0.560733 14.88 0 15.4438 0 16.12V18.6C0 19.2763 0.560733 19.84 1.23333 19.84V24.8C1.23333 27.5372 3.44427 29.76 6.16667 29.76V31H7.4V29.76H29.6V31H30.8333V29.76C33.5557 29.76 35.7667 27.5372 35.7667 24.8V19.84C36.4393 19.84 37 19.2763 37 18.6V16.12C37 15.4438 36.4393 14.88 35.7667 14.88H33.3V2.95953C33.3 1.33178 31.979 0 30.3612 0H25.1388ZM22.8167 3.71758C23.3455 3.71758 23.8743 3.86179 24.3511 4.14625C25.1209 4.60542 25.5606 5.4158 25.7386 6.30414H19.8947C20.0727 5.4158 20.5125 4.60542 21.2822 4.14625C21.759 3.86179 22.2879 3.71758 22.8167 3.71758ZM19.7333 9.92V11.16H20.9667V9.92H19.7333ZM22.2 9.92V11.16H23.4333V9.92H22.2ZM24.6667 9.92V11.16H25.9V9.92H24.6667ZM10.4641 12.2813C11.1494 12.2813 11.7576 12.7554 11.9455 13.4753C11.9678 13.5609 12.008 13.6406 12.0634 13.7093C12.1189 13.7779 12.1883 13.8338 12.267 13.8733C12.3457 13.9127 12.4319 13.9348 12.5198 13.938C12.6077 13.9412 12.6952 13.9255 12.7766 13.8919C12.9571 13.8175 13.1457 13.778 13.3354 13.778C14.0034 13.778 14.5536 14.1815 14.7759 14.88H2.52448C2.7518 13.8091 3.65156 13.0297 4.72135 13.0297C5.42682 13.0308 6.08028 13.378 6.50391 13.9597C6.5123 13.9721 6.52114 13.9842 6.5304 13.996C6.56941 14.1039 6.63745 14.1988 6.72692 14.2701C6.81639 14.3414 6.9238 14.3863 7.03717 14.3999C7.15055 14.4134 7.26544 14.3951 7.36905 14.3469C7.47266 14.2987 7.56093 14.2225 7.62402 14.1268C7.83893 13.8187 8.18038 13.6281 8.55384 13.6037C8.69379 13.5989 8.82797 13.5465 8.93435 13.455C9.04072 13.3634 9.11296 13.2382 9.13919 13.0999C9.40775 12.6072 9.8959 12.2813 10.4641 12.2813ZM19.7333 12.4V13.64H20.9667V12.4H19.7333ZM22.2 12.4V13.64H23.4333V12.4H22.2ZM24.6667 12.4V13.64H25.9V12.4H24.6667ZM1.23333 16.12H35.7667V18.6H1.23333V16.12ZM2.46667 19.84H34.5333V24.8C34.5333 26.8717 32.8938 28.52 30.8333 28.52H6.16667C4.1062 28.52 2.46667 26.8717 2.46667 24.8V19.84Z" fill="#1C81DE"/>
</svg>
