<?xml version="1.0" standalone="no"?>
<!DOCTYPE svg PUBLIC "-//W3C//DTD SVG 20010904//EN"
 "http://www.w3.org/TR/2001/REC-SVG-20010904/DTD/svg10.dtd">
<svg version="1.0" xmlns="http://www.w3.org/2000/svg"
 width="700.000000pt" height="700.000000pt" viewBox="0 0 700.000000 700.000000"
 preserveAspectRatio="xMidYMid meet">
<metadata>
Created by potrace 1.11, written by Peter Selinger 2001-2013
</metadata>
<g transform="translate(0.000000,700.000000) scale(0.100000,-0.100000)"
fill="#000000" stroke="none">
<path d="M3280 6994 c-19 -2 -84 -9 -145 -15 -955 -93 -1835 -591 -2433 -1377
-328 -430 -561 -971 -651 -1514 -38 -226 -45 -320 -45 -588 0 -268 7 -362 45
-588 163 -977 753 -1855 1601 -2383 438 -272 907 -437 1443 -506 196 -25 614
-25 810 0 430 56 786 162 1155 346 729 364 1312 973 1639 1714 144 325 238
675 283 1052 16 139 16 595 0 730 -95 786 -401 1459 -915 2010 -582 625 -1309
996 -2160 1101 -115 14 -550 27 -627 18z m667 -1821 c447 -269 812 -491 813
-495 0 -5 -126 -8 -280 -8 l-280 0 0 -112 1 -113 475 -309 c261 -171 477 -313
480 -318 3 -4 -90 -8 -205 -8 l-211 0 0 -265 0 -265 443 0 c505 0 519 2 580
69 44 49 85 171 57 171 -18 0 -153 135 -193 194 -116 171 -116 368 -3 595 26
50 49 91 52 91 17 0 109 -74 174 -140 116 -118 170 -238 170 -382 l0 -68 45
34 c63 48 146 77 240 83 80 5 223 -11 239 -27 4 -4 1 -32 -9 -62 -48 -147
-149 -278 -256 -330 -73 -35 -174 -52 -270 -45 l-77 6 -11 -46 c-17 -65 -44
-114 -88 -157 -51 -50 -97 -73 -174 -86 -45 -8 -710 -10 -2274 -8 -2112 3
-2212 4 -2257 21 -100 39 -175 136 -199 258 l-12 59 -232 2 -233 3 224 320
225 320 -162 3 c-140 2 -160 5 -155 18 13 33 402 583 410 580 11 -3 416 -575
416 -588 0 -4 -72 -8 -160 -8 -88 0 -160 -2 -160 -4 0 -3 101 -149 225 -325
l224 -321 -254 0 -255 0 0 -28 c0 -43 51 -134 89 -159 18 -13 50 -27 70 -33
21 -6 205 -10 454 -10 l417 0 0 695 0 695 -282 0 c-196 0 -279 3 -272 10 12
12 1616 979 1624 980 3 0 370 -219 817 -487z m-1497 -2531 c43 -22 62 -39 87
-80 71 -119 65 -317 -13 -419 -41 -54 -95 -76 -201 -81 -82 -4 -97 -2 -146 21
-97 44 -141 134 -141 287 1 164 76 272 207 300 65 14 146 3 207 -28z m-615 1
c22 -12 48 -35 58 -51 31 -54 17 -144 -27 -181 -13 -11 -11 -16 16 -39 96 -81
64 -236 -59 -287 -46 -19 -352 -22 -371 -3 -9 9 -12 86 -12 284 0 241 2 274
17 289 14 15 37 16 177 13 140 -3 166 -6 201 -25z m1376 17 c18 -10 19 -24 19
-300 l0 -290 -80 0 -80 0 0 230 0 230 -69 0 -69 0 -6 -67 c-26 -285 -49 -343
-158 -399 -26 -13 -52 -24 -58 -24 -6 0 -22 24 -37 54 l-26 54 45 43 c56 54
65 89 77 304 8 125 12 151 27 162 22 16 385 19 415 3z m604 -60 l0 -65 -129
-3 c-75 -1 -135 -7 -143 -14 -10 -8 -13 -61 -13 -229 l0 -219 -80 0 -80 0 0
245 c0 194 3 252 14 274 35 68 82 81 276 78 l155 -2 0 -65z m389 51 c13 -14
196 -553 196 -577 0 -2 -38 -4 -84 -4 l-85 0 -16 55 -16 55 -87 0 -87 0 -15
-52 -15 -53 -83 -3 c-45 -2 -82 -1 -82 2 0 2 40 129 90 282 64 200 95 284 111
297 31 25 149 24 173 -2z m663 -9 c115 -60 134 -225 35 -317 -36 -34 -110 -55
-194 -55 l-68 0 0 -100 0 -100 -80 0 -80 0 0 290 c0 264 1 290 18 300 11 7 73
9 172 7 136 -2 160 -5 197 -25z m351 -79 l3 -103 72 0 c172 -1 250 -51 264
-170 11 -94 -47 -185 -134 -210 -23 -7 -102 -10 -198 -8 l-160 3 -3 285 c-1
157 0 291 3 298 3 9 25 12 77 10 l73 -3 3 -102z"/>
<path d="M2498 5157 l-617 -372 145 -3 144 -3 0 -749 0 -750 740 0 740 0 0
265 0 265 -212 0 c-179 0 -210 2 -198 13 8 8 203 137 433 286 l417 273 0 199
0 198 145 3 146 3 -613 369 c-337 203 -622 371 -633 373 -12 2 -254 -139 -637
-370z"/>
<path d="M886 4428 l-106 -153 104 -3 c58 -1 155 -1 215 0 l111 3 -104 148
c-58 82 -106 151 -109 153 -3 3 -53 -64 -111 -148z"/>
<path d="M3886 4122 l-299 -197 81 -3 82 -3 2 -317 3 -317 443 -3 442 -2 0
319 0 320 82 3 82 3 -302 198 c-166 108 -306 197 -310 196 -4 0 -142 -89 -306
-197z"/>
<path d="M5700 4219 c-22 -40 -41 -104 -50 -167 -18 -130 22 -240 131 -356
l66 -70 22 58 c54 145 55 263 4 367 -30 61 -134 189 -153 189 -5 0 -14 -9 -20
-21z"/>
<path d="M831 3868 c-90 -128 -166 -238 -168 -245 -4 -10 64 -13 331 -13 185
0 336 3 336 6 0 5 -312 456 -330 477 -4 4 -80 -97 -169 -225z"/>
<path d="M6230 3811 c-88 -27 -168 -98 -215 -191 l-27 -52 94 4 c108 5 164 27
227 89 36 34 101 132 101 152 0 9 -147 8 -180 -2z"/>
<path d="M2250 2502 c-33 -34 -46 -95 -37 -180 9 -89 62 -138 123 -116 47 16
68 57 72 139 6 120 -27 185 -96 185 -24 0 -42 -8 -62 -28z"/>
<path d="M1610 2490 l0 -41 63 3 c56 3 62 5 65 26 6 38 -15 52 -74 52 l-54 0
0 -40z"/>
<path d="M1610 2265 l0 -55 64 0 c69 0 96 14 96 51 0 38 -35 59 -100 59 l-60
0 0 -55z"/>
<path d="M4091 2413 c-11 -49 -21 -91 -21 -95 0 -5 20 -8 45 -8 25 0 45 3 45
6 0 12 -42 184 -45 184 -1 0 -12 -39 -24 -87z"/>
<path d="M4640 2465 l0 -65 58 0 c71 0 95 15 95 60 0 48 -31 70 -99 70 l-54 0
0 -65z"/>
<path d="M5220 2265 l0 -55 69 0 c76 0 101 13 101 54 0 40 -30 56 -103 56
l-67 0 0 -55z"/>
</g>
</svg>
